<?xml version="1.0" encoding="UTF-8" standalone="no"?>
<!-- Created with Inkscape (http://www.inkscape.org/) -->

<svg
   xmlns:ns0="http://www.iki.fi/pav/software/textext/"
   xmlns:dc="http://purl.org/dc/elements/1.1/"
   xmlns:cc="http://creativecommons.org/ns#"
   xmlns:rdf="http://www.w3.org/1999/02/22-rdf-syntax-ns#"
   xmlns:svg="http://www.w3.org/2000/svg"
   xmlns="http://www.w3.org/2000/svg"
   xmlns:sodipodi="http://sodipodi.sourceforge.net/DTD/sodipodi-0.dtd"
   xmlns:inkscape="http://www.inkscape.org/namespaces/inkscape"
   id="svg2"
   version="1.1"
   inkscape:version="0.91 r13725"
   xml:space="preserve"
   width="743.75"
   height="1052.5"
   viewBox="0 0 743.75 1052.5"
   sodipodi:docname="Tank-circuit.svg"><sodipodi:namedview
     pagecolor="#ffffff"
     bordercolor="#666666"
     borderopacity="1"
     objecttolerance="10"
     gridtolerance="10"
     guidetolerance="10"
     inkscape:pageopacity="0"
     inkscape:pageshadow="2"
     inkscape:window-width="1366"
     inkscape:window-height="704"
     id="namedview4"
     showgrid="false"
     inkscape:zoom="1.2684253"
     inkscape:cx="211.86727"
     inkscape:cy="213.56981"
     inkscape:window-x="0"
     inkscape:window-y="27"
     inkscape:window-maximized="1"
     inkscape:current-layer="g10" /><metadata
     id="metadata8"><rdf:RDF><cc:Work
         rdf:about=""><dc:format>image/svg+xml</dc:format><dc:type
           rdf:resource="http://purl.org/dc/dcmitype/StillImage" /><dc:title /></cc:Work></rdf:RDF></metadata><defs
     id="defs6"><marker
       inkscape:isstock="true"
       style="overflow:visible"
       id="Arrow1Mstart"
       refX="0.0"
       refY="0.0"
       orient="auto"
       inkscape:stockid="Arrow1Mstart"><path
         transform="scale(0.4) translate(10,0)"
         style="fill-rule:evenodd;stroke:#000000;stroke-width:1pt;stroke-opacity:1;fill:#000000;fill-opacity:1"
         d="M 0.0,0.0 L 5.0,-5.0 L -12.5,0.0 L 5.0,5.0 L 0.0,0.0 z "
         id="path4282" /></marker></defs><g
     transform="matrix(1.25,0,0,-1.25,0,1052.5)"
     inkscape:label="ink_ext_XXXXXX"
     inkscape:groupmode="layer"
     id="g10"><g
       inkscape:export-ydpi="90"
       inkscape:export-xdpi="90"
       id="g6102"><path
         inkscape:connector-curvature="0"
         id="path14"
         style="fill:none;stroke:#000000;stroke-width:0.97500002;stroke-linecap:round;stroke-linejoin:bevel;stroke-miterlimit:6;stroke-dasharray:none;stroke-opacity:1"
         d="m 84,144 0,-21.75" /><path
         inkscape:connector-curvature="0"
         id="path16"
         style="fill:none;stroke:#000000;stroke-width:0.97500002;stroke-linecap:round;stroke-linejoin:bevel;stroke-miterlimit:6;stroke-dasharray:none;stroke-opacity:1"
         d="m 84,148.5 0,21.75" /><path
         inkscape:connector-curvature="0"
         id="path18"
         style="fill:none;stroke:#000000;stroke-width:0.97500002;stroke-linecap:round;stroke-linejoin:bevel;stroke-miterlimit:6;stroke-dasharray:none;stroke-opacity:1"
         d="m 96,148.5 -24,0" /><path
         inkscape:connector-curvature="0"
         id="path20"
         style="fill:none;stroke:#000000;stroke-width:0.97500002;stroke-linecap:round;stroke-linejoin:bevel;stroke-miterlimit:6;stroke-dasharray:none;stroke-opacity:1"
         d="m 96,144 -24,0" /><path
         inkscape:connector-curvature="0"
         id="path22"
         style="fill:none;stroke:#000000;stroke-width:0.97500002;stroke-linecap:round;stroke-linejoin:bevel;stroke-miterlimit:6;stroke-dasharray:none;stroke-opacity:1"
         d="M 84,96 84,74.25" /><path
         inkscape:connector-curvature="0"
         id="path24"
         style="fill:none;stroke:#000000;stroke-width:0.97500002;stroke-linecap:round;stroke-linejoin:bevel;stroke-miterlimit:6;stroke-dasharray:none;stroke-opacity:1"
         d="m 84,100.5 0,21.75" /><path
         inkscape:connector-curvature="0"
         id="path26"
         style="fill:none;stroke:#000000;stroke-width:0.97500002;stroke-linecap:round;stroke-linejoin:bevel;stroke-miterlimit:6;stroke-dasharray:none;stroke-opacity:1"
         d="m 96,100.5 -24,0" /><path
         inkscape:connector-curvature="0"
         id="path28"
         style="fill:none;stroke:#000000;stroke-width:0.97500002;stroke-linecap:round;stroke-linejoin:bevel;stroke-miterlimit:6;stroke-dasharray:none;stroke-opacity:1"
         d="M 96,96 72,96" /><path
         inkscape:connector-curvature="0"
         id="path30"
         style="fill:none;stroke:#000000;stroke-width:0.97500002;stroke-linecap:round;stroke-linejoin:bevel;stroke-miterlimit:6;stroke-dasharray:none;stroke-opacity:1"
         d="m 144,120 0,-21.75" /><path
         inkscape:connector-curvature="0"
         id="path32"
         style="fill:none;stroke:#000000;stroke-width:0.97500002;stroke-linecap:round;stroke-linejoin:bevel;stroke-miterlimit:6;stroke-dasharray:none;stroke-opacity:1"
         d="m 144,124.5 0,21.75" /><path
         inkscape:connector-curvature="0"
         id="path34"
         style="fill:none;stroke:#000000;stroke-width:0.97500002;stroke-linecap:round;stroke-linejoin:bevel;stroke-miterlimit:6;stroke-dasharray:none;stroke-opacity:1"
         d="m 156,124.5 -24,0" /><path
         inkscape:connector-curvature="0"
         id="path36"
         style="fill:none;stroke:#000000;stroke-width:0.97500002;stroke-linecap:round;stroke-linejoin:bevel;stroke-miterlimit:6;stroke-dasharray:none;stroke-opacity:1"
         d="m 156,120 -24,0" /><path
         inkscape:connector-curvature="0"
         id="path38"
         style="fill:none;stroke:#000000;stroke-width:0.97500002;stroke-linecap:round;stroke-linejoin:bevel;stroke-miterlimit:6;stroke-dasharray:none;stroke-opacity:1"
         d="m 198,115.5 c 7.5,-1.5 7.5,-7.5 0,-9" /><path
         inkscape:connector-curvature="0"
         id="path40"
         style="fill:none;stroke:#000000;stroke-width:0.97500002;stroke-linecap:round;stroke-linejoin:bevel;stroke-miterlimit:6;stroke-dasharray:none;stroke-opacity:1"
         d="m 198,115.5 c -7.5,1.5 -7.5,-3 0,-1.5" /><path
         inkscape:connector-curvature="0"
         id="path42"
         style="fill:none;stroke:#000000;stroke-width:0.97500002;stroke-linecap:round;stroke-linejoin:bevel;stroke-miterlimit:6;stroke-dasharray:none;stroke-opacity:1"
         d="m 198,138 c 7.5,-1.5 7.5,-7.5 0,-9" /><path
         inkscape:connector-curvature="0"
         id="path44"
         style="fill:none;stroke:#000000;stroke-width:0.97500002;stroke-linecap:round;stroke-linejoin:bevel;stroke-miterlimit:6;stroke-dasharray:none;stroke-opacity:1"
         d="m 198,130.5 c 7.5,-1.5 7.5,-7.5 0,-9" /><path
         inkscape:connector-curvature="0"
         id="path46"
         style="fill:none;stroke:#000000;stroke-width:0.97500002;stroke-linecap:round;stroke-linejoin:bevel;stroke-miterlimit:6;stroke-dasharray:none;stroke-opacity:1"
         d="m 198,123 c 7.5,-1.5 7.5,-7.5 0,-9" /><path
         inkscape:connector-curvature="0"
         id="path48"
         style="fill:none;stroke:#000000;stroke-width:0.97500002;stroke-linecap:round;stroke-linejoin:bevel;stroke-miterlimit:6;stroke-dasharray:none;stroke-opacity:1"
         d="m 198,130.5 c -7.5,1.5 -7.5,-3 0,-1.5" /><path
         inkscape:connector-curvature="0"
         id="path50"
         style="fill:none;stroke:#000000;stroke-width:0.97500002;stroke-linecap:round;stroke-linejoin:bevel;stroke-miterlimit:6;stroke-dasharray:none;stroke-opacity:1"
         d="m 198,123 c -7.5,1.5 -7.5,-3 0,-1.5" /><path
         inkscape:connector-curvature="0"
         id="path52"
         style="fill:none;stroke:#000000;stroke-width:0.97500002;stroke-linecap:round;stroke-linejoin:bevel;stroke-miterlimit:6;stroke-dasharray:none;stroke-opacity:1"
         d="m 198,98.25 0,8.25" /><path
         inkscape:connector-curvature="0"
         id="path54"
         style="fill:none;stroke:#000000;stroke-width:0.97500002;stroke-linecap:round;stroke-linejoin:bevel;stroke-miterlimit:6;stroke-dasharray:none;stroke-opacity:1"
         d="M 198,146.25 198,138" /><path
         inkscape:connector-curvature="0"
         id="path56"
         style="fill:#000000;fill-opacity:1;fill-rule:evenodd;stroke:none"
         d="m 86.25,116.25 c 0,1.243 -1.0074,2.25 -2.25,2.25 -1.2426,0 -2.25,-1.007 -2.25,-2.25 0,-1.243 1.0074,-2.25 2.25,-2.25 1.2426,0 2.25,1.007 2.25,2.25" /><path
         inkscape:connector-curvature="0"
         id="path58"
         style="fill:none;stroke:#000000;stroke-width:0.97500002;stroke-linecap:round;stroke-linejoin:bevel;stroke-miterlimit:6;stroke-dasharray:none;stroke-opacity:1"
         d="m 198,146.25 0,24 -114,0" /><path
         inkscape:connector-curvature="0"
         id="path60"
         style="fill:none;stroke:#000000;stroke-width:0.97500002;stroke-linecap:round;stroke-linejoin:bevel;stroke-miterlimit:6;stroke-dasharray:none;stroke-opacity:1"
         d="m 144,170.25 0,-24" /><path
         inkscape:connector-curvature="0"
         id="path62"
         style="fill:none;stroke:#000000;stroke-width:0.97500002;stroke-linecap:round;stroke-linejoin:bevel;stroke-miterlimit:6;stroke-dasharray:none;stroke-opacity:1"
         d="m 144,74.25 0,24" /><path
         inkscape:connector-curvature="0"
         id="path64"
         style="fill:none;stroke:#000000;stroke-width:0.97500002;stroke-linecap:round;stroke-linejoin:bevel;stroke-miterlimit:6;stroke-dasharray:none;stroke-opacity:1"
         d="m 198,74.25 0,24" /><path
         inkscape:connector-curvature="0"
         id="path66"
         style="fill:none;stroke:#000000;stroke-width:0.97500002;stroke-linecap:round;stroke-linejoin:bevel;stroke-miterlimit:6;stroke-dasharray:none;stroke-opacity:1"
         d="m 84,74.25 114,0" /><path
         inkscape:connector-curvature="0"
         id="path68"
         style="fill:none;stroke:#000000;stroke-width:0.97500002;stroke-linecap:round;stroke-linejoin:bevel;stroke-miterlimit:6;stroke-dasharray:none;stroke-opacity:1"
         d="m 230.25,170.25 c 0,1.243 -1.007,2.25 -2.25,2.25 -1.243,0 -2.25,-1.007 -2.25,-2.25 0,-1.243 1.007,-2.25 2.25,-2.25 1.243,0 2.25,1.007 2.25,2.25" /><path
         inkscape:connector-curvature="0"
         id="path70"
         style="fill:none;stroke:#000000;stroke-width:0.97500002;stroke-linecap:round;stroke-linejoin:bevel;stroke-miterlimit:6;stroke-dasharray:none;stroke-opacity:1"
         d="m 225.75,170.25 -3.75,0" /><path
         inkscape:connector-curvature="0"
         id="path72"
         style="fill:none;stroke:#000000;stroke-width:0.97500002;stroke-linecap:round;stroke-linejoin:bevel;stroke-miterlimit:6;stroke-dasharray:none;stroke-opacity:1"
         d="m 198,170.25 24,0" /><path
         inkscape:connector-curvature="0"
         id="path74"
         style="fill:#000000;fill-opacity:1;fill-rule:evenodd;stroke:none"
         d="m 146.25,170.25 c 0,1.243 -1.007,2.25 -2.25,2.25 -1.243,0 -2.25,-1.007 -2.25,-2.25 0,-1.243 1.007,-2.25 2.25,-2.25 1.243,0 2.25,1.007 2.25,2.25" /><path
         inkscape:connector-curvature="0"
         id="path76"
         style="fill:#000000;fill-opacity:1;fill-rule:evenodd;stroke:none"
         d="m 200.25,170.25 c 0,1.243 -1.007,2.25 -2.25,2.25 -1.243,0 -2.25,-1.007 -2.25,-2.25 0,-1.243 1.007,-2.25 2.25,-2.25 1.243,0 2.25,1.007 2.25,2.25" /><path
         inkscape:connector-curvature="0"
         id="path78"
         style="fill:none;stroke:#000000;stroke-width:0.97500002;stroke-linecap:round;stroke-linejoin:bevel;stroke-miterlimit:6;stroke-dasharray:none;stroke-opacity:1"
         d="m 230.25,74.25 c 0,1.2426 -1.007,2.25 -2.25,2.25 -1.243,0 -2.25,-1.0074 -2.25,-2.25 0,-1.2426 1.007,-2.25 2.25,-2.25 1.243,0 2.25,1.0074 2.25,2.25" /><path
         inkscape:connector-curvature="0"
         id="path80"
         style="fill:none;stroke:#000000;stroke-width:0.97500002;stroke-linecap:round;stroke-linejoin:bevel;stroke-miterlimit:6;stroke-dasharray:none;stroke-opacity:1"
         d="m 224.9822,74.25 -3.75,0" /><path
         inkscape:connector-curvature="0"
         id="path82"
         style="fill:none;stroke:#000000;stroke-width:0.97500002;stroke-linecap:round;stroke-linejoin:bevel;stroke-miterlimit:6;stroke-dasharray:none;stroke-opacity:1"
         d="m 197.87087,74.25 22.67669,0" /><path
         inkscape:connector-curvature="0"
         id="path84"
         style="fill:#000000;fill-opacity:1;fill-rule:evenodd;stroke:none"
         d="m 200.25,74.25 c 0,1.2426 -1.007,2.25 -2.25,2.25 -1.243,0 -2.25,-1.0074 -2.25,-2.25 0,-1.2426 1.007,-2.25 2.25,-2.25 1.243,0 2.25,1.0074 2.25,2.25" /><path
         inkscape:connector-curvature="0"
         id="path86"
         style="fill:#000000;fill-opacity:1;fill-rule:evenodd;stroke:none"
         d="m 146.25,74.25 c 0,1.2426 -1.007,2.25 -2.25,2.25 -1.243,0 -2.25,-1.0074 -2.25,-2.25 0,-1.2426 1.007,-2.25 2.25,-2.25 1.243,0 2.25,1.0074 2.25,2.25" /><path
         style="fill:none;fill-rule:evenodd;stroke:#000000;stroke-width:0.80000001px;stroke-linecap:butt;stroke-linejoin:miter;stroke-opacity:1;marker-start:url(#Arrow1Mstart)"
         d="M 70.638769,87.037058 97.128311,107.85027"
         id="path4270"
         inkscape:connector-curvature="0" /><g
         style="font-style:normal;font-variant:normal;font-weight:normal;font-stretch:normal;letter-spacing:normal;word-spacing:normal;text-anchor:start;fill:none;fill-opacity:1;fill-rule:evenodd;stroke:#000000;stroke-linecap:butt;stroke-linejoin:miter;stroke-miterlimit:10.43299961;stroke-dasharray:none;stroke-dashoffset:0;stroke-opacity:1"
         id="content"
         transform="translate(-16.258474,-588.09873)"
         xml:space="preserve"
         stroke-miterlimit="10.433"
         font-style="normal"
         font-variant="normal"
         font-weight="normal"
         font-stretch="normal"
         font-size-adjust="none"
         letter-spacing="normal"
         word-spacing="normal"
         ns0:text="$L$\n"
         ns0:preamble=""><path
           style="fill:#000000;stroke-width:0"
           inkscape:connector-curvature="0"
           d="m 227.16,713.15 0.01,0.03 0.01,0.03 0,0.03 0.01,0.03 0.01,0.03 0.01,0.03 0.01,0.02 0.01,0.02 0.01,0.03 0.01,0.02 0.02,0.02 0.02,0.02 0.01,0.01 0.02,0.02 0.02,0.01 0.03,0.02 0.03,0.01 0.03,0.01 0.03,0.01 0.03,0.01 0.02,0.01 0.02,0 0.02,0.01 0.02,0 0.03,0.01 0.02,0 0.02,0 0.03,0.01 0.02,0 0.03,0 0.03,0 0.03,0.01 0.03,0 0.03,0 0.03,0 0.03,0 0.04,0 0.03,0 0.04,0.01 0.04,0 0.04,0 0.04,0 0.04,0 0.04,0 c 0.3,0 0.38,0 0.38,0.19 0,0.12 -0.11,0.12 -0.16,0.12 -0.33,0 -1.14,-0.03 -1.47,-0.03 -0.3,0 -1.03,0.03 -1.33,0.03 -0.07,0 -0.18,0 -0.18,-0.2 0,-0.11 0.09,-0.11 0.27,-0.11 0.02,0 0.21,0 0.38,-0.02 0.18,-0.02 0.27,-0.03 0.27,-0.16 0,-0.04 -0.01,-0.07 -0.04,-0.19 L 225,707.9 c -0.1,-0.39 -0.12,-0.47 -0.91,-0.47 -0.17,0 -0.27,0 -0.27,-0.2 0,-0.11 0.09,-0.11 0.27,-0.11 l 4.61,0 c 0.24,0 0.25,0 0.31,0.17 l 0.79,2.15 c 0.04,0.11 0.04,0.13 0.04,0.14 0,0.04 -0.03,0.11 -0.12,0.11 -0.09,0 -0.1,-0.05 -0.17,-0.21 -0.34,-0.91 -0.78,-2.05 -2.5,-2.05 l -0.94,0 c -0.14,0 -0.16,0 -0.22,0.01 -0.1,0.01 -0.13,0.02 -0.13,0.1 0,0.03 0,0.05 0.05,0.23 z"
           id="path4880" /></g><g
         style="font-style:normal;font-variant:normal;font-weight:normal;font-stretch:normal;letter-spacing:normal;word-spacing:normal;text-anchor:start;fill:none;fill-opacity:1;fill-rule:evenodd;stroke:#000000;stroke-linecap:butt;stroke-linejoin:miter;stroke-miterlimit:10.43299961;stroke-dasharray:none;stroke-dashoffset:0;stroke-opacity:1"
         ns0:preamble=""
         ns0:text="$C_{bset}$\n"
         text-anchor="start"
         word-spacing="normal"
         letter-spacing="normal"
         font-size-adjust="none"
         font-stretch="normal"
         font-weight="normal"
         font-variant="normal"
         font-style="normal"
         fill-opacity="1"
         fill-rule="evenodd"
         fill="none"
         stroke-opacity="1"
         stroke-dashoffset="0"
         stroke-dasharray="none"
         stroke-miterlimit="10.433"
         stroke-linejoin="miter"
         stroke-linecap="butt"
         stroke="black"
         xml:space="preserve"
         transform="translate(-64.049279,-587.88199)"
         id="g4992"><path
           id="path4994"
           fill="black"
           stroke-width="0"
           d="M231,714.05 L231,714.05 L231,714.05 L231,714.06 L231,714.06 L231,714.06 L231,714.07 L231,714.07 L231,714.07 L231,714.08 L231,714.08 L230.99,714.09 L230.99,714.09 L230.99,714.1 L230.99,714.1 L230.99,714.1 L230.98,714.11 L230.98,714.11 L230.98,714.12 L230.97,714.12 L230.97,714.12 L230.96,714.13 L230.96,714.13 L230.95,714.13 L230.95,714.13 L230.94,714.14 L230.94,714.14 L230.94,714.14 L230.93,714.14 L230.93,714.14 L230.93,714.14 L230.92,714.14 L230.92,714.14 L230.92,714.14 L230.91,714.14 L230.91,714.15 L230.91,714.15 L230.9,714.15 L230.9,714.15 L230.89,714.15 C230.87,714.15,230.85,714.14,230.74,714.03 L230.05,713.26 C229.96,713.4,229.5,714.15,228.39,714.15 C226.17,714.15,223.93,711.94,223.93,709.63 C223.93,707.99,225.11,706.9,226.63,706.9 C227.5,706.9,228.25,707.3,228.78,707.76 C229.71,708.58,229.88,709.48,229.88,709.51 C229.88,709.61,229.78,709.61,229.76,709.61 C229.7,709.61,229.65,709.59,229.63,709.51 C229.54,709.22,229.31,708.52,228.62,707.94 C227.94,707.38,227.31,707.21,226.79,707.21 C225.89,707.21,224.84,707.73,224.84,709.28 C224.84,709.85,225.05,711.47,226.04,712.63 C226.65,713.34,227.59,713.84,228.47,713.84 C229.49,713.84,230.08,713.07,230.08,711.91 C230.08,711.52,230.05,711.51,230.05,711.41 C230.05,711.31,230.16,711.31,230.2,711.31 C230.33,711.31,230.33,711.33,230.38,711.51 Z " /><path
           id="path4996"
           fill="black"
           stroke-width="0"
           d="M232.39,710.26 L232.39,710.26 L232.39,710.26 L232.39,710.26 L232.39,710.26 L232.39,710.27 L232.39,710.27 L232.39,710.27 L232.39,710.27 L232.4,710.27 L232.4,710.28 L232.4,710.28 L232.4,710.28 L232.4,710.29 L232.4,710.29 L232.4,710.3 L232.4,710.3 L232.4,710.31 L232.41,710.31 L232.41,710.32 L232.41,710.33 L232.41,710.33 L232.41,710.34 L232.41,710.34 L232.41,710.35 L232.41,710.35 L232.42,710.35 L232.42,710.36 L232.42,710.36 L232.42,710.36 L232.42,710.36 L232.42,710.36 L232.42,710.37 L232.42,710.37 L232.42,710.37 L232.42,710.37 L232.42,710.37 L232.42,710.37 L232.42,710.37 L232.42,710.37 L232.42,710.37 C232.42,710.41,232.39,710.47,232.31,710.47 C232.17,710.47,231.59,710.41,231.41,710.4 C231.36,710.39,231.26,710.39,231.26,710.24 C231.26,710.14,231.36,710.14,231.44,710.14 C231.78,710.14,231.78,710.09,231.78,710.04 C231.78,709.99,231.71,709.71,231.67,709.55 L231.51,708.91 C231.44,708.67,231.06,707.14,231.04,707.05 C231.01,706.89,231.01,706.79,231.01,706.71 C231.01,706.01,231.46,705.56,232.04,705.56 L232.04,705.76 C231.7,705.76,231.51,706.05,231.51,706.47 C231.51,706.72,231.57,706.96,231.76,707.75 C231.8,707.88,231.8,707.9,231.94,708.05 C232.2,708.36,232.52,708.51,232.77,708.51 C233.04,708.51,233.28,708.31,233.28,707.83 C233.28,707.55,233.12,706.84,232.91,706.43 C232.75,706.09,232.4,705.76,232.04,705.76 H232.04 L232.04,705.56 C232.91,705.56,233.84,706.51,233.84,707.54 C233.84,708.36,233.27,708.71,232.79,708.71 C232.43,708.71,232.12,708.5,231.91,708.32 Z " /><path
           id="path4998"
           fill="black"
           stroke-width="0"
           d="M237.07,708.25 L237.05,708.25 L237.03,708.24 L237.02,708.24 L237,708.23 L236.99,708.23 L236.97,708.22 L236.96,708.21 L236.94,708.2 L236.93,708.19 L236.92,708.19 L236.91,708.18 L236.89,708.17 L236.88,708.16 L236.87,708.15 L236.86,708.14 L236.85,708.12 L236.84,708.11 L236.83,708.1 L236.83,708.09 L236.82,708.08 L236.81,708.07 L236.8,708.05 L236.8,708.04 L236.79,708.03 L236.79,708.02 L236.78,708 L236.78,707.99 L236.78,707.98 L236.78,707.96 L236.77,707.95 L236.77,707.94 L236.77,707.92 C236.77,707.76,236.91,707.7,237,707.7 C237.07,707.7,237.34,707.74,237.34,708.1 C237.34,708.55,236.84,708.71,236.41,708.71 C235.32,708.71,235.13,707.9,235.13,707.69 C235.13,707.43,235.27,707.26,235.37,707.18 C235.55,707.04,235.68,707.01,236.16,706.93 C236.31,706.9,236.75,706.82,236.75,706.47 C236.75,706.35,236.68,706.08,236.38,705.91 C236.11,705.76,235.77,705.76,235.68,705.76 C235.41,705.76,235.01,705.82,234.85,706.05 C235.08,706.08,235.23,706.25,235.23,706.45 C235.23,706.62,235.11,706.7,234.96,706.7 C234.76,706.7,234.55,706.54,234.55,706.24 C234.55,705.82,235,705.56,235.68,705.56 C236.96,705.56,237.2,706.44,237.2,706.71 C237.2,707.35,236.49,707.48,236.24,707.53 C236.17,707.54,236,707.57,235.96,707.58 C235.7,707.63,235.57,707.78,235.57,707.93 C235.57,708.09,235.7,708.28,235.85,708.38 C236.04,708.5,236.29,708.51,236.4,708.51 C236.55,708.51,236.91,708.49,237.07,708.25 Z " /><path
           id="path5000"
           fill="black"
           stroke-width="0"
           d="M239.38,707.22 L239.4,707.22 L239.42,707.22 L239.44,707.22 L239.47,707.22 L239.5,707.22 L239.52,707.22 L239.55,707.22 L239.58,707.22 L239.62,707.23 L239.65,707.23 L239.69,707.23 L239.72,707.23 L239.76,707.23 L239.8,707.24 L239.87,707.24 L239.95,707.25 L240.03,707.26 L240.11,707.27 L240.2,707.29 L240.28,707.3 L240.31,707.31 L240.35,707.32 L240.39,707.33 L240.43,707.34 L240.47,707.35 L240.5,707.37 C241.02,707.55,241.12,707.88,241.12,708.09 C241.12,708.47,240.73,708.71,240.25,708.71 V708.51 C240.56,708.51,240.82,708.36,240.82,708.09 C240.82,707.41,239.64,707.41,239.34,707.41 H239 C239.28,708.43,240.06,708.51,240.25,708.51 V708.71 C239.41,708.71,238.29,708.06,238.29,706.87 C238.29,706.17,238.72,705.56,239.54,705.56 C240.72,705.56,241.27,706.25,241.27,706.35 C241.27,706.39,241.21,706.47,241.15,706.47 C241.11,706.47,241.1,706.45,241.04,706.4 C240.49,705.76,239.68,705.76,239.55,705.76 C239.14,705.76,238.86,706.03,238.86,706.6 C238.86,706.7,238.86,706.84,238.94,707.22 Z " /><path
           id="path5002"
           fill="black"
           stroke-width="0"
           d="M243.31,708.39 H244.02 C244.16,708.39,244.25,708.39,244.25,708.54 C244.25,708.64,244.16,708.64,244.04,708.64 H243.38 L243.63,709.67 C243.64,709.7,243.65,709.74,243.65,709.77 C243.65,709.89,243.56,709.99,243.42,709.99 C243.24,709.99,243.14,709.87,243.09,709.69 C243.04,709.51,243.13,709.85,242.82,708.64 H242.11 C241.98,708.64,241.89,708.64,241.89,708.48 C241.89,708.39,241.97,708.39,242.1,708.39 H242.76 L242.35,706.74 C242.31,706.57,242.25,706.31,242.25,706.22 C242.25,705.81,242.6,705.56,242.99,705.56 C243.77,705.56,244.21,706.54,244.21,706.63 C244.21,706.72,244.12,706.72,244.09,706.72 C244.01,706.72,244,706.7,243.95,706.59 C243.75,706.15,243.4,705.76,243.01,705.76 C242.87,705.76,242.77,705.85,242.77,706.1 C242.77,706.17,242.8,706.31,242.81,706.38 Z " /></g><g
         id="g5138"
         transform="translate(-124.38025,-563.57534)"
         xml:space="preserve"
         stroke="black"
         stroke-linecap="butt"
         stroke-linejoin="miter"
         stroke-miterlimit="10.433"
         stroke-dasharray="none"
         stroke-dashoffset="0"
         stroke-opacity="1"
         fill="none"
         fill-rule="evenodd"
         fill-opacity="1"
         font-style="normal"
         font-variant="normal"
         font-weight="normal"
         font-stretch="normal"
         font-size-adjust="none"
         letter-spacing="normal"
         word-spacing="normal"
         text-anchor="start"
         ns0:text="$C_{bspread}$\n"
         ns0:preamble=""
         style="font-style:normal;font-variant:normal;font-weight:normal;font-stretch:normal;letter-spacing:normal;word-spacing:normal;text-anchor:start;fill:none;fill-opacity:1;fill-rule:evenodd;stroke:#000000;stroke-linecap:butt;stroke-linejoin:miter;stroke-miterlimit:10.43299961;stroke-dasharray:none;stroke-dashoffset:0;stroke-opacity:1"><path
           d="M231,714.05 L231,714.05 L231,714.05 L231,714.06 L231,714.06 L231,714.06 L231,714.07 L231,714.07 L231,714.07 L231,714.08 L231,714.08 L230.99,714.09 L230.99,714.09 L230.99,714.1 L230.99,714.1 L230.99,714.1 L230.98,714.11 L230.98,714.11 L230.98,714.12 L230.97,714.12 L230.97,714.12 L230.96,714.13 L230.96,714.13 L230.95,714.13 L230.95,714.13 L230.94,714.14 L230.94,714.14 L230.94,714.14 L230.93,714.14 L230.93,714.14 L230.93,714.14 L230.92,714.14 L230.92,714.14 L230.92,714.14 L230.91,714.14 L230.91,714.15 L230.91,714.15 L230.9,714.15 L230.9,714.15 L230.89,714.15 C230.87,714.15,230.85,714.14,230.74,714.03 L230.05,713.26 C229.96,713.4,229.5,714.15,228.39,714.15 C226.17,714.15,223.93,711.94,223.93,709.63 C223.93,707.99,225.11,706.9,226.63,706.9 C227.5,706.9,228.25,707.3,228.78,707.76 C229.71,708.58,229.88,709.48,229.88,709.51 C229.88,709.61,229.78,709.61,229.76,709.61 C229.7,709.61,229.65,709.59,229.63,709.51 C229.54,709.22,229.31,708.52,228.62,707.94 C227.94,707.38,227.31,707.21,226.79,707.21 C225.89,707.21,224.84,707.73,224.84,709.28 C224.84,709.85,225.05,711.47,226.04,712.63 C226.65,713.34,227.59,713.84,228.47,713.84 C229.49,713.84,230.08,713.07,230.08,711.91 C230.08,711.52,230.05,711.51,230.05,711.41 C230.05,711.31,230.16,711.31,230.2,711.31 C230.33,711.31,230.33,711.33,230.38,711.51 Z "
           stroke-width="0"
           fill="black"
           id="path5140" /><path
           d="M232.39,710.26 L232.39,710.26 L232.39,710.26 L232.39,710.26 L232.39,710.26 L232.39,710.27 L232.39,710.27 L232.39,710.27 L232.39,710.27 L232.4,710.27 L232.4,710.28 L232.4,710.28 L232.4,710.28 L232.4,710.29 L232.4,710.29 L232.4,710.3 L232.4,710.3 L232.4,710.31 L232.41,710.31 L232.41,710.32 L232.41,710.33 L232.41,710.33 L232.41,710.34 L232.41,710.34 L232.41,710.35 L232.41,710.35 L232.42,710.35 L232.42,710.36 L232.42,710.36 L232.42,710.36 L232.42,710.36 L232.42,710.36 L232.42,710.37 L232.42,710.37 L232.42,710.37 L232.42,710.37 L232.42,710.37 L232.42,710.37 L232.42,710.37 L232.42,710.37 L232.42,710.37 C232.42,710.41,232.39,710.47,232.31,710.47 C232.17,710.47,231.59,710.41,231.41,710.4 C231.36,710.39,231.26,710.39,231.26,710.24 C231.26,710.14,231.36,710.14,231.44,710.14 C231.78,710.14,231.78,710.09,231.78,710.04 C231.78,709.99,231.71,709.71,231.67,709.55 L231.51,708.91 C231.44,708.67,231.06,707.14,231.04,707.05 C231.01,706.89,231.01,706.79,231.01,706.71 C231.01,706.01,231.46,705.56,232.04,705.56 L232.04,705.76 C231.7,705.76,231.51,706.05,231.51,706.47 C231.51,706.72,231.57,706.96,231.76,707.75 C231.8,707.88,231.8,707.9,231.94,708.05 C232.2,708.36,232.52,708.51,232.77,708.51 C233.04,708.51,233.28,708.31,233.28,707.83 C233.28,707.55,233.12,706.84,232.91,706.43 C232.75,706.09,232.4,705.76,232.04,705.76 H232.04 L232.04,705.56 C232.91,705.56,233.84,706.51,233.84,707.54 C233.84,708.36,233.27,708.71,232.79,708.71 C232.43,708.71,232.12,708.5,231.91,708.32 Z "
           stroke-width="0"
           fill="black"
           id="path5142" /><path
           d="M237.07,708.25 L237.05,708.25 L237.03,708.24 L237.02,708.24 L237,708.23 L236.99,708.23 L236.97,708.22 L236.96,708.21 L236.94,708.2 L236.93,708.19 L236.92,708.19 L236.91,708.18 L236.89,708.17 L236.88,708.16 L236.87,708.15 L236.86,708.14 L236.85,708.12 L236.84,708.11 L236.83,708.1 L236.83,708.09 L236.82,708.08 L236.81,708.07 L236.8,708.05 L236.8,708.04 L236.79,708.03 L236.79,708.02 L236.78,708 L236.78,707.99 L236.78,707.98 L236.78,707.96 L236.77,707.95 L236.77,707.94 L236.77,707.92 C236.77,707.76,236.91,707.7,237,707.7 C237.07,707.7,237.34,707.74,237.34,708.1 C237.34,708.55,236.84,708.71,236.41,708.71 C235.32,708.71,235.13,707.9,235.13,707.69 C235.13,707.43,235.27,707.26,235.37,707.18 C235.55,707.04,235.68,707.01,236.16,706.93 C236.31,706.9,236.75,706.82,236.75,706.47 C236.75,706.35,236.68,706.08,236.38,705.91 C236.11,705.76,235.77,705.76,235.68,705.76 C235.41,705.76,235.01,705.82,234.85,706.05 C235.08,706.08,235.23,706.25,235.23,706.45 C235.23,706.62,235.11,706.7,234.96,706.7 C234.76,706.7,234.55,706.54,234.55,706.24 C234.55,705.82,235,705.56,235.68,705.56 C236.96,705.56,237.2,706.44,237.2,706.71 C237.2,707.35,236.49,707.48,236.24,707.53 C236.17,707.54,236,707.57,235.96,707.58 C235.7,707.63,235.57,707.78,235.57,707.93 C235.57,708.09,235.7,708.28,235.85,708.38 C236.04,708.5,236.29,708.51,236.4,708.51 C236.55,708.51,236.91,708.49,237.07,708.25 Z "
           stroke-width="0"
           fill="black"
           id="path5144" /><path
           d="M238.34,704.78 L238.34,704.76 L238.33,704.74 L238.33,704.73 L238.32,704.71 L238.32,704.7 L238.32,704.68 L238.31,704.67 L238.31,704.66 L238.3,704.65 L238.3,704.63 L238.29,704.62 L238.28,704.61 L238.28,704.6 L238.27,704.6 L238.26,704.59 L238.26,704.58 L238.25,704.57 L238.24,704.57 L238.23,704.56 L238.22,704.56 L238.2,704.55 L238.19,704.55 L238.18,704.54 L238.16,704.54 L238.15,704.54 L238.14,704.54 L238.13,704.53 L238.12,704.53 L238.11,704.53 L238.1,704.53 L238.09,704.53 L238.08,704.53 L238.07,704.53 L238.06,704.53 L238.05,704.53 L238.04,704.53 L238.02,704.53 L238.01,704.53 L238,704.53 C237.91,704.53,237.81,704.53,237.81,704.38 C237.81,704.3,237.87,704.28,237.91,704.28 C238.09,704.28,238.32,704.3,238.51,704.3 C238.74,704.3,239.01,704.28,239.24,704.28 C239.3,704.28,239.38,704.3,239.38,704.43 C239.38,704.53,239.28,704.53,239.2,704.53 C239.04,704.53,238.86,704.53,238.86,704.61 C238.86,704.65,238.9,704.83,238.93,704.93 C239.02,705.3,239.12,705.68,239.19,705.97 C239.27,705.83,239.49,705.56,239.91,705.56 V705.76 C239.41,705.76,239.29,706.29,239.29,706.36 C239.29,706.39,239.3,706.44,239.31,706.47 L239.66,707.87 C240.06,708.41,240.41,708.51,240.63,708.51 C240.91,708.51,241.14,708.31,241.14,707.83 C241.14,707.55,240.99,706.84,240.78,706.43 C240.61,706.09,240.26,705.76,239.91,705.76 V705.56 C240.76,705.56,241.7,706.5,241.7,707.54 C241.7,708.36,241.14,708.71,240.66,708.71 C240.22,708.71,239.85,708.41,239.67,708.22 C239.55,708.61,239.16,708.71,238.95,708.71 C238.68,708.71,238.51,708.52,238.4,708.34 C238.26,708.1,238.15,707.68,238.15,707.64 C238.15,707.55,238.24,707.55,238.26,707.55 C238.36,707.55,238.37,707.57,238.42,707.76 C238.52,708.16,238.65,708.51,238.93,708.51 C239.11,708.51,239.16,708.36,239.16,708.17 C239.16,708.09,239.14,708,239.14,707.96 Z "
           stroke-width="0"
           fill="black"
           id="path5146" /><path
           d="M243.57,707.04 L243.57,707.04 L243.57,707.04 L243.57,707.05 L243.57,707.05 L243.57,707.06 L243.57,707.07 L243.57,707.07 L243.58,707.08 L243.58,707.09 L243.58,707.1 L243.58,707.11 L243.58,707.12 L243.59,707.13 L243.59,707.14 L243.6,707.16 L243.6,707.19 L243.61,707.21 L243.62,707.24 L243.62,707.27 L243.63,707.3 L243.64,707.33 L243.65,707.39 L243.67,707.46 L243.68,707.49 L243.69,707.52 L243.69,707.54 L243.7,707.57 L243.71,707.6 L243.71,707.62 L243.72,707.65 L243.72,707.66 L243.73,707.67 L243.73,707.68 L243.73,707.69 L243.73,707.7 L243.74,707.7 L243.74,707.71 L243.74,707.72 L243.74,707.72 L243.74,707.73 L243.75,707.73 L243.75,707.74 L243.75,707.74 L243.75,707.74 C243.76,707.8,243.96,708.15,244.19,708.32 C244.26,708.37,244.45,708.51,244.75,708.51 C244.82,708.51,245,708.5,245.13,708.41 C244.91,708.35,244.83,708.16,244.83,708.03 C244.83,707.88,244.95,707.77,245.11,707.77 C245.27,707.77,245.5,707.9,245.5,708.2 C245.5,708.56,245.12,708.71,244.76,708.71 C244.4,708.71,244.08,708.56,243.78,708.21 C243.65,708.64,243.23,708.71,243.06,708.71 C242.8,708.71,242.62,708.54,242.51,708.35 C242.35,708.08,242.26,707.67,242.26,707.64 C242.26,707.55,242.35,707.55,242.37,707.55 C242.47,707.55,242.48,707.57,242.53,707.76 C242.63,708.18,242.76,708.51,243.04,708.51 C243.22,708.51,243.27,708.36,243.27,708.17 C243.27,708.04,243.2,707.78,243.15,707.59 C243.11,707.4,243.04,707.11,243,706.96 L242.78,706.07 C242.75,705.98,242.71,705.8,242.71,705.78 C242.71,705.63,242.83,705.56,242.95,705.56 C243.05,705.56,243.19,705.62,243.25,705.76 C243.26,705.8,243.34,706.11,243.38,706.29 Z "
           stroke-width="0"
           fill="black"
           id="path5148" /><path
           d="M247.4,707.22 L247.42,707.22 L247.45,707.22 L247.47,707.22 L247.49,707.22 L247.52,707.22 L247.55,707.22 L247.58,707.22 L247.61,707.22 L247.64,707.23 L247.68,707.23 L247.71,707.23 L247.75,707.23 L247.78,707.23 L247.82,707.24 L247.9,707.24 L247.98,707.25 L248.06,707.26 L248.14,707.27 L248.22,707.29 L248.3,707.3 L248.34,707.31 L248.38,707.32 L248.42,707.33 L248.45,707.34 L248.49,707.35 L248.53,707.37 C249.04,707.55,249.14,707.88,249.14,708.09 C249.14,708.47,248.76,708.71,248.28,708.71 V708.51 C248.58,708.51,248.84,708.36,248.84,708.09 C248.84,707.41,247.66,707.41,247.36,707.41 H247.02 C247.31,708.43,248.08,708.51,248.28,708.51 V708.71 C247.44,708.71,246.31,708.06,246.31,706.87 C246.31,706.17,246.75,705.56,247.57,705.56 C248.74,705.56,249.29,706.25,249.29,706.35 C249.29,706.39,249.23,706.47,249.18,706.47 C249.13,706.47,249.12,706.45,249.06,706.4 C248.52,705.76,247.7,705.76,247.58,705.76 C247.16,705.76,246.88,706.03,246.88,706.6 C246.88,706.7,246.88,706.84,246.96,707.22 Z "
           stroke-width="0"
           fill="black"
           id="path5150" /><path
           d="M252.56,708.29 L252.54,708.32 L252.53,708.34 L252.51,708.36 L252.5,708.38 L252.48,708.4 L252.47,708.42 L252.45,708.44 L252.43,708.46 L252.41,708.47 L252.39,708.49 L252.37,708.51 L252.35,708.53 L252.33,708.54 L252.31,708.56 L252.29,708.57 L252.27,708.59 L252.25,708.6 L252.22,708.61 L252.2,708.62 L252.18,708.64 L252.15,708.65 L252.13,708.66 L252.1,708.66 L252.07,708.67 L252.05,708.68 L252.02,708.69 L251.99,708.69 L251.96,708.7 L251.93,708.7 L251.9,708.7 L251.87,708.7 L251.84,708.71 V708.51 C252.33,708.51,252.46,707.98,252.46,707.9 C252.46,707.88,252.45,707.83,252.44,707.81 L252.11,706.5 C252.06,706.31,251.91,706.17,251.76,706.03 C251.69,705.98,251.41,705.76,251.11,705.76 C250.86,705.76,250.6,705.94,250.6,706.43 C250.6,706.8,250.81,707.57,250.97,707.85 C251.29,708.41,251.64,708.51,251.84,708.51 V708.71 C250.95,708.71,250.04,707.72,250.04,706.72 C250.04,706.04,250.49,705.56,251.09,705.56 C251.47,705.56,251.8,705.78,252.08,706.05 C252.22,705.63,252.62,705.56,252.8,705.56 C253.05,705.56,253.23,705.71,253.35,705.93 C253.51,706.2,253.6,706.6,253.6,706.63 C253.6,706.72,253.51,706.72,253.49,706.72 C253.39,706.72,253.38,706.69,253.33,706.5 C253.25,706.17,253.12,705.76,252.82,705.76 C252.64,705.76,252.59,705.91,252.59,706.1 C252.59,706.22,252.65,706.47,252.7,706.65 C252.75,706.84,252.82,707.12,252.85,707.28 L252.99,707.81 C253.03,707.99,253.12,708.32,253.12,708.35 C253.12,708.5,252.99,708.57,252.88,708.57 C252.76,708.57,252.6,708.49,252.56,708.29 Z "
           stroke-width="0"
           fill="black"
           id="path5152" /><path
           d="M257.92,710.26 L257.93,710.26 L257.93,710.26 L257.93,710.26 L257.93,710.26 L257.93,710.27 L257.93,710.27 L257.93,710.27 L257.93,710.27 L257.93,710.27 L257.93,710.28 L257.93,710.28 L257.93,710.28 L257.93,710.29 L257.93,710.29 L257.94,710.3 L257.94,710.3 L257.94,710.31 L257.94,710.31 L257.94,710.32 L257.94,710.33 L257.94,710.33 L257.95,710.34 L257.95,710.34 L257.95,710.35 L257.95,710.35 L257.95,710.35 L257.95,710.36 L257.95,710.36 L257.95,710.36 L257.95,710.36 L257.95,710.36 L257.95,710.37 L257.95,710.37 L257.95,710.37 L257.95,710.37 L257.95,710.37 L257.95,710.37 L257.95,710.37 L257.95,710.37 L257.95,710.37 C257.95,710.41,257.92,710.47,257.84,710.47 C257.7,710.47,257.12,710.41,256.95,710.4 C256.89,710.39,256.8,710.39,256.8,710.24 C256.8,710.14,256.89,710.14,256.98,710.14 C257.31,710.14,257.31,710.09,257.31,710.04 C257.31,709.99,257.3,709.95,257.28,709.88 L256.89,708.29 C256.74,708.52,256.5,708.71,256.17,708.71 V708.51 C256.65,708.51,256.79,707.98,256.79,707.9 C256.79,707.88,256.77,707.83,256.77,707.81 L256.44,706.5 C256.39,706.31,256.24,706.17,256.08,706.03 C256.02,705.98,255.74,705.76,255.44,705.76 C255.18,705.76,254.93,705.94,254.93,706.43 C254.93,706.8,255.13,707.57,255.29,707.85 C255.62,708.41,255.97,708.51,256.17,708.51 V708.71 C255.27,708.71,254.37,707.72,254.37,706.72 C254.37,706.04,254.82,705.56,255.42,705.56 C255.8,705.56,256.13,705.78,256.41,706.05 C256.54,705.63,256.95,705.56,257.13,705.56 C257.38,705.56,257.55,705.71,257.68,705.93 C257.83,706.2,257.92,706.6,257.92,706.63 C257.92,706.72,257.83,706.72,257.81,706.72 C257.71,706.72,257.71,706.69,257.66,706.5 C257.58,706.17,257.44,705.76,257.15,705.76 C256.97,705.76,256.92,705.91,256.92,706.1 C256.92,706.23,256.93,706.29,256.95,706.38 Z "
           stroke-width="0"
           fill="black"
           id="path5154" /></g><g
         style="font-style:normal;font-variant:normal;font-weight:normal;font-stretch:normal;letter-spacing:normal;word-spacing:normal;text-anchor:start;fill:none;fill-opacity:1;fill-rule:evenodd;stroke:#000000;stroke-linecap:butt;stroke-linejoin:miter;stroke-miterlimit:10.43299961;stroke-dasharray:none;stroke-dashoffset:0;stroke-opacity:1"
         ns0:preamble=""
         ns0:text="$C_{var}$\n"
         text-anchor="start"
         word-spacing="normal"
         letter-spacing="normal"
         font-size-adjust="none"
         font-stretch="normal"
         font-weight="normal"
         font-variant="normal"
         font-style="normal"
         fill-opacity="1"
         fill-rule="evenodd"
         fill="none"
         stroke-opacity="1"
         stroke-dashoffset="0"
         stroke-dasharray="none"
         stroke-miterlimit="10.433"
         stroke-linejoin="miter"
         stroke-linecap="butt"
         stroke="black"
         xml:space="preserve"
         transform="translate(-124.09466,-612.8845)"
         id="g5317"><path
           id="path5319"
           fill="black"
           stroke-width="0"
           d="M231,714.05 L231,714.05 L231,714.05 L231,714.06 L231,714.06 L231,714.06 L231,714.07 L231,714.07 L231,714.07 L231,714.08 L231,714.08 L230.99,714.09 L230.99,714.09 L230.99,714.1 L230.99,714.1 L230.99,714.1 L230.98,714.11 L230.98,714.11 L230.98,714.12 L230.97,714.12 L230.97,714.12 L230.96,714.13 L230.96,714.13 L230.95,714.13 L230.95,714.13 L230.94,714.14 L230.94,714.14 L230.94,714.14 L230.93,714.14 L230.93,714.14 L230.93,714.14 L230.92,714.14 L230.92,714.14 L230.92,714.14 L230.91,714.14 L230.91,714.15 L230.91,714.15 L230.9,714.15 L230.9,714.15 L230.89,714.15 C230.87,714.15,230.85,714.14,230.74,714.03 L230.05,713.26 C229.96,713.4,229.5,714.15,228.39,714.15 C226.17,714.15,223.93,711.94,223.93,709.63 C223.93,707.99,225.11,706.9,226.63,706.9 C227.5,706.9,228.25,707.3,228.78,707.76 C229.71,708.58,229.88,709.48,229.88,709.51 C229.88,709.61,229.78,709.61,229.76,709.61 C229.7,709.61,229.65,709.59,229.63,709.51 C229.54,709.22,229.31,708.52,228.62,707.94 C227.94,707.38,227.31,707.21,226.79,707.21 C225.89,707.21,224.84,707.73,224.84,709.28 C224.84,709.85,225.05,711.47,226.04,712.63 C226.65,713.34,227.59,713.84,228.47,713.84 C229.49,713.84,230.08,713.07,230.08,711.91 C230.08,711.52,230.05,711.51,230.05,711.41 C230.05,711.31,230.16,711.31,230.2,711.31 C230.33,711.31,230.33,711.33,230.38,711.51 Z " /><path
           id="path5321"
           fill="black"
           stroke-width="0"
           d="M234.27,708.16 L234.27,708.19 L234.27,708.21 L234.27,708.23 L234.27,708.26 L234.27,708.28 L234.27,708.3 L234.26,708.32 L234.26,708.34 L234.26,708.36 L234.25,708.38 L234.25,708.4 L234.24,708.41 L234.24,708.43 L234.23,708.45 L234.23,708.46 L234.22,708.48 L234.22,708.49 L234.21,708.5 L234.2,708.52 L234.2,708.53 L234.19,708.54 L234.18,708.55 L234.18,708.56 L234.17,708.57 L234.16,708.58 L234.15,708.59 L234.14,708.61 L234.12,708.63 L234.11,708.64 L234.09,708.65 L234.08,708.66 L234.06,708.67 L234.04,708.68 L234.03,708.69 L234.02,708.69 L234,708.7 L233.99,708.7 L233.98,708.71 L233.97,708.71 L233.95,708.71 L233.95,708.71 L233.94,708.71 L233.93,708.71 L233.93,708.71 L233.93,708.71 C233.74,708.71,233.55,708.52,233.55,708.34 C233.55,708.22,233.62,708.17,233.67,708.13 C233.79,708.03,233.93,707.85,233.93,707.57 C233.93,707.26,233.46,705.76,232.63,705.76 C232.07,705.76,232.07,706.26,232.07,706.38 C232.07,706.7,232.2,707.09,232.45,707.74 C232.51,707.88,232.55,707.99,232.55,708.11 C232.55,708.47,232.24,708.71,231.89,708.71 C231.19,708.71,230.88,707.75,230.88,707.64 C230.88,707.55,230.98,707.55,231,707.55 C231.09,707.55,231.1,707.58,231.12,707.66 C231.29,708.23,231.59,708.51,231.87,708.51 C231.99,708.51,232.04,708.43,232.04,708.27 C232.04,708.11,231.99,707.96,231.92,707.8 C231.62,707.03,231.54,706.72,231.54,706.47 C231.54,705.78,232.08,705.56,232.61,705.56 C233.79,705.56,234.27,707.59,234.27,708.16 Z " /><path
           id="path5323"
           fill="black"
           stroke-width="0"
           d="M237.73,708.29 L237.72,708.32 L237.7,708.34 L237.69,708.36 L237.67,708.38 L237.65,708.4 L237.64,708.42 L237.62,708.44 L237.6,708.46 L237.59,708.47 L237.57,708.49 L237.55,708.51 L237.53,708.53 L237.51,708.54 L237.49,708.56 L237.46,708.57 L237.44,708.59 L237.42,708.6 L237.4,708.61 L237.37,708.62 L237.35,708.64 L237.32,708.65 L237.3,708.66 L237.27,708.66 L237.24,708.67 L237.22,708.68 L237.19,708.69 L237.16,708.69 L237.13,708.7 L237.1,708.7 L237.07,708.7 L237.04,708.7 L237.01,708.71 V708.51 C237.5,708.51,237.63,707.98,237.63,707.9 C237.63,707.88,237.62,707.83,237.61,707.81 L237.28,706.5 C237.24,706.31,237.08,706.17,236.93,706.03 C236.87,705.98,236.59,705.76,236.29,705.76 C236.03,705.76,235.78,705.94,235.78,706.43 C235.78,706.8,235.98,707.57,236.14,707.85 C236.46,708.41,236.82,708.51,237.01,708.51 V708.71 C236.12,708.71,235.21,707.72,235.21,706.72 C235.21,706.04,235.67,705.56,236.27,705.56 C236.64,705.56,236.98,705.78,237.26,706.05 C237.39,705.63,237.79,705.56,237.98,705.56 C238.23,705.56,238.4,705.71,238.52,705.93 C238.68,706.2,238.77,706.6,238.77,706.63 C238.77,706.72,238.68,706.72,238.66,706.72 C238.56,706.72,238.55,706.69,238.51,706.5 C238.42,706.17,238.29,705.76,237.99,705.76 C237.81,705.76,237.76,705.91,237.76,706.1 C237.76,706.22,237.82,706.47,237.87,706.65 C237.92,706.84,237.99,707.12,238.02,707.28 L238.16,707.81 C238.21,707.99,238.29,708.32,238.29,708.35 C238.29,708.5,238.16,708.57,238.05,708.57 C237.93,708.57,237.77,708.49,237.73,708.29 Z " /><path
           id="path5325"
           fill="black"
           stroke-width="0"
           d="M240.75,707.04 L240.75,707.04 L240.75,707.04 L240.75,707.05 L240.75,707.05 L240.75,707.06 L240.75,707.07 L240.75,707.07 L240.76,707.08 L240.76,707.09 L240.76,707.1 L240.76,707.11 L240.76,707.12 L240.77,707.13 L240.77,707.14 L240.78,707.16 L240.78,707.19 L240.79,707.21 L240.8,707.24 L240.8,707.27 L240.81,707.3 L240.82,707.33 L240.83,707.39 L240.85,707.46 L240.86,707.49 L240.87,707.52 L240.87,707.54 L240.88,707.57 L240.89,707.6 L240.89,707.62 L240.9,707.65 L240.9,707.66 L240.91,707.67 L240.91,707.68 L240.91,707.69 L240.91,707.7 L240.92,707.7 L240.92,707.71 L240.92,707.72 L240.92,707.72 L240.92,707.73 L240.93,707.73 L240.93,707.74 L240.93,707.74 L240.93,707.74 C240.94,707.8,241.14,708.15,241.37,708.32 C241.44,708.37,241.63,708.51,241.93,708.51 C242,708.51,242.18,708.5,242.32,708.41 C242.09,708.35,242.01,708.16,242.01,708.03 C242.01,707.88,242.13,707.77,242.29,707.77 C242.45,707.77,242.68,707.9,242.68,708.2 C242.68,708.56,242.29,708.71,241.94,708.71 C241.58,708.71,241.26,708.56,240.96,708.21 C240.83,708.64,240.4,708.71,240.24,708.71 C239.98,708.71,239.8,708.54,239.69,708.35 C239.53,708.08,239.43,707.67,239.43,707.64 C239.43,707.55,239.53,707.55,239.55,707.55 C239.65,707.55,239.66,707.57,239.71,707.76 C239.81,708.18,239.94,708.51,240.22,708.51 C240.4,708.51,240.45,708.36,240.45,708.17 C240.45,708.04,240.38,707.78,240.34,707.59 C240.29,707.4,240.22,707.11,240.18,706.96 L239.96,706.07 C239.93,705.98,239.89,705.8,239.89,705.78 C239.89,705.63,240.01,705.56,240.13,705.56 C240.23,705.56,240.37,705.62,240.43,705.76 C240.44,705.8,240.52,706.11,240.56,706.29 Z " /></g></g><g
       id="g6475"
       inkscape:export-xdpi="90"
       inkscape:export-ydpi="90"><g
         id="g5498"
         transform="translate(-125.82605,-472.93587)"
         xml:space="preserve"
         stroke-miterlimit="10.433"
         font-style="normal"
         font-variant="normal"
         font-weight="normal"
         font-stretch="normal"
         font-size-adjust="none"
         letter-spacing="normal"
         word-spacing="normal"
         ns0:text="$C_{tot} = \\frac{C_{spread}C_{var}}{C_{spread} + C_{var}} + C_{bset}$ \n"
         ns0:preamble=""
         style="font-style:normal;font-variant:normal;font-weight:normal;font-stretch:normal;letter-spacing:normal;word-spacing:normal;text-anchor:start;fill:none;fill-opacity:1;fill-rule:evenodd;stroke:#000000;stroke-linecap:butt;stroke-linejoin:miter;stroke-miterlimit:10.43299961;stroke-dasharray:none;stroke-dashoffset:0;stroke-opacity:1"><path
           style="fill:#000000;stroke-width:0"
           inkscape:connector-curvature="0"
           d="m 231,714.05 0,0 0,0 0,0.01 0,0 0,0 0,0.01 0,0 0,0 0,0.01 0,0 -0.01,0.01 0,0 0,0.01 0,0 0,0 -0.01,0.01 0,0 0,0.01 -0.01,0 0,0 -0.01,0.01 0,0 -0.01,0 0,0 -0.01,0.01 0,0 0,0 -0.01,0 0,0 0,0 -0.01,0 0,0 0,0 -0.01,0 0,0.01 0,0 -0.01,0 0,0 -0.01,0 c -0.02,0 -0.04,-0.01 -0.15,-0.12 l -0.69,-0.77 c -0.09,0.14 -0.55,0.89 -1.66,0.89 -2.22,0 -4.46,-2.21 -4.46,-4.52 0,-1.64 1.18,-2.73 2.7,-2.73 0.87,0 1.62,0.4 2.15,0.86 0.93,0.82 1.1,1.72 1.1,1.75 0,0.1 -0.1,0.1 -0.12,0.1 -0.06,0 -0.11,-0.02 -0.13,-0.1 -0.09,-0.29 -0.32,-0.99 -1.01,-1.57 -0.68,-0.56 -1.31,-0.73 -1.83,-0.73 -0.9,0 -1.95,0.52 -1.95,2.07 0,0.57 0.21,2.19 1.2,3.35 0.61,0.71 1.55,1.21 2.43,1.21 1.02,0 1.61,-0.77 1.61,-1.93 0,-0.39 -0.03,-0.4 -0.03,-0.5 0,-0.1 0.11,-0.1 0.15,-0.1 0.13,0 0.13,0.02 0.18,0.2 z"
           id="path5500" /><path
           style="fill:#000000;stroke-width:0"
           inkscape:connector-curvature="0"
           d="m 232.27,708.39 0.71,0 c 0.13,0 0.22,0 0.22,0.15 0,0.1 -0.09,0.1 -0.21,0.1 l -0.66,0 0.26,1.03 c 0,0.03 0.02,0.07 0.02,0.1 0,0.12 -0.1,0.22 -0.24,0.22 -0.17,0 -0.28,-0.12 -0.33,-0.3 -0.05,-0.18 0.04,0.16 -0.26,-1.05 l -0.71,0 c -0.14,0 -0.23,0 -0.23,-0.16 0,-0.09 0.09,-0.09 0.21,-0.09 l 0.66,0 -0.41,-1.65 c -0.04,-0.17 -0.1,-0.43 -0.1,-0.52 0,-0.41 0.35,-0.66 0.75,-0.66 0.77,0 1.21,0.98 1.21,1.07 0,0.09 -0.09,0.09 -0.11,0.09 -0.09,0 -0.09,-0.02 -0.15,-0.13 -0.19,-0.44 -0.55,-0.83 -0.93,-0.83 -0.15,0 -0.25,0.09 -0.25,0.34 0,0.07 0.03,0.21 0.04,0.28 z"
           id="path5502" /><path
           style="fill:#000000;stroke-width:0"
           inkscape:connector-curvature="0"
           d="m 237.27,707.48 0,0.08 -0.01,0.07 -0.01,0.06 -0.01,0.07 -0.01,0.06 -0.02,0.06 -0.02,0.06 -0.02,0.06 -0.03,0.06 -0.03,0.05 -0.03,0.05 -0.03,0.05 -0.04,0.05 -0.03,0.04 -0.04,0.05 -0.05,0.04 -0.04,0.03 -0.05,0.04 -0.04,0.03 -0.05,0.03 -0.06,0.03 -0.05,0.03 -0.05,0.02 -0.06,0.02 -0.06,0.02 -0.05,0.02 -0.06,0.01 -0.06,0.01 -0.07,0.01 -0.06,0.01 -0.06,0 -0.06,0.01 -0.01,-0.2 c 0.38,0 0.7,-0.26 0.7,-0.77 0,-0.17 -0.09,-0.86 -0.39,-1.35 -0.27,-0.41 -0.69,-0.63 -1.04,-0.63 l 0,0 c -0.34,0 -0.69,0.22 -0.69,0.77 0,0.29 0.13,0.97 0.4,1.37 0.3,0.43 0.7,0.61 1.02,0.61 l 0.01,0.2 c -1.04,0 -2.01,-0.97 -2.01,-1.93 0,-0.7 0.51,-1.22 1.27,-1.22 0.99,0 2,0.92 2,1.92 z"
           id="path5504" /><path
           style="fill:#000000;stroke-width:0"
           inkscape:connector-curvature="0"
           d="m 239.21,708.39 0.71,0 c 0.13,0 0.23,0 0.23,0.15 0,0.1 -0.1,0.1 -0.21,0.1 l -0.67,0 0.26,1.03 c 0.01,0.03 0.02,0.07 0.02,0.1 0,0.12 -0.09,0.22 -0.23,0.22 -0.18,0 -0.28,-0.12 -0.33,-0.3 -0.05,-0.18 0.04,0.16 -0.27,-1.05 l -0.71,0 c -0.13,0 -0.22,0 -0.22,-0.16 0,-0.09 0.08,-0.09 0.21,-0.09 l 0.66,0 -0.41,-1.65 c -0.04,-0.17 -0.11,-0.43 -0.11,-0.52 0,-0.41 0.35,-0.66 0.75,-0.66 0.77,0 1.21,0.98 1.21,1.07 0,0.09 -0.09,0.09 -0.11,0.09 -0.08,0 -0.09,-0.02 -0.14,-0.13 -0.2,-0.44 -0.56,-0.83 -0.94,-0.83 -0.15,0 -0.24,0.09 -0.24,0.34 0,0.07 0.03,0.21 0.04,0.28 z"
           id="path5506" /><path
           style="fill:#000000;stroke-width:0"
           inkscape:connector-curvature="0"
           d="m 250.62,710.38 0.03,0 0.02,0 0.03,0 0.02,0 0.01,0 0.02,0 0.01,0.01 0.02,0 0.01,0 0.01,0 0.02,0.01 0.01,0 0.01,0.01 0.01,0 0.02,0.01 0.01,0 0.01,0.01 0.01,0.01 0.01,0 0.01,0.01 0,0.01 0.01,0.01 0,0.01 0,0 0.01,0.01 0,0 0,0.01 0.01,0.01 0,0 0,0.01 0,0.01 0,0.01 0,0 0,0.01 0.01,0.01 0,0.01 0,0.01 c 0,0.2 -0.19,0.2 -0.33,0.2 l -5.97,0 c -0.14,0 -0.33,0 -0.33,-0.2 0,-0.2 0.19,-0.2 0.34,-0.2 z"
           id="path5508" /><path
           style="fill:#000000;stroke-width:0"
           inkscape:connector-curvature="0"
           d="m 250.63,708.45 0.01,0 0.01,0 0.03,0 0.03,0 0.01,0 0.02,0 0.01,0 0.01,0 0.02,0.01 0.01,0 0.02,0 0.01,0 0.01,0.01 0.01,0 0.02,0.01 0.01,0 0.01,0.01 0.01,0.01 0.01,0 0.01,0.01 0.01,0.01 0,0.01 0,0 0.01,0.01 0,0 0,0.01 0.01,0 0,0.01 0,0.01 0.01,0 0,0.01 0,0.01 0,0.01 0,0 0,0.01 0,0.01 0.01,0.01 0,0.01 0,0.01 c 0,0.2 -0.19,0.2 -0.34,0.2 l -5.95,0 c -0.15,0 -0.34,0 -0.34,-0.2 0,-0.2 0.19,-0.2 0.33,-0.2 z"
           id="path5510" /><path
           style="fill:#000000;stroke-width:0"
           inkscape:connector-curvature="0"
           d="m 264.42,717.05 0,0 0,0.01 0,0 0,0 0,0.01 0,0 0,0 -0.01,0.01 0,0 0,0.01 0,0 0,0 0,0.01 -0.01,0 0,0 0,0.01 0,0 -0.01,0 0,0.01 0,0 -0.01,0 0,0.01 0,0 -0.01,0 0,0 -0.01,0 0,0.01 -0.01,0 0,0 0,0 -0.01,0 0,0 0,0 -0.01,0 0,0 0,0 c -0.05,0 -0.06,-0.01 -0.13,-0.08 l -0.51,-0.54 c -0.06,0.08 -0.45,0.62 -1.31,0.62 -1.69,0 -3.35,-1.5 -3.35,-3.07 0,-1.14 0.89,-1.97 2.14,-1.97 0.38,0 1.04,0.07 1.76,0.68 0.55,0.47 0.71,1.07 0.71,1.13 0,0.09 -0.09,0.09 -0.12,0.09 -0.09,0 -0.1,-0.03 -0.13,-0.11 -0.28,-0.96 -1.26,-1.54 -2.1,-1.54 -0.74,0 -1.56,0.4 -1.56,1.5 0,0.2 0.04,1.3 0.85,2.18 0.48,0.54 1.21,0.86 1.87,0.86 0.81,0 1.28,-0.59 1.28,-1.37 0,-0.19 -0.02,-0.24 -0.02,-0.28 0,-0.09 0.09,-0.09 0.13,-0.09 0.11,0 0.11,0.02 0.15,0.15 z"
           id="path5512" /><path
           style="fill:#000000;stroke-width:0"
           inkscape:connector-curvature="0"
           d="m 266.78,713.06 -0.01,0 0,0 -0.01,0 -0.01,-0.01 -0.01,0 0,0 -0.02,-0.01 -0.01,-0.01 -0.01,0 -0.01,-0.01 -0.01,-0.01 -0.01,-0.01 -0.01,-0.01 -0.01,-0.01 -0.01,0 -0.01,-0.01 0,-0.01 -0.01,-0.01 0,-0.01 -0.01,-0.01 0,-0.01 -0.01,-0.01 0,-0.01 -0.01,-0.01 0,-0.01 0,0 0,-0.01 0,-0.01 -0.01,-0.01 0,-0.01 0,0 0,-0.01 0,-0.01 0,0 0,-0.01 c 0,-0.12 0.11,-0.17 0.19,-0.17 0.06,0 0.27,0.04 0.27,0.3 0,0.34 -0.4,0.44 -0.77,0.44 -0.84,0 -1,-0.51 -1,-0.69 0,-0.18 0.1,-0.28 0.19,-0.35 0.14,-0.1 0.29,-0.12 0.55,-0.17 0.32,-0.05 0.67,-0.1 0.67,-0.36 0,0 0,-0.52 -0.92,-0.52 -0.19,0 -0.5,0.02 -0.66,0.17 0.18,0.04 0.26,0.19 0.26,0.31 0,0.14 -0.1,0.2 -0.21,0.2 -0.17,0 -0.32,-0.13 -0.32,-0.36 0,-0.49 0.78,-0.49 0.92,-0.49 1.02,0 1.2,0.59 1.2,0.8 0,0.45 -0.55,0.53 -0.81,0.57 -0.36,0.06 -0.6,0.1 -0.6,0.3 0,0.01 0,0.42 0.72,0.42 0.13,0 0.39,-0.01 0.52,-0.15 z"
           id="path5514" /><path
           style="fill:#000000;stroke-width:0"
           inkscape:connector-curvature="0"
           d="m 268.29,710.6 0,-0.01 -0.01,-0.02 0,-0.01 0,-0.01 -0.01,-0.01 0,-0.01 0,0 0,-0.01 -0.01,-0.01 0,-0.01 -0.01,0 0,-0.01 0,-0.01 -0.01,0 -0.01,-0.01 0,0 -0.01,-0.01 0,0 -0.01,0 -0.01,-0.01 -0.01,0 -0.01,0 -0.01,0 -0.01,0 0,-0.01 -0.01,0 -0.01,0 0,0 -0.01,0 -0.01,0 0,0 -0.01,0 -0.01,0 -0.01,0 -0.01,0 -0.01,0 0,0 -0.01,0 -0.01,0 -0.01,0 -0.01,0 c -0.08,0 -0.16,0 -0.16,-0.14 0,-0.06 0.04,-0.09 0.08,-0.09 0.07,0 0.16,0.02 0.24,0.02 0.08,0 0.17,0 0.25,0 0.1,0 0.19,0 0.29,0 0.09,0 0.19,-0.02 0.28,-0.02 0.06,0 0.12,0.04 0.12,0.14 0,0.09 -0.08,0.09 -0.15,0.09 -0.17,0 -0.28,0 -0.28,0.06 0,0.03 0.08,0.33 0.23,0.92 0.13,-0.16 0.33,-0.3 0.6,-0.3 l 0,0.17 c -0.41,0 -0.52,0.41 -0.52,0.45 0,0.02 0.01,0.05 0.02,0.08 l 0.21,0.84 c 0.02,0.08 0.03,0.09 0.11,0.19 0.2,0.22 0.45,0.36 0.69,0.36 0.21,0 0.44,-0.13 0.44,-0.51 0,-0.22 -0.11,-0.69 -0.25,-0.93 -0.21,-0.37 -0.51,-0.48 -0.7,-0.48 l 0,-0.17 c 0.7,0 1.4,0.69 1.4,1.4 0,0.49 -0.36,0.86 -0.87,0.86 -0.39,0 -0.69,-0.25 -0.79,-0.35 -0.1,0.27 -0.4,0.35 -0.59,0.35 -0.17,0 -0.32,-0.08 -0.44,-0.27 -0.13,-0.21 -0.19,-0.47 -0.19,-0.5 0,-0.07 0.07,-0.07 0.1,-0.07 0.08,0 0.09,0.03 0.12,0.11 0.05,0.19 0.15,0.56 0.39,0.56 0.17,0 0.2,-0.16 0.2,-0.26 0,-0.07 0,-0.09 -0.01,-0.13 z"
           id="path5516" /><path
           style="fill:#000000;stroke-width:0"
           inkscape:connector-curvature="0"
           d="m 272.76,712 0,0 0,0.01 0,0.01 0.01,0.01 0,0.01 0,0.01 0,0.01 0.01,0.01 0,0.01 0,0.01 0,0.02 0.01,0.01 0,0.02 0.01,0.03 0.01,0.02 0,0.03 0,0.01 0.01,0.01 0,0.01 0,0.01 0,0.01 0.01,0.01 0,0.01 0,0.01 0,0.01 0.01,0.01 0,0.01 0,0.01 c 0.02,0.07 0.04,0.15 0.06,0.21 0.02,0.09 0.18,0.35 0.34,0.49 0.18,0.14 0.33,0.17 0.51,0.17 0.06,0 0.3,0 0.45,-0.08 -0.21,-0.08 -0.21,-0.29 -0.21,-0.29 0,-0.09 0.06,-0.2 0.22,-0.2 0.14,0 0.31,0.11 0.31,0.33 0,0.37 -0.52,0.41 -0.76,0.41 -0.12,0 -0.46,0 -0.8,-0.39 -0.06,0.27 -0.35,0.39 -0.59,0.39 -0.17,0 -0.32,-0.08 -0.45,-0.27 -0.13,-0.21 -0.19,-0.47 -0.19,-0.5 0,-0.07 0.07,-0.07 0.1,-0.07 0.09,0 0.09,0.01 0.13,0.14 0.08,0.3 0.2,0.53 0.38,0.53 0.17,0 0.21,-0.16 0.21,-0.26 0,-0.07 -0.06,-0.26 -0.08,-0.39 -0.04,-0.14 -0.09,-0.34 -0.11,-0.45 l -0.12,-0.44 c -0.03,-0.13 -0.08,-0.35 -0.08,-0.37 0,-0.11 0.09,-0.18 0.18,-0.18 0.08,0 0.17,0.05 0.22,0.14 0.02,0.03 0.06,0.19 0.08,0.29 z"
           id="path5518" /><path
           style="fill:#000000;stroke-width:0"
           inkscape:connector-curvature="0"
           d="m 276.21,712.3 0.05,0 0.05,0 0.05,0 0.06,0 0.05,0.01 0.06,0 0.05,0 0.06,0.01 0.06,0.01 0.06,0 0.06,0.01 0.05,0.01 0.06,0.01 0.06,0.01 0.05,0.02 0.06,0.01 0.05,0.02 0.05,0.02 0.05,0.02 0.05,0.02 0.04,0.03 0.04,0.02 0.04,0.03 0.04,0.03 0.03,0.04 0.03,0.03 0.01,0.02 0.02,0.02 0.01,0.02 0.01,0.02 0.01,0.02 0,0.03 0.01,0.02 0.01,0.02 0,0.03 0,0.02 0.01,0.03 0,0.02 c 0,0.26 -0.26,0.45 -0.72,0.45 l 0,-0.17 c 0.24,0 0.46,-0.1 0.46,-0.28 0,-0.46 -0.93,-0.46 -1.16,-0.46 l -0.29,0 c 0.22,0.69 0.83,0.74 0.99,0.74 l 0,0.17 c -0.68,0 -1.54,-0.45 -1.54,-1.28 0,-0.45 0.29,-0.98 1.05,-0.98 0.1,0 0.49,0 0.83,0.14 0.33,0.12 0.53,0.35 0.53,0.41 0,0.04 -0.06,0.11 -0.11,0.11 -0.02,0 -0.03,0 -0.11,-0.08 -0.24,-0.28 -0.68,-0.41 -1.13,-0.41 -0.41,0 -0.61,0.26 -0.61,0.63 0,0.05 0,0.18 0.05,0.38 z"
           id="path5520" /><path
           style="fill:#000000;stroke-width:0"
           inkscape:connector-curvature="0"
           d="m 281.05,712.79 0,0.01 0,0.01 0,0.02 0.01,0.01 0,0.01 0,0.01 0.01,0.02 0.01,0.03 0,0.02 0.01,0.03 0,0.01 0,0.01 0.01,0.01 0,0.01 0,0.01 0,0.02 0.01,0.01 0,0.01 0,0 0,0.01 0,0.01 0.01,0.01 0,0.01 0,0 0,0.01 0,0 0,0.01 0,0 0,0 c 0,0.08 -0.06,0.17 -0.18,0.17 -0.09,0 -0.21,-0.06 -0.25,-0.2 -0.1,0.13 -0.29,0.3 -0.6,0.3 l 0,-0.17 c 0.22,0 0.44,-0.13 0.52,-0.43 l -0.23,-0.94 c -0.02,-0.07 -0.02,-0.08 -0.11,-0.18 -0.19,-0.21 -0.44,-0.37 -0.69,-0.37 -0.18,0 -0.44,0.1 -0.44,0.51 0,0.23 0.12,0.75 0.29,1.01 0.2,0.28 0.45,0.4 0.66,0.4 l 0,0.17 c -0.7,0 -1.4,-0.68 -1.4,-1.39 0,-0.51 0.37,-0.87 0.87,-0.87 0.41,0 0.73,0.29 0.79,0.35 0.09,-0.24 0.36,-0.35 0.59,-0.35 0.2,0 0.33,0.12 0.44,0.28 0.13,0.2 0.2,0.46 0.2,0.5 0,0.07 -0.09,0.07 -0.11,0.07 -0.09,0 -0.09,-0.03 -0.12,-0.11 -0.09,-0.37 -0.22,-0.57 -0.39,-0.57 -0.14,0 -0.2,0.11 -0.2,0.27 0,0.07 0.05,0.26 0.08,0.4 z"
           id="path5522" /><path
           style="fill:#000000;stroke-width:0"
           inkscape:connector-curvature="0"
           d="m 285.32,714.45 0,0 0,0 0,0.01 0,0 0,0 0.01,0.01 0,0 0,0 0,0 0,0.01 0,0 0,0.01 0,0 0,0 0,0.01 0,0 0.01,0.01 0,0 0,0 0,0 0,0.01 0,0 0,0 0,0 0,0.01 0,0 0,0 0,0.01 0,0 0,0 0,0.01 0,0 0,0 c 0,0.09 -0.07,0.09 -0.15,0.08 l -0.62,-0.04 c -0.08,-0.01 -0.09,-0.01 -0.12,-0.03 -0.02,-0.03 -0.03,-0.09 -0.03,-0.12 0,-0.08 0.08,-0.08 0.15,-0.08 0,0 0.09,0 0.17,-0.01 0.09,-0.01 0.1,-0.03 0.1,-0.07 0,-0.02 -0.04,-0.17 -0.06,-0.26 l -0.24,-0.94 c -0.09,0.13 -0.28,0.3 -0.59,0.3 l 0,-0.17 c 0.22,0 0.43,-0.13 0.51,-0.43 l -0.23,-0.94 c -0.02,-0.07 -0.02,-0.08 -0.11,-0.18 -0.18,-0.21 -0.44,-0.37 -0.69,-0.37 -0.17,0 -0.44,0.1 -0.44,0.51 0,0.23 0.12,0.75 0.3,1.01 0.19,0.28 0.45,0.4 0.66,0.4 l 0,0.17 c -0.71,0 -1.4,-0.68 -1.4,-1.39 0,-0.51 0.37,-0.87 0.87,-0.87 0.41,0 0.72,0.29 0.78,0.35 0.09,-0.24 0.37,-0.35 0.59,-0.35 0.2,0 0.34,0.12 0.44,0.28 0.13,0.2 0.2,0.46 0.2,0.5 0,0.07 -0.08,0.07 -0.1,0.07 -0.1,0 -0.1,-0.03 -0.12,-0.11 -0.09,-0.37 -0.22,-0.57 -0.4,-0.57 -0.14,0 -0.2,0.11 -0.2,0.27 0,0.05 0.01,0.11 0.02,0.16 z"
           id="path5524" /><path
           style="fill:#000000;stroke-width:0"
           inkscape:connector-curvature="0"
           d="m 292.09,717.05 0,0 0,0.01 0,0 0,0 -0.01,0.01 0,0 0,0 0,0.01 0,0 0,0.01 0,0 0,0 -0.01,0.01 0,0 0,0 0,0.01 -0.01,0 0,0 0,0.01 0,0 -0.01,0 0,0.01 -0.01,0 0,0 0,0 -0.01,0 0,0.01 -0.01,0 0,0 -0.01,0 0,0 0,0 0,0 -0.01,0 0,0 0,0 c -0.05,0 -0.07,-0.01 -0.13,-0.08 l -0.51,-0.54 c -0.06,0.08 -0.45,0.62 -1.31,0.62 -1.69,0 -3.35,-1.5 -3.35,-3.07 0,-1.14 0.89,-1.97 2.14,-1.97 0.37,0 1.04,0.07 1.76,0.68 0.55,0.47 0.7,1.07 0.7,1.13 0,0.09 -0.08,0.09 -0.11,0.09 -0.09,0 -0.11,-0.03 -0.13,-0.11 -0.29,-0.96 -1.26,-1.54 -2.11,-1.54 -0.73,0 -1.56,0.4 -1.56,1.5 0,0.2 0.05,1.3 0.85,2.18 0.49,0.54 1.22,0.86 1.88,0.86 0.81,0 1.28,-0.59 1.28,-1.37 0,-0.19 -0.02,-0.24 -0.02,-0.28 0,-0.09 0.09,-0.09 0.13,-0.09 0.11,0 0.11,0.02 0.14,0.15 z"
           id="path5526" /><path
           style="fill:#000000;stroke-width:0"
           inkscape:connector-curvature="0"
           d="m 295.12,713.02 0,0.01 0,0.02 -0.01,0.01 0,0.02 0,0.01 0,0.01 0,0.02 0,0.01 -0.01,0.03 0,0.02 -0.01,0.02 0,0.02 -0.01,0.02 -0.01,0.02 -0.01,0.02 -0.01,0.02 -0.01,0.01 -0.01,0.02 -0.01,0.01 -0.01,0.02 -0.01,0.01 -0.01,0.01 -0.01,0.01 -0.02,0.01 -0.01,0.01 -0.01,0 -0.01,0.01 -0.01,0.01 -0.02,0 -0.01,0.01 -0.01,0 -0.01,0 -0.01,0 -0.01,0.01 -0.01,0 -0.01,0 c -0.14,0 -0.29,-0.16 -0.29,-0.29 0,-0.1 0.06,-0.15 0.09,-0.17 0.06,-0.04 0.2,-0.15 0.2,-0.38 0,-0.27 -0.38,-1.26 -0.97,-1.26 -0.26,0 -0.49,0.1 -0.49,0.46 0,0.25 0.14,0.58 0.29,0.95 0.03,0.08 0.06,0.16 0.06,0.24 0,0.25 -0.23,0.44 -0.54,0.44 -0.53,0 -0.8,-0.64 -0.8,-0.77 0,-0.07 0.08,-0.07 0.1,-0.07 0.09,0 0.09,0.02 0.12,0.1 0.1,0.33 0.33,0.57 0.56,0.57 0.09,0 0.15,-0.05 0.15,-0.19 0,-0.1 -0.02,-0.15 -0.09,-0.3 -0.19,-0.48 -0.27,-0.72 -0.27,-0.91 0,-0.48 0.4,-0.69 0.88,-0.69 0.4,0 0.69,0.3 0.87,0.57 0.36,0.53 0.42,1.18 0.42,1.27 z"
           id="path5528" /><path
           style="fill:#000000;stroke-width:0"
           inkscape:connector-curvature="0"
           d="m 298.57,712.85 0.01,0.01 0,0.01 0,0.02 0,0.01 0.01,0.01 0,0.01 0.01,0.02 0,0.03 0.01,0.02 0,0.03 0.01,0.01 0,0.01 0,0.01 0.01,0.01 0,0.01 0,0.02 0,0.01 0.01,0.01 0,0 0,0.01 0,0.01 0,0.01 0.01,0.01 0,0 0,0.01 0,0 0,0.01 0,0 0,0 c 0,0.08 -0.07,0.17 -0.19,0.17 -0.08,0 -0.2,-0.06 -0.24,-0.2 -0.1,0.13 -0.29,0.3 -0.6,0.3 l 0,-0.17 c 0.22,0 0.44,-0.13 0.52,-0.43 l -0.23,-0.94 c -0.02,-0.07 -0.02,-0.08 -0.11,-0.18 -0.19,-0.21 -0.45,-0.37 -0.69,-0.37 -0.18,0 -0.44,0.1 -0.44,0.51 0,0.23 0.12,0.75 0.29,1.01 0.19,0.28 0.45,0.4 0.66,0.4 l 0,0.17 c -0.7,0 -1.4,-0.68 -1.4,-1.39 0,-0.51 0.37,-0.87 0.87,-0.87 0.41,0 0.73,0.29 0.79,0.35 0.09,-0.24 0.36,-0.35 0.58,-0.35 0.2,0 0.34,0.12 0.44,0.28 0.13,0.2 0.2,0.46 0.2,0.5 0,0.07 -0.08,0.07 -0.1,0.07 -0.09,0 -0.1,-0.03 -0.12,-0.11 -0.09,-0.37 -0.22,-0.57 -0.4,-0.57 -0.13,0 -0.19,0.11 -0.19,0.27 0,0.07 0.04,0.26 0.07,0.4 z"
           id="path5530" /><path
           style="fill:#000000;stroke-width:0"
           inkscape:connector-curvature="0"
           d="m 301.04,712.06 0,0 0.01,0.01 0,0.01 0,0.01 0,0.01 0,0.01 0.01,0.01 0,0.01 0,0.01 0,0.01 0.01,0.02 0,0.01 0.01,0.02 0,0.03 0.01,0.02 0,0.03 0.01,0.01 0,0.01 0,0.01 0.01,0.01 0,0.01 0,0.01 0,0.01 0,0.01 0.01,0.01 0,0.01 0,0.01 0,0.01 c 0.02,0.07 0.04,0.15 0.06,0.21 0.02,0.09 0.18,0.35 0.34,0.49 0.18,0.14 0.33,0.17 0.51,0.17 0.06,0 0.3,0 0.46,-0.08 -0.22,-0.08 -0.22,-0.29 -0.22,-0.29 0,-0.09 0.06,-0.2 0.23,-0.2 0.14,0 0.3,0.11 0.3,0.33 0,0.37 -0.52,0.41 -0.76,0.41 -0.12,0 -0.46,0 -0.8,-0.39 -0.06,0.27 -0.35,0.39 -0.59,0.39 -0.17,0 -0.32,-0.08 -0.45,-0.27 -0.12,-0.21 -0.19,-0.47 -0.19,-0.5 0,-0.07 0.08,-0.07 0.1,-0.07 0.09,0 0.09,0.01 0.13,0.14 0.08,0.3 0.2,0.53 0.38,0.53 0.17,0 0.21,-0.16 0.21,-0.26 0,-0.07 -0.05,-0.26 -0.08,-0.39 -0.04,-0.14 -0.09,-0.34 -0.11,-0.45 l -0.12,-0.44 c -0.03,-0.13 -0.08,-0.35 -0.08,-0.37 0,-0.11 0.09,-0.18 0.18,-0.18 0.08,0 0.17,0.05 0.22,0.14 0.02,0.03 0.06,0.19 0.09,0.29 z"
           id="path5532" /><line
           style="stroke-width:0.398"
           x1="255.48"
           y1="709.62"
           x2="306.63"
           y2="709.62"
           id="line5534" /><path
           style="fill:#000000;stroke-width:0"
           inkscape:connector-curvature="0"
           d="m 261.36,708.5 0,0 0,0.01 0,0 0,0 0,0.01 0,0 0,0 -0.01,0.01 0,0 0,0.01 0,0 0,0 0,0.01 -0.01,0 0,0 0,0.01 0,0 -0.01,0 0,0.01 0,0 -0.01,0 0,0.01 0,0 -0.01,0 0,0 -0.01,0 0,0.01 -0.01,0 0,0 0,0 -0.01,0 0,0 0,0 -0.01,0 0,0 0,0 c -0.05,0 -0.06,-0.01 -0.13,-0.08 l -0.51,-0.54 c -0.06,0.08 -0.45,0.62 -1.31,0.62 -1.69,0 -3.35,-1.5 -3.35,-3.07 0,-1.14 0.89,-1.97 2.14,-1.97 0.38,0 1.04,0.07 1.76,0.68 0.55,0.47 0.71,1.07 0.71,1.13 0,0.09 -0.09,0.09 -0.12,0.09 -0.09,0 -0.1,-0.03 -0.13,-0.11 -0.28,-0.95 -1.26,-1.54 -2.1,-1.54 -0.74,0 -1.56,0.4 -1.56,1.5 0,0.2 0.04,1.3 0.85,2.18 0.48,0.54 1.21,0.86 1.87,0.86 0.81,0 1.28,-0.59 1.28,-1.37 0,-0.19 -0.02,-0.24 -0.02,-0.28 0,-0.09 0.09,-0.09 0.13,-0.09 0.11,0 0.11,0.02 0.15,0.15 z"
           id="path5536" /><path
           style="fill:#000000;stroke-width:0"
           inkscape:connector-curvature="0"
           d="m 263.72,704.51 -0.01,0 0,0 -0.01,0 -0.01,-0.01 -0.01,0 0,0 -0.02,-0.01 -0.01,-0.01 -0.01,0 -0.01,-0.01 -0.01,-0.01 -0.01,-0.01 -0.01,-0.01 -0.01,-0.01 -0.01,0 -0.01,-0.01 0,-0.01 -0.01,-0.01 0,-0.01 -0.01,-0.01 0,-0.01 -0.01,-0.01 0,-0.01 -0.01,-0.01 0,-0.01 0,0 0,-0.01 0,-0.01 -0.01,-0.01 0,-0.01 0,0 0,-0.01 0,-0.01 0,0 0,-0.01 c 0,-0.12 0.11,-0.17 0.19,-0.17 0.06,0 0.27,0.04 0.27,0.3 0,0.34 -0.4,0.44 -0.77,0.44 -0.84,0 -1,-0.51 -1,-0.69 0,-0.18 0.1,-0.29 0.19,-0.35 0.14,-0.1 0.29,-0.12 0.55,-0.17 0.32,-0.05 0.67,-0.1 0.67,-0.36 0,0 0,-0.52 -0.92,-0.52 -0.19,0 -0.5,0.02 -0.66,0.17 0.18,0.04 0.26,0.19 0.26,0.31 0,0.14 -0.1,0.2 -0.21,0.2 -0.17,0 -0.32,-0.13 -0.32,-0.36 0,-0.48 0.78,-0.48 0.92,-0.48 1.02,0 1.2,0.58 1.2,0.79 0,0.45 -0.55,0.53 -0.81,0.58 -0.36,0.05 -0.6,0.09 -0.6,0.29 0,0.01 0,0.42 0.72,0.42 0.13,0 0.39,-0.01 0.52,-0.15 z"
           id="path5538" /><path
           style="fill:#000000;stroke-width:0"
           inkscape:connector-curvature="0"
           d="m 265.23,702.05 0,-0.01 -0.01,-0.02 0,-0.01 0,-0.01 -0.01,-0.01 0,-0.01 0,0 0,-0.01 -0.01,-0.01 0,-0.01 -0.01,0 0,-0.01 0,-0.01 -0.01,0 -0.01,-0.01 0,0 -0.01,-0.01 0,0 -0.01,0 -0.01,-0.01 -0.01,0 -0.01,0 -0.01,0 -0.01,0 0,-0.01 -0.01,0 -0.01,0 0,0 -0.01,0 -0.01,0 0,0 -0.01,0 -0.01,0 -0.01,0 -0.01,0 -0.01,0 0,0 -0.01,0 -0.01,0 -0.01,0 -0.01,0 c -0.08,0 -0.16,0 -0.16,-0.14 0,-0.06 0.04,-0.09 0.08,-0.09 0.07,0 0.16,0.02 0.24,0.02 0.08,0 0.17,0 0.25,0 0.1,0 0.19,0 0.29,0 0.09,0 0.19,-0.02 0.28,-0.02 0.06,0 0.12,0.04 0.12,0.14 0,0.09 -0.08,0.09 -0.15,0.09 -0.17,0 -0.28,0 -0.28,0.06 0,0.03 0.08,0.33 0.23,0.92 0.13,-0.16 0.33,-0.29 0.6,-0.29 l 0,0.16 c -0.41,0 -0.52,0.41 -0.52,0.45 0,0.02 0.01,0.05 0.02,0.08 l 0.21,0.84 c 0.02,0.08 0.03,0.09 0.11,0.19 0.2,0.22 0.45,0.36 0.69,0.36 0.21,0 0.44,-0.13 0.44,-0.51 0,-0.22 -0.11,-0.69 -0.25,-0.93 -0.21,-0.37 -0.51,-0.48 -0.7,-0.48 l 0,-0.16 c 0.7,0 1.4,0.68 1.4,1.39 0,0.49 -0.36,0.86 -0.87,0.86 -0.39,0 -0.69,-0.25 -0.79,-0.35 -0.1,0.27 -0.4,0.35 -0.59,0.35 -0.17,0 -0.32,-0.08 -0.44,-0.27 -0.13,-0.21 -0.19,-0.47 -0.19,-0.49 0,-0.08 0.07,-0.08 0.1,-0.08 0.08,0 0.09,0.03 0.11,0.1 0.06,0.2 0.16,0.57 0.4,0.57 0.17,0 0.2,-0.16 0.2,-0.26 0,-0.07 0,-0.09 -0.01,-0.13 z"
           id="path5540" /><path
           style="fill:#000000;stroke-width:0"
           inkscape:connector-curvature="0"
           d="m 269.7,703.45 0,0 0,0.01 0,0.01 0.01,0.01 0,0.01 0,0.01 0,0.01 0.01,0.01 0,0.01 0,0.01 0,0.02 0.01,0.01 0,0.02 0.01,0.03 0.01,0.02 0,0.03 0,0.01 0.01,0.01 0,0.01 0,0.01 0,0.01 0.01,0.01 0,0.01 0,0.01 0,0.01 0.01,0.01 0,0.01 0,0.01 c 0.02,0.07 0.04,0.15 0.06,0.22 0.02,0.08 0.18,0.34 0.34,0.48 0.18,0.14 0.33,0.17 0.51,0.17 0.05,0 0.29,0 0.45,-0.08 -0.21,-0.08 -0.21,-0.29 -0.21,-0.29 0,-0.09 0.06,-0.2 0.22,-0.2 0.14,0 0.31,0.11 0.31,0.33 0,0.37 -0.52,0.41 -0.76,0.41 -0.12,0 -0.46,0 -0.8,-0.39 -0.06,0.27 -0.35,0.39 -0.59,0.39 -0.17,0 -0.32,-0.08 -0.45,-0.27 -0.13,-0.21 -0.19,-0.47 -0.19,-0.49 0,-0.08 0.07,-0.08 0.1,-0.08 0.09,0 0.09,0.02 0.13,0.14 0.08,0.3 0.2,0.53 0.38,0.53 0.17,0 0.2,-0.16 0.2,-0.26 0,-0.07 -0.05,-0.26 -0.07,-0.39 -0.04,-0.13 -0.09,-0.34 -0.11,-0.45 l -0.12,-0.44 c -0.03,-0.13 -0.08,-0.35 -0.08,-0.37 0,-0.11 0.09,-0.17 0.18,-0.17 0.08,0 0.17,0.04 0.22,0.13 0.02,0.03 0.06,0.19 0.08,0.29 z"
           id="path5542" /><path
           style="fill:#000000;stroke-width:0"
           inkscape:connector-curvature="0"
           d="m 273.16,703.75 0.05,0 0.05,0 0.05,0 0.05,0 0.06,0.01 0.06,0 0.05,0 0.06,0.01 0.06,0.01 0.06,0 0.05,0.01 0.06,0.01 0.06,0.01 0.06,0.01 0.05,0.02 0.06,0.01 0.05,0.02 0.05,0.02 0.05,0.02 0.05,0.02 0.04,0.03 0.04,0.02 0.04,0.03 0.04,0.03 0.03,0.04 0.03,0.03 0.01,0.02 0.01,0.02 0.01,0.02 0.01,0.02 0.01,0.02 0.01,0.03 0.01,0.02 0,0.02 0.01,0.03 0,0.02 0,0.03 0,0.02 c 0,0.26 -0.25,0.45 -0.71,0.45 l -0.01,-0.17 c 0.25,0 0.47,-0.1 0.47,-0.28 0,-0.46 -0.93,-0.46 -1.16,-0.46 l -0.29,0 c 0.22,0.69 0.83,0.74 0.98,0.74 l 0.01,0.17 c -0.68,0 -1.54,-0.45 -1.54,-1.28 0,-0.45 0.29,-0.97 1.05,-0.97 0.09,0 0.49,0 0.83,0.13 0.33,0.12 0.53,0.35 0.53,0.41 0,0.04 -0.07,0.11 -0.11,0.11 -0.03,0 -0.03,0 -0.11,-0.08 -0.24,-0.28 -0.69,-0.41 -1.14,-0.41 -0.4,0 -0.6,0.26 -0.6,0.63 0,0.05 0,0.18 0.05,0.38 z"
           id="path5544" /><path
           style="fill:#000000;stroke-width:0"
           inkscape:connector-curvature="0"
           d="m 277.99,704.24 0,0.01 0,0.01 0,0.02 0.01,0.01 0,0.01 0,0.01 0.01,0.02 0.01,0.03 0,0.02 0.01,0.03 0,0.01 0,0.01 0.01,0.01 0,0.01 0,0.01 0,0.02 0.01,0.01 0,0.01 0,0 0,0.01 0,0.01 0.01,0.01 0,0.01 0,0 0,0.01 0,0 0,0.01 0,0 0,0 c 0,0.08 -0.06,0.17 -0.18,0.17 -0.09,0 -0.21,-0.06 -0.25,-0.2 -0.1,0.13 -0.29,0.3 -0.6,0.3 l 0,-0.17 c 0.22,0 0.44,-0.13 0.52,-0.43 l -0.23,-0.94 c -0.02,-0.07 -0.02,-0.08 -0.11,-0.18 -0.19,-0.21 -0.44,-0.37 -0.69,-0.37 -0.18,0 -0.44,0.1 -0.44,0.51 0,0.23 0.12,0.76 0.29,1.01 0.2,0.28 0.45,0.4 0.66,0.4 l 0,0.17 c -0.7,0 -1.4,-0.68 -1.4,-1.39 0,-0.51 0.37,-0.86 0.87,-0.86 0.41,0 0.73,0.28 0.79,0.34 0.09,-0.24 0.36,-0.34 0.59,-0.34 0.2,0 0.33,0.11 0.44,0.27 0.13,0.2 0.2,0.46 0.2,0.5 0,0.07 -0.09,0.07 -0.11,0.07 -0.09,0 -0.09,-0.03 -0.12,-0.11 -0.09,-0.37 -0.22,-0.57 -0.39,-0.57 -0.14,0 -0.2,0.11 -0.2,0.27 0,0.07 0.05,0.26 0.08,0.4 z"
           id="path5546" /><path
           style="fill:#000000;stroke-width:0"
           inkscape:connector-curvature="0"
           d="m 282.27,705.9 0,0 0,0 0,0.01 0,0 0,0 0,0.01 0,0 0,0 0.01,0.01 0,0 0,0.01 0,0 0,0 0,0.01 0,0 0,0 0,0.01 0,0 0,0 0.01,0.01 0,0 0,0 0,0 0,0.01 0,0 0,0 0,0 0,0.01 0,0 0,0.01 0,0 0,0 c 0,0.09 -0.08,0.09 -0.16,0.08 l -0.61,-0.04 c -0.08,-0.01 -0.09,-0.01 -0.12,-0.03 -0.02,-0.03 -0.03,-0.09 -0.03,-0.12 0,-0.08 0.08,-0.08 0.15,-0.08 0,0 0.09,0 0.16,-0.01 0.1,-0.01 0.1,-0.03 0.1,-0.07 0,-0.02 -0.04,-0.17 -0.05,-0.26 l -0.24,-0.94 c -0.09,0.13 -0.28,0.3 -0.6,0.3 l 0,-0.17 c 0.23,0 0.44,-0.13 0.52,-0.43 l -0.23,-0.94 c -0.02,-0.07 -0.02,-0.08 -0.11,-0.18 -0.18,-0.21 -0.44,-0.37 -0.69,-0.37 -0.18,0 -0.44,0.1 -0.44,0.51 0,0.23 0.12,0.76 0.29,1.01 0.2,0.28 0.45,0.4 0.66,0.4 l 0,0.17 c -0.7,0 -1.4,-0.68 -1.4,-1.39 0,-0.51 0.38,-0.86 0.87,-0.86 0.41,0 0.73,0.28 0.79,0.34 0.09,-0.24 0.37,-0.34 0.59,-0.34 0.2,0 0.33,0.11 0.44,0.27 0.13,0.2 0.2,0.46 0.2,0.5 0,0.07 -0.09,0.07 -0.11,0.07 -0.09,0 -0.09,-0.03 -0.12,-0.11 -0.09,-0.37 -0.22,-0.57 -0.39,-0.57 -0.14,0 -0.2,0.11 -0.2,0.27 0,0.05 0.01,0.11 0.02,0.16 z"
           id="path5548" /><path
           style="fill:#000000;stroke-width:0"
           inkscape:connector-curvature="0"
           d="m 286.38,705.26 2.13,0 c 0.09,0 0.26,0 0.26,0.17 0,0.17 -0.16,0.17 -0.26,0.17 l -2.13,0 0,2.15 c 0,0.09 0,0.25 -0.17,0.25 -0.17,0 -0.17,-0.16 -0.17,-0.25 l 0,-2.15 -2.15,0 c -0.09,0 -0.25,0 -0.25,-0.16 0,-0.18 0.16,-0.18 0.25,-0.18 l 2.15,0 0,-2.14 c 0,-0.09 0,-0.26 0.16,-0.26 0.18,0 0.18,0.17 0.18,0.26 z"
           id="path5550" /><path
           style="fill:#000000;stroke-width:0"
           inkscape:connector-curvature="0"
           d="m 295.15,708.5 0,0 0,0.01 0,0 0,0 -0.01,0.01 0,0 0,0 0,0.01 0,0 0,0.01 0,0 0,0 -0.01,0.01 0,0 0,0 0,0.01 -0.01,0 0,0 0,0.01 0,0 -0.01,0 0,0.01 -0.01,0 0,0 0,0 -0.01,0 0,0.01 -0.01,0 0,0 -0.01,0 0,0 0,0 0,0 -0.01,0 0,0 0,0 c -0.05,0 -0.07,-0.01 -0.13,-0.08 l -0.51,-0.54 c -0.06,0.08 -0.45,0.62 -1.31,0.62 -1.69,0 -3.35,-1.5 -3.35,-3.07 0,-1.14 0.89,-1.97 2.14,-1.97 0.37,0 1.04,0.07 1.76,0.68 0.55,0.47 0.7,1.07 0.7,1.13 0,0.09 -0.08,0.09 -0.11,0.09 -0.09,0 -0.11,-0.03 -0.13,-0.11 -0.29,-0.95 -1.26,-1.54 -2.1,-1.54 -0.74,0 -1.57,0.4 -1.57,1.5 0,0.2 0.05,1.3 0.85,2.18 0.49,0.54 1.22,0.86 1.88,0.86 0.81,0 1.28,-0.59 1.28,-1.37 0,-0.19 -0.02,-0.24 -0.02,-0.28 0,-0.09 0.09,-0.09 0.13,-0.09 0.11,0 0.11,0.02 0.14,0.15 z"
           id="path5552" /><path
           style="fill:#000000;stroke-width:0"
           inkscape:connector-curvature="0"
           d="m 298.18,704.47 0,0.01 0,0.02 -0.01,0.01 0,0.02 0,0.01 0,0.01 0,0.02 0,0.01 -0.01,0.03 0,0.02 -0.01,0.02 0,0.02 -0.01,0.02 -0.01,0.02 -0.01,0.02 -0.01,0.02 -0.01,0.01 -0.01,0.02 -0.01,0.01 -0.01,0.02 -0.01,0.01 -0.01,0.01 -0.01,0.01 -0.02,0.01 -0.01,0.01 -0.01,0 -0.01,0.01 -0.01,0.01 -0.02,0 -0.01,0.01 -0.01,0 -0.01,0 -0.01,0 -0.01,0.01 -0.01,0 -0.01,0 c -0.14,0 -0.29,-0.16 -0.29,-0.29 0,-0.1 0.06,-0.15 0.09,-0.17 0.06,-0.04 0.2,-0.15 0.2,-0.38 0,-0.27 -0.38,-1.26 -0.97,-1.26 -0.26,0 -0.49,0.1 -0.49,0.46 0,0.25 0.14,0.58 0.29,0.95 0.03,0.08 0.06,0.16 0.06,0.24 0,0.25 -0.23,0.44 -0.54,0.44 -0.53,0 -0.8,-0.64 -0.8,-0.77 0,-0.07 0.08,-0.07 0.1,-0.07 0.08,0 0.09,0.03 0.11,0.1 0.11,0.33 0.34,0.57 0.57,0.57 0.09,0 0.15,-0.05 0.15,-0.19 0,-0.1 -0.02,-0.15 -0.09,-0.3 -0.19,-0.48 -0.27,-0.72 -0.27,-0.91 0,-0.48 0.4,-0.68 0.88,-0.68 0.4,0 0.69,0.29 0.87,0.56 0.36,0.53 0.42,1.18 0.42,1.27 z"
           id="path5554" /><path
           style="fill:#000000;stroke-width:0"
           inkscape:connector-curvature="0"
           d="m 301.63,704.3 0.01,0.01 0,0.01 0,0.02 0,0.01 0.01,0.01 0,0.01 0.01,0.02 0,0.03 0.01,0.02 0,0.03 0.01,0.01 0,0.01 0,0.01 0.01,0.01 0,0.01 0,0.02 0,0.01 0.01,0.01 0,0 0,0.01 0,0.01 0,0.01 0.01,0.01 0,0 0,0.01 0,0 0,0.01 0,0 0,0 c 0,0.08 -0.07,0.17 -0.19,0.17 -0.09,0 -0.2,-0.06 -0.24,-0.2 -0.1,0.13 -0.29,0.3 -0.6,0.3 l 0,-0.17 c 0.22,0 0.44,-0.13 0.52,-0.43 l -0.23,-0.94 c -0.02,-0.07 -0.02,-0.08 -0.11,-0.18 -0.19,-0.21 -0.45,-0.37 -0.69,-0.37 -0.18,0 -0.44,0.1 -0.44,0.51 0,0.23 0.12,0.76 0.29,1.01 0.19,0.28 0.45,0.4 0.66,0.4 l 0,0.17 c -0.7,0 -1.4,-0.68 -1.4,-1.39 0,-0.51 0.37,-0.86 0.87,-0.86 0.41,0 0.73,0.28 0.79,0.34 0.09,-0.24 0.36,-0.34 0.58,-0.34 0.2,0 0.34,0.11 0.44,0.27 0.13,0.2 0.2,0.46 0.2,0.5 0,0.07 -0.08,0.07 -0.1,0.07 -0.09,0 -0.1,-0.03 -0.12,-0.11 -0.09,-0.37 -0.22,-0.57 -0.39,-0.57 -0.15,0 -0.2,0.11 -0.2,0.27 0,0.07 0.04,0.26 0.07,0.4 z"
           id="path5556" /><path
           style="fill:#000000;stroke-width:0"
           inkscape:connector-curvature="0"
           d="m 304.09,703.51 0.01,0 0,0.01 0,0.01 0,0.01 0,0.01 0.01,0.01 0,0.01 0,0.01 0,0.01 0.01,0.01 0,0.02 0,0.01 0.01,0.02 0,0.03 0.01,0.02 0.01,0.03 0,0.01 0,0.01 0,0.01 0.01,0.01 0,0.01 0,0.01 0,0.01 0.01,0.01 0,0.01 0,0.01 0,0.01 0,0.01 c 0.02,0.07 0.04,0.15 0.06,0.22 0.02,0.08 0.18,0.34 0.35,0.48 0.17,0.14 0.33,0.17 0.5,0.17 0.06,0 0.3,0 0.46,-0.08 -0.21,-0.08 -0.21,-0.29 -0.21,-0.29 0,-0.09 0.06,-0.2 0.22,-0.2 0.14,0 0.31,0.11 0.31,0.33 0,0.37 -0.53,0.41 -0.77,0.41 -0.12,0 -0.46,0 -0.8,-0.39 -0.06,0.27 -0.34,0.39 -0.59,0.39 -0.17,0 -0.31,-0.08 -0.44,-0.27 -0.13,-0.21 -0.2,-0.47 -0.2,-0.5 0,-0.07 0.08,-0.07 0.11,-0.07 0.08,0 0.09,0.02 0.12,0.14 0.08,0.3 0.2,0.53 0.39,0.53 0.17,0 0.2,-0.16 0.2,-0.26 0,-0.07 -0.05,-0.26 -0.08,-0.39 -0.03,-0.14 -0.08,-0.34 -0.11,-0.45 l -0.11,-0.44 c -0.03,-0.13 -0.09,-0.35 -0.09,-0.37 0,-0.11 0.09,-0.17 0.19,-0.17 0.08,0 0.17,0.04 0.21,0.13 0.03,0.03 0.06,0.19 0.09,0.29 z"
           id="path5558" /><path
           style="fill:#000000;stroke-width:0"
           inkscape:connector-curvature="0"
           d="m 314.11,709.41 2.78,0 c 0.14,0 0.33,0 0.33,0.2 0,0.2 -0.19,0.2 -0.33,0.2 l -2.78,0 0,2.79 c 0,0.14 0,0.33 -0.2,0.33 -0.2,0 -0.2,-0.19 -0.2,-0.33 l 0,-2.79 -2.79,0 c -0.14,0 -0.33,0 -0.33,-0.2 0,-0.2 0.19,-0.2 0.33,-0.2 l 2.79,0 0,-2.79 c 0,-0.14 0,-0.32 0.2,-0.32 0.2,0 0.2,0.18 0.2,0.32 z"
           id="path5560" /><path
           style="fill:#000000;stroke-width:0"
           inkscape:connector-curvature="0"
           d="m 327.57,714.05 0,0 0,0 0,0.01 0,0 0,0 0,0.01 0,0 0,0 0,0.01 0,0 -0.01,0.01 0,0 0,0.01 0,0 0,0 -0.01,0.01 0,0 0,0.01 -0.01,0 0,0 -0.01,0.01 0,0 -0.01,0 0,0 -0.01,0.01 0,0 0,0 -0.01,0 0,0 0,0 -0.01,0 0,0 0,0 -0.01,0 0,0.01 0,0 -0.01,0 0,0 -0.01,0 c -0.03,0 -0.04,-0.01 -0.14,-0.12 l -0.7,-0.77 c -0.09,0.14 -0.55,0.89 -1.66,0.89 -2.22,0 -4.46,-2.21 -4.46,-4.52 0,-1.64 1.18,-2.73 2.7,-2.73 0.87,0 1.62,0.4 2.15,0.86 0.93,0.82 1.1,1.72 1.1,1.75 0,0.1 -0.1,0.1 -0.12,0.1 -0.06,0 -0.11,-0.02 -0.13,-0.1 -0.09,-0.29 -0.32,-0.99 -1.01,-1.57 -0.68,-0.56 -1.31,-0.73 -1.83,-0.73 -0.9,0 -1.95,0.52 -1.95,2.07 0,0.57 0.21,2.19 1.2,3.35 0.61,0.71 1.55,1.21 2.43,1.21 1.02,0 1.61,-0.77 1.61,-1.93 0,-0.39 -0.03,-0.4 -0.03,-0.5 0,-0.1 0.11,-0.1 0.15,-0.1 0.13,0 0.13,0.02 0.18,0.2 z"
           id="path5562" /><path
           style="fill:#000000;stroke-width:0"
           inkscape:connector-curvature="0"
           d="m 328.96,710.26 0,0 0,0 0,0 0,0 0,0.01 0,0 0,0 0,0 0.01,0 0,0.01 0,0 0,0 0,0.01 0,0 0,0.01 0,0 0,0.01 0.01,0 0,0.01 0,0.01 0,0 0,0.01 0,0 0,0.01 0,0 0.01,0 0,0.01 0,0 0,0 0,0 0,0 0,0.01 0,0 0,0 0,0 0,0 0,0 0,0 0,0 0,0 c 0,0.04 -0.03,0.1 -0.11,0.1 -0.14,0 -0.72,-0.06 -0.9,-0.07 -0.05,-0.01 -0.15,-0.01 -0.15,-0.16 0,-0.1 0.1,-0.1 0.18,-0.1 0.34,0 0.34,-0.05 0.34,-0.1 0,-0.05 -0.07,-0.33 -0.11,-0.49 l -0.16,-0.64 c -0.07,-0.24 -0.45,-1.77 -0.47,-1.86 -0.03,-0.16 -0.03,-0.26 -0.03,-0.34 0,-0.7 0.45,-1.15 1.03,-1.15 l 0,0.2 c -0.34,0 -0.53,0.29 -0.53,0.71 0,0.25 0.06,0.49 0.25,1.28 0.05,0.13 0.05,0.15 0.18,0.3 0.26,0.31 0.58,0.46 0.83,0.46 0.27,0 0.51,-0.2 0.51,-0.68 0,-0.28 -0.16,-0.99 -0.37,-1.4 -0.16,-0.34 -0.51,-0.67 -0.87,-0.67 l 0,0 0,-0.2 c 0.87,0 1.79,0.95 1.79,1.98 0,0.82 -0.56,1.17 -1.04,1.17 -0.36,0 -0.67,-0.21 -0.88,-0.39 z"
           id="path5564" /><path
           style="fill:#000000;stroke-width:0"
           inkscape:connector-curvature="0"
           d="m 333.63,708.25 -0.02,0 -0.02,-0.01 -0.01,0 -0.02,-0.01 -0.01,0 -0.02,-0.01 -0.01,-0.01 -0.01,-0.01 -0.02,-0.01 -0.01,0 -0.01,-0.01 -0.01,-0.01 -0.02,-0.01 -0.01,-0.01 -0.01,-0.01 -0.01,-0.02 -0.01,-0.01 0,-0.01 -0.01,-0.01 -0.01,-0.01 -0.01,-0.01 0,-0.02 -0.01,-0.01 0,-0.01 -0.01,-0.01 0,-0.02 -0.01,-0.01 0,-0.01 0,-0.02 0,-0.01 0,-0.01 -0.01,-0.02 c 0,-0.16 0.15,-0.22 0.24,-0.22 0.07,0 0.33,0.04 0.33,0.4 0,0.45 -0.5,0.61 -0.93,0.61 -1.08,0 -1.28,-0.81 -1.28,-1.02 0,-0.26 0.15,-0.43 0.24,-0.51 0.18,-0.14 0.31,-0.17 0.79,-0.25 0.15,-0.03 0.59,-0.11 0.59,-0.46 0,-0.12 -0.07,-0.39 -0.36,-0.56 -0.28,-0.15 -0.62,-0.15 -0.7,-0.15 -0.28,0 -0.68,0.06 -0.84,0.29 0.23,0.03 0.38,0.2 0.38,0.4 0,0.17 -0.12,0.25 -0.27,0.25 -0.2,0 -0.4,-0.16 -0.4,-0.46 0,-0.42 0.44,-0.68 1.12,-0.68 1.28,0 1.52,0.88 1.52,1.15 0,0.64 -0.7,0.77 -0.96,0.82 -0.06,0.01 -0.24,0.04 -0.28,0.05 -0.26,0.05 -0.38,0.2 -0.38,0.35 0,0.16 0.12,0.35 0.28,0.45 0.18,0.12 0.43,0.13 0.55,0.13 0.14,0 0.51,-0.02 0.66,-0.26 z"
           id="path5566" /><path
           style="fill:#000000;stroke-width:0"
           inkscape:connector-curvature="0"
           d="m 335.95,707.22 0.02,0 0.02,0 0.02,0 0.03,0 0.03,0 0.02,0 0.03,0 0.03,0 0.04,0.01 0.03,0 0.04,0 0.03,0 0.04,0 0.04,0.01 0.07,0 0.08,0.01 0.08,0.01 0.08,0.01 0.09,0.02 0.08,0.01 0.03,0.01 0.04,0.01 0.04,0.01 0.04,0.01 0.04,0.01 0.03,0.02 c 0.52,0.18 0.62,0.51 0.62,0.72 0,0.38 -0.39,0.62 -0.87,0.62 l 0,-0.2 c 0.31,0 0.57,-0.15 0.57,-0.42 0,-0.68 -1.18,-0.68 -1.48,-0.68 l -0.34,0 c 0.28,1.02 1.06,1.1 1.25,1.1 l 0,0.2 c -0.84,0 -1.96,-0.65 -1.96,-1.84 0,-0.7 0.43,-1.31 1.25,-1.31 1.18,0 1.73,0.69 1.73,0.79 0,0.04 -0.06,0.12 -0.12,0.12 -0.04,0 -0.05,-0.02 -0.11,-0.07 -0.54,-0.64 -1.36,-0.64 -1.49,-0.64 -0.41,0 -0.69,0.27 -0.69,0.84 0,0.1 0,0.24 0.08,0.62 z"
           id="path5568" /><path
           style="fill:#000000;stroke-width:0"
           inkscape:connector-curvature="0"
           d="m 339.88,708.39 0.71,0 c 0.13,0 0.22,0 0.22,0.15 0,0.1 -0.09,0.1 -0.21,0.1 l -0.66,0 0.26,1.03 c 0,0.03 0.02,0.07 0.02,0.1 0,0.12 -0.1,0.22 -0.24,0.22 -0.17,0 -0.28,-0.12 -0.33,-0.3 -0.05,-0.18 0.04,0.16 -0.26,-1.05 l -0.71,0 c -0.14,0 -0.23,0 -0.23,-0.16 0,-0.09 0.09,-0.09 0.21,-0.09 l 0.67,0 -0.42,-1.65 c -0.04,-0.17 -0.1,-0.43 -0.1,-0.52 0,-0.41 0.35,-0.66 0.74,-0.66 0.78,0 1.22,0.98 1.22,1.07 0,0.09 -0.09,0.09 -0.11,0.09 -0.09,0 -0.09,-0.02 -0.15,-0.13 -0.19,-0.44 -0.55,-0.83 -0.93,-0.83 -0.15,0 -0.25,0.09 -0.25,0.34 0,0.07 0.03,0.21 0.04,0.28 z"
           id="path5570" /></g><g
         id="g6321"
         transform="translate(-125.85605,-494.08168)"
         xml:space="preserve"
         stroke="black"
         stroke-linecap="butt"
         stroke-linejoin="miter"
         stroke-miterlimit="10.433"
         stroke-dasharray="none"
         stroke-dashoffset="0"
         stroke-opacity="1"
         fill="none"
         fill-rule="evenodd"
         fill-opacity="1"
         font-style="normal"
         font-variant="normal"
         font-weight="normal"
         font-stretch="normal"
         font-size-adjust="none"
         letter-spacing="normal"
         word-spacing="normal"
         text-anchor="start"
         ns0:text="$f = \\frac{ 1} {\\sqrt{L \\cdot C_{tot}} \\cdot 2\\pi} $ \n"
         ns0:preamble=""
         style="font-style:normal;font-variant:normal;font-weight:normal;font-stretch:normal;letter-spacing:normal;word-spacing:normal;text-anchor:start;fill:none;fill-opacity:1;fill-rule:evenodd;stroke:#000000;stroke-linecap:butt;stroke-linejoin:miter;stroke-miterlimit:10.43299961;stroke-dasharray:none;stroke-dashoffset:0;stroke-opacity:1"><path
           d="M227.09,711.11 H227.95 C228.15,711.11,228.24,711.11,228.24,711.31 C228.24,711.42,228.15,711.42,227.98,711.42 H227.15 L227.36,712.55 C227.4,712.76,227.54,713.47,227.6,713.59 C227.69,713.78,227.86,713.93,228.07,713.93 C228.1,713.93,228.36,713.93,228.55,713.75 C228.12,713.71,228.01,713.36,228.01,713.21 C228.01,712.98,228.2,712.86,228.38,712.86 C228.64,712.86,228.93,713.08,228.93,713.46 C228.93,713.92,228.47,714.15,228.07,714.15 C227.73,714.15,227.1,713.97,226.8,712.98 C226.74,712.77,226.71,712.67,226.47,711.42 H225.78 C225.59,711.42,225.49,711.42,225.49,711.23 C225.49,711.11,225.57,711.11,225.76,711.11 H226.42 L225.67,707.17 C225.49,706.21,225.32,705.3,224.81,705.3 C224.77,705.3,224.52,705.3,224.33,705.48 C224.79,705.51,224.88,705.87,224.88,706.02 C224.88,706.25,224.7,706.36,224.51,706.36 C224.25,706.36,223.96,706.15,223.96,705.77 C223.96,705.32,224.4,705.08,224.81,705.08 C225.35,705.08,225.75,705.67,225.93,706.05 C226.25,706.67,226.48,707.88,226.49,707.95 Z "
           stroke-width="0"
           fill="black"
           id="path6323" /><path
           d="M238.99,710.38 L239.02,710.38 L239.05,710.38 L239.08,710.38 L239.09,710.38 L239.11,710.38 L239.12,710.38 L239.14,710.39 L239.15,710.39 L239.16,710.39 L239.18,710.39 L239.19,710.4 L239.2,710.4 L239.22,710.41 L239.23,710.41 L239.24,710.42 L239.25,710.42 L239.26,710.43 L239.27,710.44 L239.28,710.44 L239.29,710.45 L239.3,710.46 L239.3,710.47 L239.31,710.48 L239.31,710.48 L239.31,710.49 L239.32,710.49 L239.32,710.5 L239.32,710.51 L239.32,710.51 L239.32,710.52 L239.33,710.53 L239.33,710.54 L239.33,710.54 L239.33,710.55 L239.33,710.56 L239.33,710.57 L239.33,710.58 C239.33,710.78,239.14,710.78,239,710.78 H233.03 C232.9,710.78,232.71,710.78,232.71,710.58 C232.71,710.38,232.9,710.38,233.04,710.38 Z "
           stroke-width="0"
           fill="black"
           id="path6325" /><path
           d="M239,708.45 L239.02,708.45 L239.03,708.45 L239.06,708.45 L239.08,708.45 L239.1,708.45 L239.11,708.45 L239.13,708.45 L239.14,708.45 L239.15,708.46 L239.17,708.46 L239.18,708.46 L239.19,708.46 L239.21,708.47 L239.22,708.47 L239.23,708.48 L239.24,708.48 L239.25,708.49 L239.26,708.5 L239.27,708.5 L239.28,708.51 L239.29,708.52 L239.3,708.53 L239.3,708.53 L239.3,708.54 L239.31,708.54 L239.31,708.55 L239.31,708.55 L239.32,708.56 L239.32,708.57 L239.32,708.57 L239.32,708.58 L239.32,708.59 L239.33,708.6 L239.33,708.6 L239.33,708.61 L239.33,708.62 L239.33,708.63 L239.33,708.64 L239.33,708.65 C239.33,708.85,239.14,708.85,238.99,708.85 H233.04 C232.9,708.85,232.71,708.85,232.71,708.65 C232.71,708.45,232.9,708.45,233.03,708.45 Z "
           stroke-width="0"
           fill="black"
           id="path6327" /><path
           d="M264.69,715.48 L264.69,715.49 L264.69,715.5 L264.69,715.51 L264.69,715.51 L264.69,715.52 L264.69,715.53 L264.69,715.54 L264.69,715.54 L264.68,715.55 L264.68,715.56 L264.68,715.56 L264.68,715.57 L264.68,715.57 L264.68,715.58 L264.68,715.59 L264.68,715.59 L264.68,715.6 L264.68,715.6 L264.68,715.61 L264.67,715.62 L264.67,715.63 L264.67,715.63 L264.66,715.64 L264.66,715.64 L264.65,715.65 L264.65,715.65 L264.64,715.66 L264.64,715.66 L264.63,715.66 L264.62,715.67 L264.61,715.67 L264.6,715.67 L264.6,715.67 L264.59,715.67 L264.59,715.67 L264.58,715.67 L264.57,715.67 L264.57,715.67 L264.56,715.67 L264.56,715.67 L264.55,715.68 L264.54,715.68 L264.53,715.68 L264.53,715.68 L264.52,715.68 L264.51,715.68 L264.5,715.68 L264.49,715.68 L264.49,715.68 L264.48,715.68 C264.03,715.24,263.4,715.23,263.11,715.23 V714.98 C263.28,714.98,263.74,714.98,264.12,715.17 V711.62 C264.12,711.39,264.12,711.3,263.42,711.3 H263.16 V711.04 C263.28,711.05,264.14,711.07,264.4,711.07 C264.62,711.07,265.49,711.05,265.65,711.04 V711.3 H265.38 C264.69,711.3,264.69,711.39,264.69,711.62 Z "
           stroke-width="0"
           fill="black"
           id="path6329" /><line
           x1="243.86"
           y1="709.62"
           x2="284.81"
           y2="709.62"
           stroke-width="0.398"
           id="line6331" /><path
           d="M246.95,702.47 L245.59,705.18 C245.55,705.25,245.53,705.29,245.47,705.29 C245.45,705.29,245.43,705.29,245.36,705.23 L244.62,704.74 C244.52,704.68,244.52,704.64,244.52,704.62 C244.52,704.58,244.55,704.52,244.62,704.52 C244.64,704.52,244.66,704.52,244.75,704.59 C244.82,704.64,245.03,704.78,245.11,704.84 L246.64,701.82 C246.69,701.72,246.7,701.71,246.8,701.71 C246.86,701.71,246.94,701.71,247.01,701.84 L250.52,708.36 C250.57,708.46,250.57,708.47,250.57,708.51 C250.57,708.62,250.48,708.68,250.4,708.68 C250.3,708.68,250.26,708.62,250.22,708.53 Z "
           stroke-width="0"
           fill="black"
           id="path6333" /><line
           x1="250.41"
           y1="708.51"
           x2="273.57"
           y2="708.51"
           stroke-width="0.339"
           id="line6335" /><path
           d="M253.28,707.08 L253.28,707.11 L253.29,707.13 L253.29,707.15 L253.3,707.17 L253.3,707.19 L253.31,707.21 L253.32,707.22 L253.33,707.24 L253.33,707.26 L253.34,707.27 L253.35,707.28 L253.36,707.3 L253.38,707.31 L253.39,707.32 L253.4,707.33 L253.42,707.34 L253.44,707.35 L253.46,707.36 L253.48,707.36 L253.51,707.37 L253.52,707.37 L253.53,707.38 L253.55,707.38 L253.56,707.38 L253.58,707.38 L253.59,707.39 L253.61,707.39 L253.63,707.39 L253.64,707.39 L253.66,707.39 L253.68,707.4 L253.7,707.4 L253.72,707.4 L253.74,707.4 L253.77,707.4 L253.79,707.4 L253.81,707.4 L253.84,707.4 L253.86,707.4 L253.89,707.4 L253.91,707.4 L253.94,707.4 L253.97,707.4 L254,707.41 C254.22,707.41,254.29,707.41,254.29,707.56 C254.29,707.57,254.28,707.66,254.17,707.66 C254.01,707.66,253.82,707.64,253.65,707.64 C253.48,707.63,253.27,707.63,253.09,707.63 C252.95,707.63,252.76,707.64,252.61,707.64 C252.47,707.64,252.3,707.66,252.16,707.66 C252.12,707.66,252.01,707.66,252.01,707.5 C252.01,707.41,252.1,707.41,252.24,707.41 C252.24,707.41,252.38,707.41,252.5,707.39 C252.65,707.38,252.66,707.36,252.66,707.29 C252.66,707.28,252.66,707.24,252.63,707.14 L251.71,703.44 C251.64,703.2,251.63,703.14,251.09,703.14 C250.97,703.14,250.88,703.14,250.88,703 C250.88,702.89,250.97,702.89,251.09,702.89 H254.6 C254.77,702.89,254.78,702.9,254.84,703.03 C254.91,703.22,255.43,704.57,255.43,704.63 C255.43,704.65,255.42,704.73,255.31,704.73 C255.23,704.73,255.21,704.69,255.17,704.58 C254.91,703.92,254.6,703.14,253.32,703.14 H252.54 C252.32,703.14,252.31,703.15,252.31,703.21 C252.31,703.22,252.31,703.26,252.34,703.36 Z "
           stroke-width="0"
           fill="black"
           id="path6337" /><path
           d="M257.45,704.64 L257.45,704.66 L257.45,704.68 L257.45,704.7 L257.44,704.73 L257.44,704.75 L257.43,704.77 L257.43,704.79 L257.42,704.81 L257.41,704.82 L257.4,704.84 L257.39,704.86 L257.38,704.87 L257.36,704.89 L257.35,704.9 L257.34,704.92 L257.32,704.93 L257.31,704.94 L257.3,704.96 L257.28,704.97 L257.26,704.98 L257.25,704.99 L257.23,705 L257.21,705 L257.2,705.01 L257.18,705.02 L257.16,705.02 L257.14,705.03 L257.13,705.03 L257.11,705.04 L257.09,705.04 L257.07,705.04 L257.06,705.04 C256.83,705.04,256.65,704.85,256.65,704.64 C256.65,704.39,256.86,704.24,257.05,704.24 C257.28,704.24,257.45,704.43,257.45,704.64 Z "
           stroke-width="0"
           fill="black"
           id="path6339" /><path
           d="M264.12,707.7 L264.12,707.71 L264.12,707.71 L264.12,707.71 L264.12,707.72 L264.12,707.72 L264.12,707.73 L264.12,707.73 L264.11,707.73 L264.11,707.74 L264.11,707.74 L264.11,707.74 L264.11,707.75 L264.11,707.75 L264.1,707.76 L264.1,707.76 L264.1,707.76 L264.1,707.77 L264.09,707.77 L264.09,707.77 L264.09,707.78 L264.08,707.78 L264.08,707.78 L264.08,707.78 L264.07,707.79 L264.07,707.79 L264.06,707.79 L264.06,707.79 L264.05,707.79 L264.05,707.79 L264.05,707.79 L264.04,707.79 L264.04,707.79 L264.04,707.79 L264.03,707.79 L264.03,707.79 L264.03,707.79 C263.98,707.79,263.96,707.78,263.9,707.71 L263.39,707.17 C263.33,707.26,262.94,707.79,262.08,707.79 C260.39,707.79,258.73,706.3,258.73,704.72 C258.73,703.58,259.62,702.75,260.87,702.75 C261.25,702.75,261.92,702.83,262.63,703.44 C263.18,703.9,263.34,704.51,263.34,704.57 C263.34,704.66,263.25,704.66,263.22,704.66 C263.13,704.66,263.11,704.62,263.09,704.54 C262.81,703.59,261.83,703,260.99,703 C260.25,703,259.43,703.4,259.43,704.5 C259.43,704.71,259.47,705.81,260.28,706.69 C260.76,707.22,261.49,707.54,262.15,707.54 C262.96,707.54,263.43,706.96,263.43,706.18 C263.43,705.98,263.42,705.93,263.42,705.89 C263.42,705.8,263.51,705.8,263.54,705.8 C263.65,705.8,263.65,705.82,263.69,705.95 Z "
           stroke-width="0"
           fill="black"
           id="path6341" /><path
           d="M265.52,703.82 H266.11 C266.21,703.82,266.22,703.82,266.24,703.84 C266.27,703.86,266.28,703.93,266.28,703.96 C266.28,704.04,266.21,704.04,266.12,704.04 H265.57 L265.68,704.46 C265.71,704.59,265.77,704.81,265.77,704.84 C265.77,704.92,265.7,705.01,265.58,705.01 C265.5,705.01,265.38,704.96,265.34,704.82 C265.32,704.74,265.38,704.97,265.14,704.04 H264.55 C264.45,704.04,264.37,704.04,264.37,703.9 C264.37,703.82,264.44,703.82,264.53,703.82 H265.09 L264.79,702.65 C264.77,702.54,264.73,702.38,264.73,702.32 C264.73,702.04,264.99,701.84,265.34,701.84 C265.94,701.84,266.31,702.51,266.31,702.61 C266.31,702.68,266.23,702.68,266.21,702.68 C266.13,702.68,266.12,702.66,266.09,702.6 C265.93,702.24,265.62,702.01,265.36,702.01 C265.2,702.01,265.15,702.12,265.15,702.27 C265.15,702.35,265.16,702.37,265.17,702.41 Z "
           stroke-width="0"
           fill="black"
           id="path6343" /><path
           d="M269.91,703.19 L269.91,703.24 L269.9,703.28 L269.9,703.33 L269.89,703.37 L269.88,703.42 L269.87,703.46 L269.85,703.5 L269.83,703.54 L269.82,703.58 L269.79,703.62 L269.77,703.66 L269.75,703.7 L269.72,703.73 L269.69,703.77 L269.66,703.8 L269.62,703.83 L269.59,703.86 L269.55,703.89 L269.51,703.92 L269.47,703.94 L269.43,703.96 L269.39,703.99 L269.34,704.01 L269.29,704.03 L269.25,704.04 L269.2,704.06 L269.14,704.07 L269.09,704.08 L269.04,704.09 L268.98,704.09 L268.92,704.1 L268.86,704.1 C268.03,704.1,267.29,703.42,267.29,702.75 C267.29,702.24,267.7,701.84,268.33,701.84 L268.34,702.01 C268.1,702.01,267.75,702.12,267.75,702.59 C267.75,702.74,267.81,703.23,268.08,703.56 C268.27,703.78,268.57,703.93,268.85,703.93 C269.13,703.93,269.45,703.79,269.45,703.34 C269.45,703.21,269.39,702.74,269.15,702.43 C268.92,702.13,268.59,702.01,268.34,702.01 H268.34 L268.33,701.84 C269.17,701.84,269.91,702.52,269.91,703.19 Z "
           stroke-width="0"
           fill="black"
           id="path6345" /><path
           d="M271.83,703.82 H272.41 C272.52,703.82,272.52,703.82,272.55,703.84 C272.57,703.86,272.59,703.93,272.59,703.96 C272.59,704.04,272.51,704.04,272.43,704.04 H271.88 L271.99,704.46 C272.02,704.59,272.08,704.81,272.08,704.84 C272.08,704.92,272.01,705.01,271.89,705.01 C271.81,705.01,271.69,704.96,271.65,704.82 C271.62,704.74,271.68,704.97,271.45,704.04 H270.86 C270.76,704.04,270.68,704.04,270.68,703.9 C270.68,703.82,270.75,703.82,270.84,703.82 H271.39 L271.1,702.65 C271.07,702.54,271.04,702.38,271.04,702.32 C271.04,702.04,271.3,701.84,271.65,701.84 C272.25,701.84,272.62,702.51,272.62,702.61 C272.62,702.68,272.53,702.68,272.51,702.68 C272.43,702.68,272.42,702.66,272.4,702.6 C272.23,702.24,271.93,702.01,271.67,702.01 C271.51,702.01,271.46,702.12,271.46,702.27 C271.46,702.35,271.46,702.37,271.47,702.41 Z "
           stroke-width="0"
           fill="black"
           id="path6347" /><path
           d="M275.15,704.64 L275.15,704.66 L275.14,704.68 L275.14,704.7 L275.14,704.73 L275.13,704.75 L275.13,704.77 L275.12,704.79 L275.11,704.81 L275.1,704.82 L275.09,704.84 L275.08,704.86 L275.07,704.87 L275.06,704.89 L275.04,704.9 L275.03,704.92 L275.02,704.93 L275,704.94 L274.99,704.96 L274.97,704.97 L274.96,704.98 L274.94,704.99 L274.92,705 L274.91,705 L274.89,705.01 L274.87,705.02 L274.85,705.02 L274.84,705.03 L274.82,705.03 L274.8,705.04 L274.78,705.04 L274.77,705.04 L274.75,705.04 C274.52,705.04,274.34,704.85,274.34,704.64 C274.34,704.39,274.55,704.24,274.74,704.24 C274.97,704.24,275.15,704.43,275.15,704.64 Z "
           stroke-width="0"
           fill="black"
           id="path6349" /><path
           d="M279.45,704.16 H279.22 C279.2,704.01,279.13,703.6,279.04,703.53 C278.98,703.48,278.44,703.48,278.35,703.48 H277.06 C277.79,704.13,278.04,704.33,278.46,704.66 C278.97,705.07,279.45,705.5,279.45,706.16 C279.45,707.01,278.71,707.52,277.82,707.52 C276.96,707.52,276.37,706.92,276.37,706.28 C276.37,705.92,276.67,705.88,276.74,705.88 C276.91,705.88,277.11,706,277.11,706.25 C277.11,706.38,277.06,706.62,276.7,706.62 C276.92,707.12,277.39,707.27,277.72,707.27 C278.42,707.27,278.78,706.73,278.78,706.16 C278.78,705.56,278.35,705.08,278.12,704.82 L276.44,703.16 C276.37,703.1,276.37,703.09,276.37,702.89 H279.24 Z "
           stroke-width="0"
           fill="black"
           id="path6351" /><path
           d="M282.08,705.42 H282.91 C282.8,705.01,282.65,704.37,282.65,703.82 C282.65,703.54,282.68,703.35,282.73,703.2 C282.84,702.85,282.93,702.82,283.04,702.82 C283.2,702.82,283.37,702.97,283.37,703.14 C283.37,703.19,283.35,703.22,283.31,703.29 C283.18,703.55,283.05,703.95,283.05,704.52 C283.05,704.65,283.05,704.93,283.15,705.42 H284.02 C284.15,705.42,284.2,705.42,284.28,705.48 C284.38,705.55,284.4,705.66,284.4,705.7 C284.4,705.9,284.22,705.9,284.1,705.9 H281.47 C281.18,705.9,280.99,705.84,280.67,705.54 C280.49,705.38,280.22,705.01,280.22,704.94 C280.22,704.86,280.31,704.86,280.34,704.86 C280.42,704.86,280.42,704.87,280.46,704.94 C280.82,705.42,281.25,705.42,281.41,705.42 H281.83 C281.62,704.66,281.24,703.83,281.03,703.42 C280.99,703.33,280.92,703.18,280.9,703.15 C280.89,703.12,280.88,703.09,280.88,703.05 C280.88,702.93,280.96,702.82,281.12,702.82 C281.4,702.82,281.48,703.14,281.64,703.76 Z "
           stroke-width="0"
           fill="black"
           id="path6353" /></g></g></g></svg>