<?xml version="1.0" encoding="UTF-8" standalone="no"?>
<!-- Created with Inkscape (http://www.inkscape.org/) -->

<svg
   xmlns:ns0="http://www.iki.fi/pav/software/textext/"
   xmlns:dc="http://purl.org/dc/elements/1.1/"
   xmlns:cc="http://creativecommons.org/ns#"
   xmlns:rdf="http://www.w3.org/1999/02/22-rdf-syntax-ns#"
   xmlns:svg="http://www.w3.org/2000/svg"
   xmlns="http://www.w3.org/2000/svg"
   xmlns:sodipodi="http://sodipodi.sourceforge.net/DTD/sodipodi-0.dtd"
   xmlns:inkscape="http://www.inkscape.org/namespaces/inkscape"
   id="svg2"
   version="1.1"
   inkscape:version="0.91 r13725"
   xml:space="preserve"
   width="743.75"
   height="1052.5"
   viewBox="0 0 743.75 1052.5"
   sodipodi:docname="CommonEmitterFeedbackAmplifier.svg"><sodipodi:namedview
     pagecolor="#ffffff"
     bordercolor="#666666"
     borderopacity="1"
     objecttolerance="10"
     gridtolerance="10"
     guidetolerance="10"
     inkscape:pageopacity="0"
     inkscape:pageshadow="2"
     inkscape:window-width="1366"
     inkscape:window-height="704"
     id="namedview4"
     showgrid="false"
     inkscape:zoom="0.63421265"
     inkscape:cx="463.57101"
     inkscape:cy="365.25065"
     inkscape:window-x="0"
     inkscape:window-y="27"
     inkscape:window-maximized="1"
     inkscape:current-layer="g10" /><metadata
     id="metadata8"><rdf:RDF><cc:Work
         rdf:about=""><dc:format>image/svg+xml</dc:format><dc:type
           rdf:resource="http://purl.org/dc/dcmitype/StillImage" /><dc:title /></cc:Work></rdf:RDF></metadata><defs
     id="defs6" /><g
     id="g10"
     inkscape:groupmode="layer"
     inkscape:label="ink_ext_XXXXXX"
     transform="matrix(1.25,0,0,-1.25,0,1052.5)"><path
       inkscape:connector-curvature="0"
       id="path14"
       style="fill:none;stroke:#000000;stroke-width:0.97500002;stroke-linecap:round;stroke-linejoin:bevel;stroke-miterlimit:6;stroke-dasharray:none;stroke-opacity:1"
       d="m 282,274.5 6,0" /><path
       inkscape:connector-curvature="0"
       id="path16"
       style="fill:none;stroke:#000000;stroke-width:0.97500002;stroke-linecap:round;stroke-linejoin:bevel;stroke-miterlimit:6;stroke-dasharray:none;stroke-opacity:1"
       d="m 288,256.5 0,36" /><path
       inkscape:connector-curvature="0"
       id="path18"
       style="fill:none;stroke:#000000;stroke-width:0.97500002;stroke-linecap:round;stroke-linejoin:bevel;stroke-miterlimit:6;stroke-dasharray:none;stroke-opacity:1"
       d="m 288,282.75 18,9.75" /><path
       inkscape:connector-curvature="0"
       id="path20"
       style="fill:none;stroke:#000000;stroke-width:0.97500002;stroke-linecap:round;stroke-linejoin:bevel;stroke-miterlimit:6;stroke-dasharray:none;stroke-opacity:1"
       d="m 306,298.5 0,-6" /><path
       inkscape:connector-curvature="0"
       id="path22"
       style="fill:none;stroke:#000000;stroke-width:0.97500002;stroke-linecap:round;stroke-linejoin:bevel;stroke-miterlimit:6;stroke-dasharray:none;stroke-opacity:1"
       d="m 288,266.25 18,-9.75" /><path
       inkscape:connector-curvature="0"
       id="path24"
       style="fill:none;stroke:#000000;stroke-width:0.97500002;stroke-linecap:round;stroke-linejoin:bevel;stroke-miterlimit:6;stroke-dasharray:none;stroke-opacity:1"
       d="m 306,250.5 0,6" /><path
       inkscape:connector-curvature="0"
       id="path26"
       style="fill:#000000;fill-opacity:1;fill-rule:evenodd;stroke:none"
       d="m 295.407,259.152 c 4.185,-0.251 5.159,-0.814 10.593,-2.652 -4.309,3.787 -5.283,4.349 -7.593,7.848 -0.476,-2.323 -1.226,-3.623 -3,-5.196" /><path
       inkscape:connector-curvature="0"
       id="path28"
       style="fill:none;stroke:#000000;stroke-width:0.97500002;stroke-linecap:round;stroke-linejoin:bevel;stroke-miterlimit:6;stroke-dasharray:none;stroke-opacity:1"
       d="m 306,360 0,10.5" /><path
       inkscape:connector-curvature="0"
       id="path30"
       style="fill:none;stroke:#000000;stroke-width:0.97500002;stroke-linecap:round;stroke-linejoin:bevel;stroke-miterlimit:6;stroke-dasharray:none;stroke-opacity:1"
       d="m 306,333 0,-10.5" /><path
       inkscape:connector-curvature="0"
       id="path32"
       style="fill:none;stroke:#000000;stroke-width:0.97500002;stroke-linecap:round;stroke-linejoin:bevel;stroke-miterlimit:6;stroke-dasharray:none;stroke-opacity:1"
       d="m 306,360 -5.25,-2.25 10.5,-4.5 -10.5,-4.5 10.5,-4.5 -10.5,-4.5 10.5,-4.5 L 306,333" /><path
       inkscape:connector-curvature="0"
       id="path34"
       style="fill:none;stroke:#000000;stroke-width:0.97500002;stroke-linecap:round;stroke-linejoin:bevel;stroke-miterlimit:6;stroke-dasharray:none;stroke-opacity:1"
       d="m 244.5,322.5 -10.5,0" /><path
       inkscape:connector-curvature="0"
       id="path36"
       style="fill:none;stroke:#000000;stroke-width:0.97500002;stroke-linecap:round;stroke-linejoin:bevel;stroke-miterlimit:6;stroke-dasharray:none;stroke-opacity:1"
       d="m 271.5,322.5 10.5,0" /><path
       inkscape:connector-curvature="0"
       id="path38"
       style="fill:none;stroke:#000000;stroke-width:0.97500002;stroke-linecap:round;stroke-linejoin:bevel;stroke-miterlimit:6;stroke-dasharray:none;stroke-opacity:1"
       d="m 244.5,322.5 2.25,5.25 4.5,-10.5 4.5,10.5 4.5,-10.5 4.5,10.5 4.5,-10.5 2.25,5.25" /><path
       inkscape:connector-curvature="0"
       id="path40"
       style="fill:none;stroke:#000000;stroke-width:0.97500002;stroke-linecap:round;stroke-linejoin:bevel;stroke-miterlimit:6;stroke-dasharray:none;stroke-opacity:1"
       d="m 145.5,274.5 10.5,0" /><path
       inkscape:connector-curvature="0"
       id="path42"
       style="fill:none;stroke:#000000;stroke-width:0.97500002;stroke-linecap:round;stroke-linejoin:bevel;stroke-miterlimit:6;stroke-dasharray:none;stroke-opacity:1"
       d="m 118.5,274.5 -10.5,0" /><path
       inkscape:connector-curvature="0"
       id="path44"
       style="fill:none;stroke:#000000;stroke-width:0.97500002;stroke-linecap:round;stroke-linejoin:bevel;stroke-miterlimit:6;stroke-dasharray:none;stroke-opacity:1"
       d="m 145.5,274.5 -2.25,5.25 -4.5,-10.5 -4.5,10.5 -4.5,-10.5 -4.5,10.5 -4.5,-10.5 -2.25,5.25" /><path
       inkscape:connector-curvature="0"
       id="path46"
       style="fill:none;stroke:#000000;stroke-width:0.97500002;stroke-linecap:round;stroke-linejoin:bevel;stroke-miterlimit:6;stroke-dasharray:none;stroke-opacity:1"
       d="m 396.73093,282 0,10.5" /><path
       inkscape:connector-curvature="0"
       id="path50"
       style="fill:none;stroke:#000000;stroke-width:0.97500002;stroke-linecap:round;stroke-linejoin:bevel;stroke-miterlimit:6;stroke-dasharray:none;stroke-opacity:1"
       d="m 396.28496,281.10805 -5.25,-2.25 10.5,-4.5 -10.5,-4.5 10.5,-4.5 -10.5,-4.5 10.5,-4.5 -5.25,-2.25" /><path
       inkscape:connector-curvature="0"
       id="path52"
       style="fill:none;stroke:#000000;stroke-width:0.97500002;stroke-linecap:round;stroke-linejoin:bevel;stroke-miterlimit:6;stroke-dasharray:none;stroke-opacity:1"
       d="m 344.25,304.5 21.75,0" /><path
       inkscape:connector-curvature="0"
       id="path54"
       style="fill:none;stroke:#000000;stroke-width:0.97500002;stroke-linecap:round;stroke-linejoin:bevel;stroke-miterlimit:6;stroke-dasharray:none;stroke-opacity:1"
       d="m 339.75,304.5 -21.75,0" /><path
       inkscape:connector-curvature="0"
       id="path56"
       style="fill:none;stroke:#000000;stroke-width:0.97500002;stroke-linecap:round;stroke-linejoin:bevel;stroke-miterlimit:6;stroke-dasharray:none;stroke-opacity:1"
       d="m 339.75,316.5 0,-24" /><path
       inkscape:connector-curvature="0"
       id="path58"
       style="fill:none;stroke:#000000;stroke-width:0.97500002;stroke-linecap:round;stroke-linejoin:bevel;stroke-miterlimit:6;stroke-dasharray:none;stroke-opacity:1"
       d="m 346.649,315.787 c -1.581,-3.553 -2.399,-7.398 -2.399,-11.287 0,-3.889 0.818,-7.734 2.399,-11.287" /><path
       inkscape:connector-curvature="0"
       id="path60"
       style="fill:#000000;fill-opacity:1;fill-rule:evenodd;stroke:none"
       d="m 309,390 c -1.875,3.75 -1.875,4.875 -3,10.5 -1.125,-5.625 -1.125,-6.75 -3,-10.5 2.25,0.75 3.75,0.75 6,0" /><path
       inkscape:connector-curvature="0"
       id="path62"
       style="fill:none;stroke:#000000;stroke-width:0.97500002;stroke-linecap:round;stroke-linejoin:bevel;stroke-miterlimit:6;stroke-dasharray:none;stroke-opacity:1"
       d="m 306,220.5 0,12" /><path
       inkscape:connector-curvature="0"
       id="path64"
       style="fill:none;stroke:#000000;stroke-width:0.97500002;stroke-linecap:round;stroke-linejoin:bevel;stroke-miterlimit:6;stroke-dasharray:none;stroke-opacity:1"
       d="m 318,220.5 -24,0" /><path
       inkscape:connector-curvature="0"
       id="path66"
       style="fill:none;stroke:#000000;stroke-width:0.97500002;stroke-linecap:round;stroke-linejoin:bevel;stroke-miterlimit:6;stroke-dasharray:none;stroke-opacity:1"
       d="m 312.75,215.25 -13.5,0" /><path
       inkscape:connector-curvature="0"
       id="path68"
       style="fill:none;stroke:#000000;stroke-width:0.97500002;stroke-linecap:round;stroke-linejoin:bevel;stroke-miterlimit:6;stroke-dasharray:none;stroke-opacity:1"
       d="m 307.5,210 -3,0" /><path
       inkscape:connector-curvature="0"
       id="path70"
       style="fill:none;stroke:#000000;stroke-width:0.97500002;stroke-linecap:round;stroke-linejoin:bevel;stroke-miterlimit:6;stroke-dasharray:none;stroke-opacity:1"
       d="m 396.19803,223.02281 0,12" /><path
       inkscape:connector-curvature="0"
       id="path72"
       style="fill:none;stroke:#000000;stroke-width:0.97500002;stroke-linecap:round;stroke-linejoin:bevel;stroke-miterlimit:6;stroke-dasharray:none;stroke-opacity:1"
       d="m 408.19803,223.02281 -24,0" /><path
       inkscape:connector-curvature="0"
       id="path74"
       style="fill:none;stroke:#000000;stroke-width:0.97500002;stroke-linecap:round;stroke-linejoin:bevel;stroke-miterlimit:6;stroke-dasharray:none;stroke-opacity:1"
       d="m 402.94803,217.77281 -13.5,0" /><path
       inkscape:connector-curvature="0"
       id="path76"
       style="fill:none;stroke:#000000;stroke-width:0.97500002;stroke-linecap:round;stroke-linejoin:bevel;stroke-miterlimit:6;stroke-dasharray:none;stroke-opacity:1"
       d="m 397.69803,212.52281 -3,0" /><path
       inkscape:connector-curvature="0"
       id="path78"
       style="fill:none;stroke:#000000;stroke-width:0.97500002;stroke-linecap:round;stroke-linejoin:bevel;stroke-miterlimit:6;stroke-dasharray:none;stroke-opacity:1"
       d="m 306,232.5 0,6 0,-12 0,24" /><path
       inkscape:connector-curvature="0"
       id="path80"
       style="fill:none;stroke:#000000;stroke-width:0.97500002;stroke-linecap:round;stroke-linejoin:bevel;stroke-miterlimit:6;stroke-dasharray:none;stroke-opacity:1"
       d="m 396.28496,253.17585 0,-18" /><path
       inkscape:connector-curvature="0"
       id="path82"
       style="fill:none;stroke:#000000;stroke-width:0.97500002;stroke-linecap:round;stroke-linejoin:bevel;stroke-miterlimit:6;stroke-dasharray:none;stroke-opacity:1"
       d="m 374.32715,304.5 22.4066,0 0,-12" /><path
       inkscape:connector-curvature="0"
       id="path84"
       style="fill:none;stroke:#000000;stroke-width:0.97500002;stroke-linecap:round;stroke-linejoin:bevel;stroke-miterlimit:6;stroke-dasharray:none;stroke-opacity:1"
       d="m 306,304.5 12,0" /><path
       inkscape:connector-curvature="0"
       id="path86"
       style="fill:none;stroke:#000000;stroke-width:0.97500002;stroke-linecap:round;stroke-linejoin:bevel;stroke-miterlimit:6;stroke-dasharray:none;stroke-opacity:1"
       d="m 306,292.5 0,30" /><path
       inkscape:connector-curvature="0"
       id="path88"
       style="fill:none;stroke:#000000;stroke-width:0.97500002;stroke-linecap:round;stroke-linejoin:bevel;stroke-miterlimit:6;stroke-dasharray:none;stroke-opacity:1"
       d="m 306,394.5 0,-24" /><path
       inkscape:connector-curvature="0"
       id="path90"
       style="fill:none;stroke:#000000;stroke-width:0.97500002;stroke-linecap:round;stroke-linejoin:bevel;stroke-miterlimit:6;stroke-dasharray:none;stroke-opacity:1"
       d="m 306,322.5 -24,0" /><path
       inkscape:connector-curvature="0"
       id="path92"
       style="fill:none;stroke:#000000;stroke-width:0.97500002;stroke-linecap:round;stroke-linejoin:bevel;stroke-miterlimit:6;stroke-dasharray:none;stroke-opacity:1"
       d="m 234,274.5 0,48" /><path
       inkscape:connector-curvature="0"
       id="path94"
       style="fill:none;stroke:#000000;stroke-width:0.97500002;stroke-linecap:round;stroke-linejoin:bevel;stroke-miterlimit:6;stroke-dasharray:none;stroke-opacity:1"
       d="m 282,274.5 -60,0" /><path
       inkscape:connector-curvature="0"
       id="path96"
       style="fill:none;stroke:#000000;stroke-width:0.97500002;stroke-linecap:round;stroke-linejoin:bevel;stroke-miterlimit:6;stroke-dasharray:none;stroke-opacity:1"
       d="m 200.25,274.5 21.75,0" /><path
       inkscape:connector-curvature="0"
       id="path98"
       style="fill:none;stroke:#000000;stroke-width:0.97500002;stroke-linecap:round;stroke-linejoin:bevel;stroke-miterlimit:6;stroke-dasharray:none;stroke-opacity:1"
       d="m 195.75,274.5 -21.75,0" /><path
       inkscape:connector-curvature="0"
       id="path100"
       style="fill:none;stroke:#000000;stroke-width:0.97500002;stroke-linecap:round;stroke-linejoin:bevel;stroke-miterlimit:6;stroke-dasharray:none;stroke-opacity:1"
       d="m 195.75,286.5 0,-24" /><path
       inkscape:connector-curvature="0"
       id="path102"
       style="fill:none;stroke:#000000;stroke-width:0.97500002;stroke-linecap:round;stroke-linejoin:bevel;stroke-miterlimit:6;stroke-dasharray:none;stroke-opacity:1"
       d="m 202.649,285.787 c -1.581,-3.553 -2.399,-7.398 -2.399,-11.287 0,-3.889 0.818,-7.734 2.399,-11.287" /><path
       inkscape:connector-curvature="0"
       id="path104"
       style="fill:#000000;fill-opacity:1;fill-rule:evenodd;stroke:none"
       d="m 308.25,322.5 c 0,1.243 -1.007,2.25 -2.25,2.25 -1.243,0 -2.25,-1.007 -2.25,-2.25 0,-1.243 1.007,-2.25 2.25,-2.25 1.243,0 2.25,1.007 2.25,2.25" /><path
       inkscape:connector-curvature="0"
       id="path106"
       style="fill:#000000;fill-opacity:1;fill-rule:evenodd;stroke:none"
       d="m 308.25,304.5 c 0,1.243 -1.007,2.25 -2.25,2.25 -1.243,0 -2.25,-1.007 -2.25,-2.25 0,-1.243 1.007,-2.25 2.25,-2.25 1.243,0 2.25,1.007 2.25,2.25" /><path
       inkscape:connector-curvature="0"
       id="path108"
       style="fill:#000000;fill-opacity:1;fill-rule:evenodd;stroke:none"
       d="m 236.25,274.5 c 0,1.243 -1.007,2.25 -2.25,2.25 -1.243,0 -2.25,-1.007 -2.25,-2.25 0,-1.243 1.007,-2.25 2.25,-2.25 1.243,0 2.25,1.007 2.25,2.25" /><path
       inkscape:connector-curvature="0"
       id="path110"
       style="fill:none;stroke:#000000;stroke-width:0.97500002;stroke-linecap:round;stroke-linejoin:bevel;stroke-miterlimit:6;stroke-dasharray:none;stroke-opacity:1"
       d="m 120,250.5 c 0,6.627 -5.373,12 -12,12 -6.627,0 -12,-5.373 -12,-12 0,-6.627 5.373,-12 12,-12 6.627,0 12,5.373 12,12" /><path
       inkscape:connector-curvature="0"
       id="path112"
       style="fill:none;stroke:#000000;stroke-width:0.97500002;stroke-linecap:round;stroke-linejoin:bevel;stroke-miterlimit:6;stroke-dasharray:none;stroke-opacity:1"
       d="m 108,274.5 0,-12" /><path
       inkscape:connector-curvature="0"
       id="path114"
       style="fill:none;stroke:#000000;stroke-width:0.97500002;stroke-linecap:round;stroke-linejoin:bevel;stroke-miterlimit:6;stroke-dasharray:none;stroke-opacity:1"
       d="m 108,226.5 0,12" /><g
       id="g116"><text
         id="text118"
         style="font-variant:normal;font-weight:normal;font-size:15px;font-family:Symbol;-inkscape-font-specification:Symbol;writing-mode:lr-tb;fill:#000000;fill-opacity:1;fill-rule:nonzero;stroke:none"
         transform="matrix(1,0,0,-1,104.032,251.728)"><tspan
           id="tspan120"
           y="0"
           x="0">+</tspan><tspan
           id="tspan122"
           y="11.7078"
           x="0.037500001">−</tspan></text>
</g><path
       inkscape:connector-curvature="0"
       id="path124"
       style="fill:none;stroke:#000000;stroke-width:0.97500002;stroke-linecap:round;stroke-linejoin:bevel;stroke-miterlimit:6;stroke-dasharray:none;stroke-opacity:1"
       d="m 108,214.5 0,12" /><path
       inkscape:connector-curvature="0"
       id="path126"
       style="fill:none;stroke:#000000;stroke-width:0.97500002;stroke-linecap:round;stroke-linejoin:bevel;stroke-miterlimit:6;stroke-dasharray:none;stroke-opacity:1"
       d="m 120,214.5 -24,0" /><path
       inkscape:connector-curvature="0"
       id="path128"
       style="fill:none;stroke:#000000;stroke-width:0.97500002;stroke-linecap:round;stroke-linejoin:bevel;stroke-miterlimit:6;stroke-dasharray:none;stroke-opacity:1"
       d="m 114.75,209.25 -13.5,0" /><path
       inkscape:connector-curvature="0"
       id="path130"
       style="fill:none;stroke:#000000;stroke-width:0.97500002;stroke-linecap:round;stroke-linejoin:bevel;stroke-miterlimit:6;stroke-dasharray:none;stroke-opacity:1"
       d="m 109.5,204 -3,0" /><path
       inkscape:connector-curvature="0"
       id="path132"
       style="fill:none;stroke:#000000;stroke-width:0.97500002;stroke-linecap:round;stroke-linejoin:bevel;stroke-miterlimit:6;stroke-dasharray:none;stroke-opacity:1"
       d="m 164.25,274.5 c 0,1.243 -1.007,2.25 -2.25,2.25 -1.243,0 -2.25,-1.007 -2.25,-2.25 0,-1.243 1.007,-2.25 2.25,-2.25 1.243,0 2.25,1.007 2.25,2.25" /><path
       inkscape:connector-curvature="0"
       id="path134"
       style="fill:none;stroke:#000000;stroke-width:0.97500002;stroke-linecap:round;stroke-linejoin:bevel;stroke-miterlimit:6;stroke-dasharray:none;stroke-opacity:1"
       d="m 159.75,274.5 -3.75,0" /><path
       inkscape:connector-curvature="0"
       id="path136"
       style="fill:none;stroke:#000000;stroke-width:0.90119147;stroke-linecap:round;stroke-linejoin:bevel;stroke-miterlimit:6;stroke-dasharray:none;stroke-opacity:1"
       d="m 163.82008,274.5 10.25195,0" /><path
       inkscape:connector-curvature="0"
       id="path138"
       style="fill:none;stroke:#000000;stroke-width:0.97500002;stroke-linecap:round;stroke-linejoin:bevel;stroke-miterlimit:6;stroke-dasharray:none;stroke-opacity:1"
       d="m 162,234.75 c -1.243,0 -2.25,-1.007 -2.25,-2.25 0,-1.243 1.007,-2.25 2.25,-2.25 1.243,0 2.25,1.007 2.25,2.25 0,1.243 -1.007,2.25 -2.25,2.25" /><path
       inkscape:connector-curvature="0"
       id="path140"
       style="fill:none;stroke:#000000;stroke-width:0.97500002;stroke-linecap:round;stroke-linejoin:bevel;stroke-miterlimit:6;stroke-dasharray:none;stroke-opacity:1"
       d="m 162,230.25 0,-3.75" /><path
       inkscape:connector-curvature="0"
       id="path142"
       style="fill:none;stroke:#000000;stroke-width:0.97500002;stroke-linecap:round;stroke-linejoin:bevel;stroke-miterlimit:6;stroke-dasharray:none;stroke-opacity:1"
       d="m 162,214.5 0,12" /><path
       inkscape:connector-curvature="0"
       id="path144"
       style="fill:none;stroke:#000000;stroke-width:0.97500002;stroke-linecap:round;stroke-linejoin:bevel;stroke-miterlimit:6;stroke-dasharray:none;stroke-opacity:1"
       d="m 174,214.5 -24,0" /><path
       inkscape:connector-curvature="0"
       id="path146"
       style="fill:none;stroke:#000000;stroke-width:0.97500002;stroke-linecap:round;stroke-linejoin:bevel;stroke-miterlimit:6;stroke-dasharray:none;stroke-opacity:1"
       d="m 168.75,209.25 -13.5,0" /><path
       inkscape:connector-curvature="0"
       id="path148"
       style="fill:none;stroke:#000000;stroke-width:0.97500002;stroke-linecap:round;stroke-linejoin:bevel;stroke-miterlimit:6;stroke-dasharray:none;stroke-opacity:1"
       d="m 163.5,204 -3,0" /><path
       inkscape:connector-curvature="0"
       id="path158"
       style="fill:none;stroke:#000000;stroke-width:0.97500002;stroke-linecap:round;stroke-linejoin:bevel;stroke-miterlimit:6;stroke-dasharray:none;stroke-opacity:1"
       d="m 150.24048,111.88593 c 0,6.627 -5.3727,12 -12,12 -6.6273,0 -12,-5.373 -12,-12 0,-6.627 5.3727,-11.999996 12,-11.999996 6.6273,0 12,5.372996 12,11.999996" /><path
       inkscape:connector-curvature="0"
       id="path160"
       style="fill:none;stroke:#000000;stroke-width:0.97500002;stroke-linecap:round;stroke-linejoin:bevel;stroke-miterlimit:6;stroke-dasharray:none;stroke-opacity:1"
       d="m 138.24048,135.88593 0,-12" /><path
       inkscape:connector-curvature="0"
       id="path162"
       style="fill:none;stroke:#000000;stroke-width:0.97500002;stroke-linecap:round;stroke-linejoin:bevel;stroke-miterlimit:6;stroke-dasharray:none;stroke-opacity:1"
       d="m 138.24048,87.885934 0,12" /><g
       id="g164"
       transform="translate(54.240482,-12.614066)"><text
         id="text166"
         style="font-variant:normal;font-weight:normal;font-size:15px;font-family:Symbol;-inkscape-font-specification:Symbol;writing-mode:lr-tb;fill:#000000;fill-opacity:1;fill-rule:nonzero;stroke:none"
         transform="matrix(1,0,0,-1,80.0324,125.728)"><tspan
           id="tspan168"
           y="0"
           x="0">+</tspan><tspan
           id="tspan170"
           y="11.7078"
           x="0.037500001">−</tspan></text>
</g><path
       inkscape:connector-curvature="0"
       id="path172"
       style="fill:none;stroke:#000000;stroke-width:0.97500002;stroke-linecap:round;stroke-linejoin:bevel;stroke-miterlimit:6;stroke-dasharray:none;stroke-opacity:1"
       d="m 148.74048,135.88593 -10.5,0" /><path
       inkscape:connector-curvature="0"
       id="path174"
       style="fill:none;stroke:#000000;stroke-width:0.97500002;stroke-linecap:round;stroke-linejoin:bevel;stroke-miterlimit:6;stroke-dasharray:none;stroke-opacity:1"
       d="m 175.74048,135.88593 10.5,0" /><path
       inkscape:connector-curvature="0"
       id="path176"
       style="fill:none;stroke:#000000;stroke-width:0.97500002;stroke-linecap:round;stroke-linejoin:bevel;stroke-miterlimit:6;stroke-dasharray:none;stroke-opacity:1"
       d="m 148.74048,135.88593 2.25,-5.25 4.5,10.5 4.5,-10.5 4.5,10.5 4.5,-10.5 4.5,10.5 2.25,-5.25" /><path
       inkscape:connector-curvature="0"
       id="path178"
       style="fill:none;stroke:#000000;stroke-width:0.97500002;stroke-linecap:round;stroke-linejoin:bevel;stroke-miterlimit:6;stroke-dasharray:none;stroke-opacity:1"
       d="m 250.74048,159.88593 -10.5,0" /><path
       inkscape:connector-curvature="0"
       id="path180"
       style="fill:none;stroke:#000000;stroke-width:0.97500002;stroke-linecap:round;stroke-linejoin:bevel;stroke-miterlimit:6;stroke-dasharray:none;stroke-opacity:1"
       d="m 277.74048,159.88593 10.5,0" /><path
       inkscape:connector-curvature="0"
       id="path182"
       style="fill:none;stroke:#000000;stroke-width:0.97500002;stroke-linecap:round;stroke-linejoin:bevel;stroke-miterlimit:6;stroke-dasharray:none;stroke-opacity:1"
       d="m 250.74048,159.88593 2.25,-5.25 4.5,10.5 4.5,-10.5 4.5,10.5 4.5,-10.5 4.5,10.5 2.25,-5.25" /><path
       inkscape:connector-curvature="0"
       id="path184"
       style="fill:none;stroke:#000000;stroke-width:0.97500002;stroke-linecap:round;stroke-linejoin:bevel;stroke-miterlimit:6;stroke-dasharray:none;stroke-opacity:1"
       d="m 240.24048,119.38593 0,10.5" /><path
       inkscape:connector-curvature="0"
       id="path186"
       style="fill:none;stroke:#000000;stroke-width:0.97500002;stroke-linecap:round;stroke-linejoin:bevel;stroke-miterlimit:6;stroke-dasharray:none;stroke-opacity:1"
       d="m 240.24048,92.385934 0,-10.5" /><path
       inkscape:connector-curvature="0"
       id="path188"
       style="fill:none;stroke:#000000;stroke-width:0.97500002;stroke-linecap:round;stroke-linejoin:bevel;stroke-miterlimit:6;stroke-dasharray:none;stroke-opacity:1"
       d="m 240.24048,119.38593 -5.25,-2.25 10.5,-4.5 -10.5,-4.5 10.5,-4.5 -10.5,-4.499996 10.5,-4.5 -5.25,-2.25" /><path
       inkscape:connector-curvature="0"
       id="path192"
       style="fill:none;stroke:#000000;stroke-width:0.97500002;stroke-linecap:round;stroke-linejoin:bevel;stroke-miterlimit:6;stroke-dasharray:none;stroke-opacity:1"
       d="m 282.24048,129.88593 0,-12" /><path
       inkscape:connector-curvature="0"
       id="path194"
       style="fill:none;stroke:#000000;stroke-width:0.97500002;stroke-linecap:round;stroke-linejoin:bevel;stroke-miterlimit:6;stroke-dasharray:none;stroke-opacity:1"
       d="m 282.24048,81.885934 0,12" /><path
       inkscape:connector-curvature="0"
       id="path196"
       style="fill:none;stroke:#000000;stroke-width:0.73124999;stroke-linecap:round;stroke-linejoin:bevel;stroke-miterlimit:6;stroke-dasharray:none;stroke-opacity:1"
       d="m 282.24048,102.88593 0,10.5" /><path
       inkscape:connector-curvature="0"
       id="path198"
       style="fill:#000000;fill-opacity:1;fill-rule:evenodd;stroke:none"
       d="m 279.84048,106.78593 c 1.5,-3 1.5,-3.9 2.4,-8.399996 0.9,4.499996 0.9,5.399996 2.4,8.399996 -1.8,-0.6 -3,-0.6 -4.8,0" /><path
       inkscape:connector-curvature="0"
       id="path200"
       style="fill:none;stroke:#000000;stroke-width:0.97500002;stroke-linecap:round;stroke-linejoin:bevel;stroke-miterlimit:6;stroke-dasharray:none;stroke-opacity:1"
       d="m 342.24048,119.38593 0,10.5" /><path
       inkscape:connector-curvature="0"
       id="path202"
       style="fill:none;stroke:#000000;stroke-width:0.97500002;stroke-linecap:round;stroke-linejoin:bevel;stroke-miterlimit:6;stroke-dasharray:none;stroke-opacity:1"
       d="m 342.24048,92.385934 0,-10.5" /><path
       inkscape:connector-curvature="0"
       id="path204"
       style="fill:none;stroke:#000000;stroke-width:0.97500002;stroke-linecap:round;stroke-linejoin:bevel;stroke-miterlimit:6;stroke-dasharray:none;stroke-opacity:1"
       d="m 342.24048,119.38593 -5.25,-2.25 10.5,-4.5 -10.5,-4.5 10.5,-4.5 -10.5,-4.499996 10.5,-4.5 -5.25,-2.25" /><path
       inkscape:connector-curvature="0"
       id="path206"
       style="fill:none;stroke:#000000;stroke-width:0.97500002;stroke-linecap:round;stroke-linejoin:bevel;stroke-miterlimit:6;stroke-dasharray:none;stroke-opacity:1"
       d="m 390.24048,119.38593 0,10.5" /><path
       inkscape:connector-curvature="0"
       id="path208"
       style="fill:none;stroke:#000000;stroke-width:0.97500002;stroke-linecap:round;stroke-linejoin:bevel;stroke-miterlimit:6;stroke-dasharray:none;stroke-opacity:1"
       d="m 390.24048,92.385934 0,-10.5" /><path
       inkscape:connector-curvature="0"
       id="path210"
       style="fill:none;stroke:#000000;stroke-width:0.97500002;stroke-linecap:round;stroke-linejoin:bevel;stroke-miterlimit:6;stroke-dasharray:none;stroke-opacity:1"
       d="m 390.24048,119.38593 -5.25,-2.25 10.5,-4.5 -10.5,-4.5 10.5,-4.5 -10.5,-4.499996 10.5,-4.5 -5.25,-2.25" /><path
       inkscape:connector-curvature="0"
       id="path212"
       style="fill:none;stroke:#000000;stroke-width:0.97500002;stroke-linecap:round;stroke-linejoin:bevel;stroke-miterlimit:6;stroke-dasharray:none;stroke-opacity:1"
       d="m 320.49048,135.88593 c 0,1.243 -1.007,2.25 -2.25,2.25 -1.243,0 -2.25,-1.007 -2.25,-2.25 0,-1.243 1.007,-2.25 2.25,-2.25 1.243,0 2.25,1.007 2.25,2.25" /><path
       inkscape:connector-curvature="0"
       id="path214"
       style="fill:none;stroke:#000000;stroke-width:0.97500002;stroke-linecap:round;stroke-linejoin:bevel;stroke-miterlimit:6;stroke-dasharray:none;stroke-opacity:1"
       d="m 315.99048,135.88593 -3.75,0" /><path
       inkscape:connector-curvature="0"
       id="path216"
       style="fill:none;stroke:#000000;stroke-width:0.97500002;stroke-linecap:round;stroke-linejoin:bevel;stroke-miterlimit:6;stroke-dasharray:none;stroke-opacity:1"
       d="m 320.49048,81.885934 c 0,1.2426 -1.007,2.25 -2.25,2.25 -1.243,0 -2.25,-1.0074 -2.25,-2.25 0,-1.2426 1.007,-2.25 2.25,-2.25 1.243,0 2.25,1.0074 2.25,2.25" /><path
       inkscape:connector-curvature="0"
       id="path218"
       style="fill:none;stroke:#000000;stroke-width:0.97500002;stroke-linecap:round;stroke-linejoin:bevel;stroke-miterlimit:6;stroke-dasharray:none;stroke-opacity:1"
       d="m 315.99048,81.885934 -3.75,0" /><path
       inkscape:connector-curvature="0"
       id="path220"
       style="fill:none;stroke:#000000;stroke-width:0.97500002;stroke-linecap:round;stroke-linejoin:bevel;stroke-miterlimit:6;stroke-dasharray:none;stroke-opacity:1"
       d="m 200.49048,135.88593 c 0,1.243 -1.007,2.25 -2.25,2.25 -1.243,0 -2.25,-1.007 -2.25,-2.25 0,-1.243 1.007,-2.25 2.25,-2.25 1.243,0 2.25,1.007 2.25,2.25" /><path
       inkscape:connector-curvature="0"
       id="path222"
       style="fill:none;stroke:#000000;stroke-width:0.97500002;stroke-linecap:round;stroke-linejoin:bevel;stroke-miterlimit:6;stroke-dasharray:none;stroke-opacity:1"
       d="m 195.99048,135.88593 -3.75,0" /><path
       inkscape:connector-curvature="0"
       id="path224"
       style="fill:none;stroke:#000000;stroke-width:0.97500002;stroke-linecap:round;stroke-linejoin:bevel;stroke-miterlimit:6;stroke-dasharray:none;stroke-opacity:1"
       d="m 200.49048,81.885934 c 0,1.2426 -1.007,2.25 -2.25,2.25 -1.243,0 -2.25,-1.0074 -2.25,-2.25 0,-1.2426 1.007,-2.25 2.25,-2.25 1.243,0 2.25,1.0074 2.25,2.25" /><path
       inkscape:connector-curvature="0"
       id="path226"
       style="fill:none;stroke:#000000;stroke-width:0.97500002;stroke-linecap:round;stroke-linejoin:bevel;stroke-miterlimit:6;stroke-dasharray:none;stroke-opacity:1"
       d="m 195.99048,81.885934 -3.75,0" /><path
       inkscape:connector-curvature="0"
       id="path228"
       style="fill:none;stroke:#000000;stroke-width:0.97500002;stroke-linecap:round;stroke-linejoin:bevel;stroke-miterlimit:6;stroke-dasharray:none;stroke-opacity:1"
       d="m 213.99048,135.88593 c 0,-1.243 1.007,-2.25 2.25,-2.25 1.243,0 2.25,1.007 2.25,2.25 0,1.243 -1.007,2.25 -2.25,2.25 -1.243,0 -2.25,-1.007 -2.25,-2.25" /><path
       inkscape:connector-curvature="0"
       id="path230"
       style="fill:none;stroke:#000000;stroke-width:0.97500002;stroke-linecap:round;stroke-linejoin:bevel;stroke-miterlimit:6;stroke-dasharray:none;stroke-opacity:1"
       d="m 218.49048,135.88593 3.75,0" /><path
       inkscape:connector-curvature="0"
       id="path232"
       style="fill:none;stroke:#000000;stroke-width:0.97500002;stroke-linecap:round;stroke-linejoin:bevel;stroke-miterlimit:6;stroke-dasharray:none;stroke-opacity:1"
       d="m 282.24048,69.885934 0,12" /><path
       inkscape:connector-curvature="0"
       id="path234"
       style="fill:none;stroke:#000000;stroke-width:0.97500002;stroke-linecap:round;stroke-linejoin:bevel;stroke-miterlimit:6;stroke-dasharray:none;stroke-opacity:1"
       d="m 294.24048,69.885934 -24,0" /><path
       inkscape:connector-curvature="0"
       id="path236"
       style="fill:none;stroke:#000000;stroke-width:0.97500002;stroke-linecap:round;stroke-linejoin:bevel;stroke-miterlimit:6;stroke-dasharray:none;stroke-opacity:1"
       d="m 288.99048,64.635934 -13.5,0" /><path
       inkscape:connector-curvature="0"
       id="path238"
       style="fill:none;stroke:#000000;stroke-width:0.97500002;stroke-linecap:round;stroke-linejoin:bevel;stroke-miterlimit:6;stroke-dasharray:none;stroke-opacity:1"
       d="m 283.74048,59.385934 -3,0" /><path
       inkscape:connector-curvature="0"
       id="path240"
       style="fill:none;stroke:#000000;stroke-width:0.97500002;stroke-linecap:round;stroke-linejoin:bevel;stroke-miterlimit:6;stroke-dasharray:none;stroke-opacity:1"
       d="m 213.99048,81.885934 c 0,-1.2426 1.007,-2.25 2.25,-2.25 1.243,0 2.25,1.0074 2.25,2.25 0,1.2426 -1.007,2.25 -2.25,2.25 -1.243,0 -2.25,-1.0074 -2.25,-2.25" /><path
       inkscape:connector-curvature="0"
       id="path242"
       style="fill:none;stroke:#000000;stroke-width:0.97500002;stroke-linecap:round;stroke-linejoin:bevel;stroke-miterlimit:6;stroke-dasharray:none;stroke-opacity:1"
       d="m 218.49048,81.885934 3.75,0" /><path
       inkscape:connector-curvature="0"
       id="path244"
       style="fill:none;stroke:#000000;stroke-width:0.97500002;stroke-linecap:round;stroke-linejoin:bevel;stroke-miterlimit:6;stroke-dasharray:none;stroke-opacity:1"
       d="m 374.49048,135.88593 c 0,1.243 -1.007,2.25 -2.25,2.25 -1.243,0 -2.25,-1.007 -2.25,-2.25 0,-1.243 1.007,-2.25 2.25,-2.25 1.243,0 2.25,1.007 2.25,2.25" /><path
       inkscape:connector-curvature="0"
       id="path246"
       style="fill:none;stroke:#000000;stroke-width:0.97500002;stroke-linecap:round;stroke-linejoin:bevel;stroke-miterlimit:6;stroke-dasharray:none;stroke-opacity:1"
       d="m 369.99048,135.88593 -3.75,0" /><path
       inkscape:connector-curvature="0"
       id="path248"
       style="fill:none;stroke:#000000;stroke-width:0.97500002;stroke-linecap:round;stroke-linejoin:bevel;stroke-miterlimit:6;stroke-dasharray:none;stroke-opacity:1"
       d="m 374.49048,81.885934 c 0,1.2426 -1.007,2.25 -2.25,2.25 -1.243,0 -2.25,-1.0074 -2.25,-2.25 0,-1.2426 1.007,-2.25 2.25,-2.25 1.243,0 2.25,1.0074 2.25,2.25" /><path
       inkscape:connector-curvature="0"
       id="path250"
       style="fill:none;stroke:#000000;stroke-width:0.97500002;stroke-linecap:round;stroke-linejoin:bevel;stroke-miterlimit:6;stroke-dasharray:none;stroke-opacity:1"
       d="m 369.99048,81.885934 -3.75,0" /><path
       inkscape:connector-curvature="0"
       id="path252"
       style="fill:none;stroke:#000000;stroke-width:0.91084611;stroke-linecap:round;stroke-linejoin:bevel;stroke-miterlimit:6;stroke-dasharray:none;stroke-opacity:1"
       d="m 374.73052,135.91827 15.5418,0 0,-6.06461" /><path
       inkscape:connector-curvature="0"
       id="path254"
       style="fill:none;stroke:#000000;stroke-width:0.8991887;stroke-linecap:round;stroke-linejoin:bevel;stroke-miterlimit:6;stroke-dasharray:none;stroke-opacity:1"
       d="m 375.00474,81.885934 15.30964,0" /><path
       inkscape:connector-curvature="0"
       id="path256"
       style="fill:none;stroke:#000000;stroke-width:0.94633543;stroke-linecap:round;stroke-linejoin:bevel;stroke-miterlimit:6;stroke-dasharray:none;stroke-opacity:1"
       d="m 366.26913,135.88593 -45.21913,0" /><path
       inkscape:connector-curvature="0"
       id="path258"
       style="fill:none;stroke:#000000;stroke-width:0.97500002;stroke-linecap:round;stroke-linejoin:bevel;stroke-miterlimit:6;stroke-dasharray:none;stroke-opacity:1"
       d="m 342.24048,135.88593 0,-6" /><path
       inkscape:connector-curvature="0"
       id="path260"
       style="fill:none;stroke:#000000;stroke-width:0.94633543;stroke-linecap:round;stroke-linejoin:bevel;stroke-miterlimit:6;stroke-dasharray:none;stroke-opacity:1"
       d="m 321.05,81.885934 45.21913,0" /><path
       inkscape:connector-curvature="0"
       id="path262"
       style="fill:none;stroke:#000000;stroke-width:0.8263095;stroke-linecap:round;stroke-linejoin:bevel;stroke-miterlimit:6;stroke-dasharray:none;stroke-opacity:1"
       d="m 200.61854,135.88593 12.92852,0" /><path
       inkscape:connector-curvature="0"
       id="path264"
       style="fill:none;stroke:#000000;stroke-width:0.97500002;stroke-linecap:round;stroke-linejoin:bevel;stroke-miterlimit:6;stroke-dasharray:none;stroke-opacity:1"
       d="m 240.24048,159.88593 -30,0 0,-24" /><path
       inkscape:connector-curvature="0"
       id="path266"
       style="fill:none;stroke:#000000;stroke-width:0.97500002;stroke-linecap:round;stroke-linejoin:bevel;stroke-miterlimit:6;stroke-dasharray:none;stroke-opacity:1"
       d="m 342.24048,135.88593 0,24 -54,0" /><path
       inkscape:connector-curvature="0"
       id="path268"
       style="fill:none;stroke:#000000;stroke-width:0.97500002;stroke-linecap:round;stroke-linejoin:bevel;stroke-miterlimit:6;stroke-dasharray:none;stroke-opacity:1"
       d="m 282.24048,135.88593 0,-6" /><path
       inkscape:connector-curvature="0"
       id="path270"
       style="fill:none;stroke:#000000;stroke-width:0.97500002;stroke-linecap:round;stroke-linejoin:bevel;stroke-miterlimit:6;stroke-dasharray:none;stroke-opacity:1"
       d="m 240.24048,129.88593 0,6" /><path
       inkscape:connector-curvature="0"
       id="path272"
       style="fill:none;stroke:#000000;stroke-width:0.97500002;stroke-linecap:round;stroke-linejoin:bevel;stroke-miterlimit:6;stroke-dasharray:none;stroke-opacity:1"
       d="m 312.24048,81.885934 -90,0" /><path
       inkscape:connector-curvature="0"
       id="path274"
       style="fill:none;stroke:#000000;stroke-width:0.81674826;stroke-linecap:round;stroke-linejoin:bevel;stroke-miterlimit:6;stroke-dasharray:none;stroke-opacity:1"
       d="m 200.6096,81.885934 12.63106,0" /><path
       inkscape:connector-curvature="0"
       id="path276"
       style="fill:none;stroke:#000000;stroke-width:0.97500002;stroke-linecap:round;stroke-linejoin:bevel;stroke-miterlimit:6;stroke-dasharray:none;stroke-opacity:1"
       d="m 138.24048,87.885934 0,-6 54,0" /><path
       inkscape:connector-curvature="0"
       id="path278"
       style="fill:none;stroke:#000000;stroke-width:0.97500002;stroke-linecap:round;stroke-linejoin:bevel;stroke-miterlimit:6;stroke-dasharray:none;stroke-opacity:1"
       d="m 192.24048,135.88593 -6,0" /><path
       inkscape:connector-curvature="0"
       id="path280"
       style="fill:#000000;fill-opacity:1;fill-rule:evenodd;stroke:none"
       d="m 344.49048,135.88593 c 0,1.243 -1.007,2.25 -2.25,2.25 -1.243,0 -2.25,-1.007 -2.25,-2.25 0,-1.243 1.007,-2.25 2.25,-2.25 1.243,0 2.25,1.007 2.25,2.25" /><path
       inkscape:connector-curvature="0"
       id="path282"
       style="fill:#000000;fill-opacity:1;fill-rule:evenodd;stroke:none"
       d="m 344.49048,81.885934 c 0,1.2426 -1.007,2.25 -2.25,2.25 -1.243,0 -2.25,-1.0074 -2.25,-2.25 0,-1.2426 1.007,-2.25 2.25,-2.25 1.243,0 2.25,1.0074 2.25,2.25" /><path
       inkscape:connector-curvature="0"
       id="path284"
       style="fill:#000000;fill-opacity:1;fill-rule:evenodd;stroke:none"
       d="m 212.49048,135.88593 c 0,1.243 -1.007,2.25 -2.25,2.25 -1.243,0 -2.25,-1.007 -2.25,-2.25 0,-1.243 1.007,-2.25 2.25,-2.25 1.243,0 2.25,1.007 2.25,2.25" /><path
       inkscape:connector-curvature="0"
       id="path286"
       style="fill:#000000;fill-opacity:1;fill-rule:evenodd;stroke:none"
       d="m 242.49048,81.885934 c 0,1.2426 -1.007,2.25 -2.25,2.25 -1.243,0 -2.25,-1.0074 -2.25,-2.25 0,-1.2426 1.007,-2.25 2.25,-2.25 1.243,0 2.25,1.0074 2.25,2.25" /><path
       inkscape:connector-curvature="0"
       id="path288"
       style="fill:#000000;fill-opacity:1;fill-rule:evenodd;stroke:none"
       d="m 284.49048,81.885934 c 0,1.2426 -1.007,2.25 -2.25,2.25 -1.243,0 -2.25,-1.0074 -2.25,-2.25 0,-1.2426 1.007,-2.25 2.25,-2.25 1.243,0 2.25,1.0074 2.25,2.25" /><path
       inkscape:connector-curvature="0"
       id="path290"
       style="fill:none;stroke:#000000;stroke-width:0.97500002;stroke-linecap:round;stroke-linejoin:bevel;stroke-miterlimit:6;stroke-dasharray:none;stroke-opacity:1"
       d="m 282.24048,135.88593 30,0" /><path
       inkscape:connector-curvature="0"
       id="path292"
       style="fill:none;stroke:#000000;stroke-width:0.97500002;stroke-linecap:round;stroke-linejoin:bevel;stroke-miterlimit:6;stroke-dasharray:none;stroke-opacity:1"
       d="m 240.24048,135.88593 -18,0" /><rect
       style="fill:none;fill-opacity:1;stroke:#000000;stroke-width:0.6941033;stroke-miterlimit:4;stroke-dasharray:none;stroke-opacity:1"
       id="rect3760"
       width="16.633869"
       height="16.63402"
       x="113.83978"
       y="-283.50763"
       transform="matrix(0.70040948,-0.71374124,-0.71406544,-0.70007896,0,0)" /><g
       style="font-style:normal;font-variant:normal;font-weight:normal;font-stretch:normal;letter-spacing:normal;word-spacing:normal;text-anchor:start;fill:none;fill-opacity:1;fill-rule:evenodd;stroke:#000000;stroke-linecap:butt;stroke-linejoin:miter;stroke-miterlimit:10.43299961;stroke-dasharray:none;stroke-dashoffset:0;stroke-opacity:1"
       id="content"
       transform="translate(90.775419,-363.03542)"
       xml:space="preserve"
       stroke-miterlimit="10.433"
       font-style="normal"
       font-variant="normal"
       font-weight="normal"
       font-stretch="normal"
       font-size-adjust="none"
       letter-spacing="normal"
       word-spacing="normal"
       ns0:text="$R_C$\n"
       ns0:preamble=""><path
         style="fill:#000000;stroke-width:0"
         inkscape:connector-curvature="0"
         d="m 228.6,710.51 0.1,0.02 0.09,0.03 0.1,0.02 0.1,0.03 0.09,0.04 0.1,0.03 0.09,0.04 0.1,0.04 0.09,0.04 0.1,0.05 0.09,0.05 0.09,0.05 0.09,0.05 0.08,0.06 0.09,0.06 0.08,0.06 0.07,0.06 0.08,0.06 0.07,0.07 0.07,0.07 0.06,0.07 0.06,0.07 0.05,0.08 0.05,0.08 0.05,0.08 0.04,0.08 0.03,0.08 0.03,0.09 0.02,0.09 0.02,0.09 0.01,0.09 0,0.09 c 0,0.86 -0.89,1.5 -2.2,1.5 l -2.84,0 c -0.2,0 -0.29,0 -0.29,-0.2 0,-0.11 0.09,-0.11 0.28,-0.11 0.02,0 0.21,0 0.38,-0.02 0.18,-0.02 0.27,-0.03 0.27,-0.16 0,-0.04 -0.01,-0.07 -0.04,-0.19 l -1.33,-5.35 c -0.1,-0.39 -0.12,-0.47 -0.91,-0.47 -0.18,0 -0.27,0 -0.27,-0.2 0,-0.11 0.12,-0.11 0.14,-0.11 0.28,0 0.98,0.03 1.26,0.03 0.27,0 0.98,-0.03 1.26,-0.03 0.08,0 0.2,0 0.2,0.2 0,0.11 -0.09,0.11 -0.28,0.11 -0.37,0 -0.65,0 -0.65,0.18 0,0.06 0.02,0.11 0.03,0.17 l 0.66,2.64 1.19,0 -0.01,0.22 -1.12,0 0.65,2.6 c 0.06,0.24 0.09,0.34 0.28,0.37 0.09,0.01 0.41,0.01 0.6,0.01 0.71,0 1.82,0 1.82,-0.99 0,-0.34 -0.16,-1.02 -0.55,-1.41 -0.26,-0.26 -0.79,-0.58 -1.68,-0.58 l 0.01,-0.22 c 0.9,0 1.08,-0.56 1.08,-0.91 0,-0.15 -0.08,-0.46 -0.14,-0.68 -0.07,-0.28 -0.16,-0.65 -0.16,-0.85 0,-1.08 1.2,-1.08 1.33,-1.08 0.85,0 1.19,1.01 1.19,1.15 0,0.12 -0.1,0.12 -0.11,0.12 -0.1,0 -0.11,-0.07 -0.13,-0.14 -0.25,-0.74 -0.68,-0.91 -0.91,-0.91 -0.33,0 -0.4,0.22 -0.4,0.61 0,0.31 0.06,0.82 0.1,1.14 0.02,0.14 0.04,0.33 0.04,0.46 0,0.77 -0.67,1.08 -0.94,1.18 z"
         id="path4427" /><path
         style="fill:#000000;stroke-width:0"
         inkscape:connector-curvature="0"
         d="m 236.88,710.44 0,0.01 0,0 0,0 0,0.01 0,0 0,0 0,0.01 -0.01,0 0,0 0,0.01 0,0 0,0.01 0,0 -0.01,0 0,0.01 0,0 0,0 -0.01,0.01 0,0 0,0 -0.01,0.01 0,0 0,0 -0.01,0 0,0.01 -0.01,0 0,0 -0.01,0 0,0 0,0 -0.01,0 0,0 0,0 -0.01,0 0,0 0,0 c -0.05,0 -0.06,-0.01 -0.13,-0.08 l -0.51,-0.54 c -0.06,0.09 -0.45,0.62 -1.31,0.62 -1.69,0 -3.35,-1.5 -3.35,-3.07 0,-1.14 0.89,-1.97 2.14,-1.97 0.38,0 1.05,0.08 1.76,0.68 0.55,0.47 0.71,1.08 0.71,1.13 0,0.09 -0.09,0.09 -0.12,0.09 -0.09,0 -0.1,-0.03 -0.13,-0.11 -0.28,-0.95 -1.26,-1.54 -2.1,-1.54 -0.74,0 -1.56,0.4 -1.56,1.5 0,0.2 0.04,1.3 0.85,2.18 0.48,0.54 1.21,0.86 1.87,0.86 0.81,0 1.29,-0.58 1.29,-1.37 0,-0.19 -0.02,-0.24 -0.02,-0.28 0,-0.09 0.08,-0.09 0.12,-0.09 0.11,0 0.11,0.02 0.15,0.15 z"
         id="path4429" /></g><g
       style="font-style:normal;font-variant:normal;font-weight:normal;font-stretch:normal;letter-spacing:normal;word-spacing:normal;text-anchor:start;fill:none;fill-opacity:1;fill-rule:evenodd;stroke:#000000;stroke-linecap:butt;stroke-linejoin:miter;stroke-miterlimit:10.43299961;stroke-dasharray:none;stroke-dashoffset:0;stroke-opacity:1"
       ns0:preamble=""
       ns0:text="$R_B$\n"
       text-anchor="start"
       word-spacing="normal"
       letter-spacing="normal"
       font-size-adjust="none"
       font-stretch="normal"
       font-weight="normal"
       font-variant="normal"
       font-style="normal"
       fill-opacity="1"
       fill-rule="evenodd"
       fill="none"
       stroke-opacity="1"
       stroke-dashoffset="0"
       stroke-dasharray="none"
       stroke-miterlimit="10.433"
       stroke-linejoin="miter"
       stroke-linecap="butt"
       stroke="black"
       xml:space="preserve"
       transform="translate(29.643173,-373.89115)"
       id="g4756"><path
         id="path4758"
         fill="black"
         stroke-width="0"
         d="M228.6,710.51 L228.7,710.53 L228.79,710.56 L228.89,710.58 L228.99,710.61 L229.08,710.65 L229.18,710.68 L229.27,710.72 L229.37,710.76 L229.46,710.8 L229.56,710.85 L229.65,710.9 L229.74,710.95 L229.83,711 L229.91,711.06 L230,711.12 L230.08,711.18 L230.15,711.24 L230.23,711.3 L230.3,711.37 L230.37,711.44 L230.43,711.51 L230.49,711.58 L230.54,711.66 L230.59,711.74 L230.64,711.82 L230.68,711.9 L230.71,711.98 L230.74,712.07 L230.76,712.16 L230.78,712.25 L230.79,712.34 L230.79,712.43 C230.79,713.29,229.9,713.93,228.59,713.93 H225.75 C225.55,713.93,225.46,713.93,225.46,713.73 C225.46,713.62,225.55,713.62,225.74,713.62 C225.76,713.62,225.95,713.62,226.12,713.6 C226.3,713.58,226.39,713.57,226.39,713.44 C226.39,713.4,226.38,713.37,226.35,713.25 L225.02,707.9 C224.92,707.51,224.9,707.43,224.11,707.43 C223.93,707.43,223.84,707.43,223.84,707.23 C223.84,707.12,223.96,707.12,223.98,707.12 C224.26,707.12,224.96,707.15,225.24,707.15 C225.51,707.15,226.22,707.12,226.5,707.12 C226.58,707.12,226.7,707.12,226.7,707.32 C226.7,707.43,226.61,707.43,226.42,707.43 C226.05,707.43,225.77,707.43,225.77,707.61 C225.77,707.67,225.79,707.72,225.8,707.78 L226.46,710.42 H227.65 L227.64,710.64 H226.52 L227.17,713.24 C227.23,713.48,227.26,713.58,227.45,713.61 C227.54,713.62,227.86,713.62,228.05,713.62 C228.76,713.62,229.87,713.62,229.87,712.63 C229.87,712.29,229.71,711.61,229.32,711.22 C229.06,710.96,228.53,710.64,227.64,710.64 L227.65,710.42 C228.55,710.42,228.73,709.86,228.73,709.51 C228.73,709.36,228.65,709.05,228.59,708.83 C228.52,708.55,228.43,708.18,228.43,707.98 C228.43,706.9,229.63,706.9,229.76,706.9 C230.61,706.9,230.95,707.91,230.95,708.05 C230.95,708.17,230.85,708.17,230.84,708.17 C230.74,708.17,230.73,708.1,230.71,708.03 C230.46,707.29,230.03,707.12,229.8,707.12 C229.47,707.12,229.4,707.34,229.4,707.73 C229.4,708.04,229.46,708.55,229.5,708.87 C229.52,709.01,229.54,709.2,229.54,709.33 C229.54,710.1,228.87,710.41,228.6,710.51 Z " /><path
         id="path4760"
         fill="black"
         stroke-width="0"
         d="M232.32,706.17 L232.32,706.15 L232.31,706.13 L232.31,706.11 L232.3,706.09 L232.3,706.08 L232.29,706.06 L232.28,706.04 L232.28,706.03 L232.27,706.01 L232.26,706 L232.25,705.99 L232.24,705.98 L232.23,705.97 L232.22,705.96 L232.21,705.95 L232.2,705.94 L232.18,705.93 L232.16,705.92 L232.14,705.92 L232.12,705.91 L232.1,705.91 L232.09,705.9 L232.08,705.9 L232.07,705.9 L232.05,705.9 L232.04,705.9 L232.02,705.89 L232.01,705.89 L231.99,705.89 L231.98,705.89 L231.96,705.89 L231.94,705.89 L231.93,705.89 L231.91,705.88 L231.89,705.88 L231.87,705.88 L231.85,705.88 L231.83,705.88 L231.81,705.88 L231.78,705.88 L231.76,705.88 L231.74,705.88 L231.71,705.88 C231.59,705.88,231.5,705.88,231.5,705.73 C231.5,705.63,231.59,705.63,231.71,705.63 H234.41 C235.58,705.63,236.48,706.43,236.48,707.12 C236.48,707.62,236.03,708.04,235.29,708.12 C236.13,708.27,236.84,708.8,236.84,709.4 C236.84,709.93,236.3,710.39,235.39,710.39 L235.28,710.14 C235.99,710.14,236.15,709.67,236.15,709.41 C236.15,708.84,235.52,708.2,234.59,708.2 H233.44 L233.39,708.01 H234.87 C235.53,708.01,235.78,707.58,235.78,707.17 C235.78,706.48,235.07,705.88,234.23,705.88 H233.11 C232.89,705.88,232.88,705.89,232.88,705.95 C232.88,705.96,232.88,705.99,232.91,706.1 L233.39,708.01 L233.44,708.2 L233.87,709.91 C233.92,710.12,233.93,710.14,234.22,710.14 H235.28 L235.39,710.39 H232.85 C232.72,710.39,232.63,710.39,232.63,710.24 C232.63,710.14,232.72,710.14,232.85,710.14 C232.86,710.14,232.99,710.14,233.12,710.13 C233.27,710.11,233.28,710.1,233.28,710.03 C233.28,710.02,233.28,709.98,233.25,709.88 Z " /></g><g
       id="g5072"
       transform="translate(-31.009368,-415.36679)"
       xml:space="preserve"
       stroke="black"
       stroke-linecap="butt"
       stroke-linejoin="miter"
       stroke-miterlimit="10.433"
       stroke-dasharray="none"
       stroke-dashoffset="0"
       stroke-opacity="1"
       fill="none"
       fill-rule="evenodd"
       fill-opacity="1"
       font-style="normal"
       font-variant="normal"
       font-weight="normal"
       font-stretch="normal"
       font-size-adjust="none"
       letter-spacing="normal"
       word-spacing="normal"
       text-anchor="start"
       ns0:text="$C_1$\n"
       ns0:preamble=""
       style="font-style:normal;font-variant:normal;font-weight:normal;font-stretch:normal;letter-spacing:normal;word-spacing:normal;text-anchor:start;fill:none;fill-opacity:1;fill-rule:evenodd;stroke:#000000;stroke-linecap:butt;stroke-linejoin:miter;stroke-miterlimit:10.43299961;stroke-dasharray:none;stroke-dashoffset:0;stroke-opacity:1"><path
         d="M231,714.05 L231,714.05 L231,714.05 L231,714.06 L231,714.06 L231,714.06 L231,714.07 L231,714.07 L231,714.07 L231,714.08 L231,714.08 L230.99,714.09 L230.99,714.09 L230.99,714.1 L230.99,714.1 L230.99,714.1 L230.98,714.11 L230.98,714.11 L230.98,714.12 L230.97,714.12 L230.97,714.12 L230.96,714.13 L230.96,714.13 L230.95,714.13 L230.95,714.13 L230.94,714.14 L230.94,714.14 L230.94,714.14 L230.93,714.14 L230.93,714.14 L230.93,714.14 L230.92,714.14 L230.92,714.14 L230.92,714.14 L230.91,714.14 L230.91,714.15 L230.91,714.15 L230.9,714.15 L230.9,714.15 L230.89,714.15 C230.87,714.15,230.85,714.14,230.74,714.03 L230.05,713.26 C229.96,713.4,229.5,714.15,228.39,714.15 C226.17,714.15,223.93,711.94,223.93,709.63 C223.93,707.99,225.11,706.9,226.63,706.9 C227.5,706.9,228.25,707.3,228.78,707.76 C229.71,708.58,229.88,709.48,229.88,709.51 C229.88,709.61,229.78,709.61,229.76,709.61 C229.7,709.61,229.65,709.59,229.63,709.51 C229.54,709.22,229.31,708.52,228.62,707.94 C227.94,707.38,227.31,707.21,226.79,707.21 C225.89,707.21,224.84,707.73,224.84,709.28 C224.84,709.85,225.05,711.47,226.04,712.63 C226.65,713.34,227.59,713.84,228.47,713.84 C229.49,713.84,230.08,713.07,230.08,711.91 C230.08,711.52,230.05,711.51,230.05,711.41 C230.05,711.31,230.16,711.31,230.2,711.31 C230.33,711.31,230.33,711.33,230.38,711.51 Z "
         stroke-width="0"
         fill="black"
         id="path5074" /><path
         d="M232.89,710.07 L232.89,710.07 L232.89,710.08 L232.89,710.09 L232.89,710.1 L232.89,710.11 L232.89,710.11 L232.89,710.12 L232.89,710.13 L232.88,710.13 L232.88,710.14 L232.88,710.15 L232.88,710.15 L232.88,710.16 L232.88,710.16 L232.88,710.17 L232.88,710.18 L232.88,710.18 L232.88,710.19 L232.88,710.19 L232.87,710.2 L232.87,710.21 L232.87,710.22 L232.86,710.22 L232.86,710.23 L232.85,710.23 L232.85,710.24 L232.84,710.24 L232.84,710.25 L232.83,710.25 L232.82,710.25 L232.81,710.25 L232.8,710.26 L232.8,710.26 L232.79,710.26 L232.79,710.26 L232.78,710.26 L232.77,710.26 L232.77,710.26 L232.76,710.26 L232.76,710.26 L232.75,710.26 L232.74,710.26 L232.73,710.26 L232.73,710.26 L232.72,710.26 L232.71,710.26 L232.7,710.26 L232.69,710.26 L232.69,710.26 L232.68,710.26 C232.23,709.82,231.6,709.81,231.31,709.81 V709.56 C231.48,709.56,231.94,709.56,232.32,709.76 V706.2 C232.32,705.97,232.32,705.88,231.62,705.88 H231.36 V705.63 C231.48,705.64,232.34,705.66,232.6,705.66 C232.82,705.66,233.7,705.64,233.85,705.63 V705.88 H233.58 C232.89,705.88,232.89,705.97,232.89,706.2 Z "
         stroke-width="0"
         fill="black"
         id="path5076" /></g><g
       style="font-style:normal;font-variant:normal;font-weight:normal;font-stretch:normal;letter-spacing:normal;word-spacing:normal;text-anchor:start;fill:none;fill-opacity:1;fill-rule:evenodd;stroke:#000000;stroke-linecap:butt;stroke-linejoin:miter;stroke-miterlimit:10.43299961;stroke-dasharray:none;stroke-dashoffset:0;stroke-opacity:1"
       ns0:preamble=""
       ns0:text="$V_{CC}$\n"
       text-anchor="start"
       word-spacing="normal"
       letter-spacing="normal"
       font-size-adjust="none"
       font-stretch="normal"
       font-weight="normal"
       font-variant="normal"
       font-style="normal"
       fill-opacity="1"
       fill-rule="evenodd"
       fill="none"
       stroke-opacity="1"
       stroke-dashoffset="0"
       stroke-dasharray="none"
       stroke-miterlimit="10.433"
       stroke-linejoin="miter"
       stroke-linecap="butt"
       stroke="black"
       xml:space="preserve"
       transform="translate(86.727918,-308.77886)"
       id="g5394"><path
         id="path5396"
         fill="black"
         stroke-width="0"
         d="M229.69,712.79 L229.73,712.86 L229.78,712.93 L229.82,712.99 L229.87,713.05 L229.91,713.1 L229.96,713.15 L230,713.2 L230.04,713.25 L230.08,713.29 L230.13,713.32 L230.17,713.36 L230.21,713.39 L230.25,713.42 L230.29,713.44 L230.33,713.47 L230.37,713.49 L230.41,713.51 L230.45,713.52 L230.49,713.54 L230.53,713.55 L230.57,713.56 L230.6,713.57 L230.64,713.58 L230.68,713.59 L230.71,713.6 L230.75,713.6 L230.82,713.61 L230.89,713.61 L230.96,713.62 C231.08,713.63,231.09,713.8,231.09,713.81 C231.09,713.89,231.04,713.93,230.96,713.93 C230.71,713.93,230.42,713.9,230.15,713.9 C229.82,713.9,229.48,713.93,229.16,713.93 C229.1,713.93,228.97,713.93,228.97,713.74 C228.97,713.63,229.06,713.62,229.13,713.62 C229.4,713.6,229.59,713.5,229.59,713.29 C229.59,713.14,229.44,712.92,229.44,712.91 L226.38,708.05 L225.7,713.32 C225.7,713.49,225.93,713.62,226.39,713.62 C226.53,713.62,226.64,713.62,226.64,713.82 C226.64,713.91,226.56,713.93,226.5,713.93 C226.1,713.93,225.67,713.9,225.27,713.9 C225.09,713.9,224.9,713.91,224.72,713.91 C224.54,713.91,224.35,713.93,224.18,713.93 C224.11,713.93,223.99,713.93,223.99,713.74 C223.99,713.62,224.08,713.62,224.24,713.62 C224.8,713.62,224.81,713.53,224.84,713.28 L225.62,707.13 C225.65,706.93,225.69,706.9,225.82,706.9 C225.98,706.9,226.02,706.95,226.1,707.08 Z " /><path
         id="path5398"
         fill="black"
         stroke-width="0"
         d="M235.12,710.44 L235.12,710.45 L235.12,710.45 L235.12,710.45 L235.12,710.46 L235.12,710.46 L235.12,710.46 L235.12,710.47 L235.12,710.47 L235.12,710.47 L235.12,710.48 L235.12,710.48 L235.11,710.49 L235.11,710.49 L235.11,710.49 L235.11,710.5 L235.1,710.5 L235.1,710.5 L235.1,710.51 L235.1,710.51 L235.09,710.51 L235.09,710.52 L235.09,710.52 L235.08,710.52 L235.08,710.52 L235.07,710.53 L235.07,710.53 L235.06,710.53 L235.06,710.53 L235.05,710.53 L235.05,710.53 L235.05,710.53 L235.05,710.53 L235.04,710.53 L235.04,710.53 L235.04,710.53 L235.03,710.53 C234.98,710.53,234.97,710.52,234.91,710.45 L234.4,709.91 C234.34,710,233.95,710.53,233.09,710.53 C231.39,710.53,229.73,709.03,229.73,707.46 C229.73,706.32,230.63,705.49,231.87,705.49 C232.25,705.49,232.92,705.57,233.64,706.17 C234.19,706.64,234.34,707.25,234.34,707.3 C234.34,707.39,234.26,707.39,234.22,707.39 C234.13,707.39,234.12,707.36,234.1,707.28 C233.81,706.33,232.84,705.74,231.99,705.74 C231.25,705.74,230.43,706.14,230.43,707.24 C230.43,707.44,230.48,708.54,231.28,709.42 C231.76,709.96,232.49,710.28,233.16,710.28 C233.97,710.28,234.44,709.7,234.44,708.91 C234.44,708.72,234.42,708.67,234.42,708.63 C234.42,708.54,234.51,708.54,234.54,708.54 C234.66,708.54,234.66,708.56,234.69,708.69 Z " /><path
         id="path5400"
         fill="black"
         stroke-width="0"
         d="M241.33,710.44 L241.33,710.45 L241.33,710.45 L241.33,710.45 L241.33,710.46 L241.32,710.46 L241.32,710.46 L241.32,710.47 L241.32,710.47 L241.32,710.47 L241.32,710.48 L241.32,710.48 L241.32,710.49 L241.31,710.49 L241.31,710.49 L241.31,710.5 L241.31,710.5 L241.3,710.5 L241.3,710.51 L241.3,710.51 L241.3,710.51 L241.29,710.52 L241.29,710.52 L241.28,710.52 L241.28,710.52 L241.28,710.53 L241.27,710.53 L241.27,710.53 L241.26,710.53 L241.26,710.53 L241.25,710.53 L241.25,710.53 L241.25,710.53 L241.25,710.53 L241.24,710.53 L241.24,710.53 L241.24,710.53 C241.19,710.53,241.17,710.52,241.11,710.45 L240.6,709.91 C240.54,710,240.15,710.53,239.29,710.53 C237.6,710.53,235.94,709.03,235.94,707.46 C235.94,706.32,236.83,705.49,238.08,705.49 C238.45,705.49,239.12,705.57,239.84,706.17 C240.39,706.64,240.54,707.25,240.54,707.3 C240.54,707.39,240.46,707.39,240.43,707.39 C240.34,707.39,240.32,707.36,240.3,707.28 C240.01,706.33,239.04,705.74,238.2,705.74 C237.46,705.74,236.63,706.14,236.63,707.24 C236.63,707.44,236.68,708.54,237.48,709.42 C237.96,709.96,238.7,710.28,239.36,710.28 C240.17,710.28,240.64,709.7,240.64,708.91 C240.64,708.72,240.62,708.67,240.62,708.63 C240.62,708.54,240.71,708.54,240.75,708.54 C240.86,708.54,240.86,708.56,240.89,708.69 Z " /></g><g
       id="g5737"
       transform="translate(113.61847,-386.11246)"
       xml:space="preserve"
       stroke="black"
       stroke-linecap="butt"
       stroke-linejoin="miter"
       stroke-miterlimit="10.433"
       stroke-dasharray="none"
       stroke-dashoffset="0"
       stroke-opacity="1"
       fill="none"
       fill-rule="evenodd"
       fill-opacity="1"
       font-style="normal"
       font-variant="normal"
       font-weight="normal"
       font-stretch="normal"
       font-size-adjust="none"
       letter-spacing="normal"
       word-spacing="normal"
       text-anchor="start"
       ns0:text="$C_2$\n"
       ns0:preamble=""
       style="font-style:normal;font-variant:normal;font-weight:normal;font-stretch:normal;letter-spacing:normal;word-spacing:normal;text-anchor:start;fill:none;fill-opacity:1;fill-rule:evenodd;stroke:#000000;stroke-linecap:butt;stroke-linejoin:miter;stroke-miterlimit:10.43299961;stroke-dasharray:none;stroke-dashoffset:0;stroke-opacity:1"><path
         d="M231,714.05 L231,714.05 L231,714.05 L231,714.06 L231,714.06 L231,714.06 L231,714.07 L231,714.07 L231,714.07 L231,714.08 L231,714.08 L230.99,714.09 L230.99,714.09 L230.99,714.1 L230.99,714.1 L230.99,714.1 L230.98,714.11 L230.98,714.11 L230.98,714.12 L230.97,714.12 L230.97,714.12 L230.96,714.13 L230.96,714.13 L230.95,714.13 L230.95,714.13 L230.94,714.14 L230.94,714.14 L230.94,714.14 L230.93,714.14 L230.93,714.14 L230.93,714.14 L230.92,714.14 L230.92,714.14 L230.92,714.14 L230.91,714.14 L230.91,714.15 L230.91,714.15 L230.9,714.15 L230.9,714.15 L230.89,714.15 C230.87,714.15,230.85,714.14,230.74,714.03 L230.05,713.26 C229.96,713.4,229.5,714.15,228.39,714.15 C226.17,714.15,223.93,711.94,223.93,709.63 C223.93,707.99,225.11,706.9,226.63,706.9 C227.5,706.9,228.25,707.3,228.78,707.76 C229.71,708.58,229.88,709.48,229.88,709.51 C229.88,709.61,229.78,709.61,229.76,709.61 C229.7,709.61,229.65,709.59,229.63,709.51 C229.54,709.22,229.31,708.52,228.62,707.94 C227.94,707.38,227.31,707.21,226.79,707.21 C225.89,707.21,224.84,707.73,224.84,709.28 C224.84,709.85,225.05,711.47,226.04,712.63 C226.65,713.34,227.59,713.84,228.47,713.84 C229.49,713.84,230.08,713.07,230.08,711.91 C230.08,711.52,230.05,711.51,230.05,711.41 C230.05,711.31,230.16,711.31,230.2,711.31 C230.33,711.31,230.33,711.33,230.38,711.51 Z "
         stroke-width="0"
         fill="black"
         id="path5739" /><path
         d="M234.07,706.9 H233.84 C233.81,706.75,233.74,706.33,233.65,706.27 C233.6,706.22,233.06,706.22,232.96,706.22 H231.68 C232.41,706.87,232.66,707.07,233.07,707.39 C233.59,707.81,234.07,708.24,234.07,708.9 C234.07,709.74,233.33,710.26,232.44,710.26 C231.57,710.26,230.99,709.65,230.99,709.01 C230.99,708.66,231.29,708.62,231.36,708.62 C231.53,708.62,231.73,708.74,231.73,708.99 C231.73,709.12,231.68,709.36,231.32,709.36 C231.53,709.86,232.01,710.01,232.34,710.01 C233.03,710.01,233.4,709.47,233.4,708.9 C233.4,708.29,232.96,707.81,232.74,707.56 L231.06,705.9 C230.99,705.84,230.99,705.83,230.99,705.63 H233.86 Z "
         stroke-width="0"
         fill="black"
         id="path5741" /></g><g
       style="font-style:normal;font-variant:normal;font-weight:normal;font-stretch:normal;letter-spacing:normal;word-spacing:normal;text-anchor:start;fill:none;fill-opacity:1;fill-rule:evenodd;stroke:#000000;stroke-linecap:butt;stroke-linejoin:miter;stroke-miterlimit:10.43299961;stroke-dasharray:none;stroke-dashoffset:0;stroke-opacity:1"
       ns0:preamble=""
       ns0:text="$R_S$\n"
       text-anchor="start"
       word-spacing="normal"
       letter-spacing="normal"
       font-size-adjust="none"
       font-stretch="normal"
       font-weight="normal"
       font-variant="normal"
       font-style="normal"
       fill-opacity="1"
       fill-rule="evenodd"
       fill="none"
       stroke-opacity="1"
       stroke-dashoffset="0"
       stroke-dasharray="none"
       stroke-miterlimit="10.433"
       stroke-linejoin="miter"
       stroke-linecap="butt"
       stroke="black"
       xml:space="preserve"
       transform="translate(-95.989579,-423.12835)"
       id="g6073"><path
         id="path6075"
         fill="black"
         stroke-width="0"
         d="M228.6,710.51 L228.7,710.53 L228.79,710.56 L228.89,710.58 L228.99,710.61 L229.08,710.65 L229.18,710.68 L229.27,710.72 L229.37,710.76 L229.46,710.8 L229.56,710.85 L229.65,710.9 L229.74,710.95 L229.83,711 L229.91,711.06 L230,711.12 L230.08,711.18 L230.15,711.24 L230.23,711.3 L230.3,711.37 L230.37,711.44 L230.43,711.51 L230.49,711.58 L230.54,711.66 L230.59,711.74 L230.64,711.82 L230.68,711.9 L230.71,711.98 L230.74,712.07 L230.76,712.16 L230.78,712.25 L230.79,712.34 L230.79,712.43 C230.79,713.29,229.9,713.93,228.59,713.93 H225.75 C225.55,713.93,225.46,713.93,225.46,713.73 C225.46,713.62,225.55,713.62,225.74,713.62 C225.76,713.62,225.95,713.62,226.12,713.6 C226.3,713.58,226.39,713.57,226.39,713.44 C226.39,713.4,226.38,713.37,226.35,713.25 L225.02,707.9 C224.92,707.51,224.9,707.43,224.11,707.43 C223.93,707.43,223.84,707.43,223.84,707.23 C223.84,707.12,223.96,707.12,223.98,707.12 C224.26,707.12,224.96,707.15,225.24,707.15 C225.51,707.15,226.22,707.12,226.5,707.12 C226.58,707.12,226.7,707.12,226.7,707.32 C226.7,707.43,226.61,707.43,226.42,707.43 C226.05,707.43,225.77,707.43,225.77,707.61 C225.77,707.67,225.79,707.72,225.8,707.78 L226.46,710.42 H227.65 L227.64,710.64 H226.52 L227.17,713.24 C227.23,713.48,227.26,713.58,227.45,713.61 C227.54,713.62,227.86,713.62,228.05,713.62 C228.76,713.62,229.87,713.62,229.87,712.63 C229.87,712.29,229.71,711.61,229.32,711.22 C229.06,710.96,228.53,710.64,227.64,710.64 L227.65,710.42 C228.55,710.42,228.73,709.86,228.73,709.51 C228.73,709.36,228.65,709.05,228.59,708.83 C228.52,708.55,228.43,708.18,228.43,707.98 C228.43,706.9,229.63,706.9,229.76,706.9 C230.61,706.9,230.95,707.91,230.95,708.05 C230.95,708.17,230.85,708.17,230.84,708.17 C230.74,708.17,230.73,708.1,230.71,708.03 C230.46,707.29,230.03,707.12,229.8,707.12 C229.47,707.12,229.4,707.34,229.4,707.73 C229.4,708.04,229.46,708.55,229.5,708.87 C229.52,709.01,229.54,709.2,229.54,709.33 C229.54,710.1,228.87,710.41,228.6,710.51 Z " /><path
         id="path6077"
         fill="black"
         stroke-width="0"
         d="M235.95,710.44 L235.95,710.45 L235.95,710.45 L235.95,710.45 L235.95,710.46 L235.95,710.46 L235.95,710.46 L235.95,710.47 L235.95,710.47 L235.95,710.47 L235.94,710.48 L235.94,710.48 L235.94,710.49 L235.94,710.49 L235.94,710.49 L235.93,710.5 L235.93,710.5 L235.93,710.5 L235.93,710.51 L235.92,710.51 L235.92,710.51 L235.92,710.52 L235.91,710.52 L235.91,710.52 L235.9,710.52 L235.9,710.53 L235.89,710.53 L235.89,710.53 L235.88,710.53 L235.88,710.53 L235.88,710.53 L235.88,710.53 L235.87,710.53 L235.87,710.53 L235.87,710.53 L235.86,710.53 L235.86,710.53 C235.82,710.53,235.81,710.53,235.72,710.43 L235.38,710.04 C235.12,710.41,234.68,710.53,234.25,710.53 C233.27,710.53,232.4,709.74,232.4,708.94 C232.4,708.83,232.42,708.55,232.62,708.29 C232.86,708.02,233.12,707.95,233.59,707.84 C233.73,707.81,234.08,707.73,234.19,707.7 C234.41,707.65,234.84,707.49,234.84,706.97 C234.84,706.4,234.24,705.74,233.45,705.74 C232.83,705.74,232.1,705.96,232.1,706.73 C232.1,706.8,232.11,706.96,232.14,707.08 C232.14,707.11,232.14,707.11,232.14,707.12 C232.14,707.21,232.06,707.21,232.03,707.21 C231.93,707.21,231.93,707.2,231.9,707.07 L231.54,705.68 C231.54,705.65,231.52,705.61,231.52,705.57 C231.52,705.53,231.55,705.49,231.62,705.49 C231.66,705.49,231.67,705.5,231.76,705.59 C231.84,705.67,232.02,705.9,232.1,705.98 C232.46,705.57,233.01,705.49,233.43,705.49 C234.48,705.49,235.33,706.4,235.33,707.22 C235.33,707.53,235.21,707.81,235.05,707.97 C234.81,708.22,234.7,708.24,233.8,708.45 C233.66,708.49,233.43,708.54,233.36,708.57 C233.19,708.63,232.9,708.8,232.9,709.2 C232.9,709.75,233.52,710.31,234.24,710.31 C235,710.31,235.36,709.88,235.36,709.22 C235.36,709.13,235.33,708.97,235.33,708.91 C235.33,708.81,235.41,708.81,235.45,708.81 C235.55,708.81,235.56,708.84,235.59,708.96 Z " /></g><g
       id="g6415"
       transform="translate(-63.879409,-457.91437)"
       xml:space="preserve"
       stroke="black"
       stroke-linecap="butt"
       stroke-linejoin="miter"
       stroke-miterlimit="10.433"
       stroke-dasharray="none"
       stroke-dashoffset="0"
       stroke-opacity="1"
       fill="none"
       fill-rule="evenodd"
       fill-opacity="1"
       font-style="normal"
       font-variant="normal"
       font-weight="normal"
       font-stretch="normal"
       font-size-adjust="none"
       letter-spacing="normal"
       word-spacing="normal"
       text-anchor="start"
       ns0:text="$v_{in}$\n"
       ns0:preamble=""
       style="font-style:normal;font-variant:normal;font-weight:normal;font-stretch:normal;letter-spacing:normal;word-spacing:normal;text-anchor:start;fill:none;fill-opacity:1;fill-rule:evenodd;stroke:#000000;stroke-linecap:butt;stroke-linejoin:miter;stroke-miterlimit:10.43299961;stroke-dasharray:none;stroke-dashoffset:0;stroke-opacity:1"><path
         d="M228.1,710.83 L228.09,710.85 L228.09,710.88 L228.09,710.9 L228.09,710.93 L228.09,710.95 L228.09,710.97 L228.09,710.99 L228.08,711.01 L228.08,711.05 L228.07,711.09 L228.06,711.13 L228.05,711.16 L228.04,711.2 L228.03,711.23 L228.02,711.26 L228,711.29 L227.99,711.31 L227.97,711.34 L227.96,711.36 L227.94,711.38 L227.93,711.4 L227.91,711.42 L227.89,711.43 L227.87,711.45 L227.86,711.46 L227.84,711.47 L227.82,711.48 L227.8,711.49 L227.78,711.5 L227.76,711.51 L227.75,711.51 L227.73,711.52 L227.71,711.52 L227.69,711.52 L227.67,711.53 L227.66,711.53 C227.41,711.53,227.17,711.27,227.17,711.05 C227.17,710.92,227.22,710.86,227.33,710.75 C227.54,710.55,227.67,710.29,227.67,709.93 C227.67,709.51,227.06,707.23,225.89,707.23 C225.38,707.23,225.16,707.58,225.16,708.1 C225.16,708.66,225.43,709.38,225.73,710.21 C225.8,710.38,225.85,710.52,225.85,710.71 C225.85,711.16,225.54,711.53,225.04,711.53 C224.1,711.53,223.72,710.08,223.72,709.99 C223.72,709.89,223.82,709.89,223.84,709.89 C223.94,709.89,223.95,709.91,224,710.07 C224.29,711.08,224.72,711.31,225.01,711.31 C225.09,711.31,225.26,711.31,225.26,710.99 C225.26,710.74,225.16,710.47,225.09,710.29 C224.65,709.14,224.52,708.68,224.52,708.25 C224.52,707.17,225.4,707.01,225.85,707.01 C227.53,707.01,228.1,710.31,228.1,710.83 Z "
         stroke-width="0"
         fill="black"
         id="path6417" /><path
         d="M230.52,709.99 L230.52,710 L230.52,710.01 L230.52,710.02 L230.52,710.03 L230.52,710.04 L230.51,710.05 L230.51,710.07 L230.51,710.08 L230.5,710.09 L230.5,710.1 L230.49,710.11 L230.49,710.12 L230.48,710.13 L230.47,710.14 L230.46,710.15 L230.46,710.16 L230.45,710.17 L230.44,710.18 L230.43,710.19 L230.42,710.2 L230.41,710.21 L230.39,710.21 L230.38,710.22 L230.37,710.23 L230.36,710.23 L230.34,710.24 L230.33,710.24 L230.31,710.25 L230.29,710.25 L230.28,710.25 L230.26,710.25 L230.24,710.25 C230.05,710.25,229.85,710.07,229.85,709.87 C229.85,709.75,229.94,709.6,230.13,709.6 C230.33,709.6,230.52,709.8,230.52,709.99 Z "
         stroke-width="0"
         fill="black"
         id="path6419" /><path
         d="M229.1,706.45 L229.09,706.43 L229.09,706.41 L229.08,706.38 L229.07,706.36 L229.07,706.34 L229.06,706.33 L229.06,706.31 L229.05,706.29 L229.05,706.27 L229.05,706.26 L229.04,706.24 L229.04,706.23 L229.04,706.22 L229.04,706.21 L229.04,706.2 L229.04,706.19 L229.04,706.17 L229.04,706.16 L229.04,706.15 C229.04,705.83,229.32,705.56,229.7,705.56 C230.4,705.56,230.7,706.52,230.7,706.63 C230.7,706.72,230.61,706.72,230.59,706.72 C230.49,706.72,230.49,706.68,230.46,706.6 C230.3,706.04,229.99,705.76,229.72,705.76 C229.58,705.76,229.55,705.85,229.55,706 C229.55,706.16,229.59,706.29,229.66,706.45 C229.73,706.63,229.8,706.82,229.88,707 C229.94,707.17,230.19,707.81,230.22,707.89 C230.24,707.96,230.26,708.04,230.26,708.11 C230.26,708.44,229.99,708.71,229.6,708.71 C228.91,708.71,228.59,707.76,228.59,707.64 C228.59,707.55,228.69,707.55,228.71,707.55 C228.81,707.55,228.81,707.58,228.83,707.66 C229.02,708.26,229.32,708.51,229.58,708.51 C229.69,708.51,229.76,708.45,229.76,708.27 C229.76,708.11,229.71,708,229.54,707.57 Z "
         stroke-width="0"
         fill="black"
         id="path6421" /><path
         d="M231.93,706.07 L231.93,706.06 L231.93,706.05 L231.92,706.04 L231.92,706.03 L231.92,706.02 L231.92,706.01 L231.91,706 L231.91,705.99 L231.9,705.97 L231.9,705.94 L231.89,705.92 L231.89,705.9 L231.89,705.89 L231.88,705.88 L231.88,705.87 L231.88,705.86 L231.88,705.85 L231.87,705.84 L231.87,705.83 L231.87,705.82 L231.87,705.82 L231.87,705.81 L231.87,705.8 L231.87,705.8 L231.87,705.79 L231.86,705.79 L231.86,705.79 L231.86,705.79 L231.86,705.78 L231.86,705.78 C231.86,705.63,231.99,705.56,232.1,705.56 C232.23,705.56,232.34,705.65,232.37,705.71 C232.41,705.78,232.46,706,232.5,706.15 C232.53,706.28,232.61,706.6,232.65,706.77 C232.69,706.93,232.74,707.08,232.77,707.24 C232.85,707.53,232.86,707.58,233.06,707.87 C233.26,708.15,233.59,708.51,234.11,708.51 C234.51,708.51,234.52,708.16,234.52,708.02 C234.52,707.6,234.22,706.83,234.11,706.54 C234.03,706.34,234.01,706.28,234.01,706.16 C234.01,705.79,234.31,705.56,234.67,705.56 C235.36,705.56,235.67,706.52,235.67,706.63 C235.67,706.72,235.58,706.72,235.56,706.72 C235.46,706.72,235.46,706.68,235.43,706.6 C235.27,706.04,234.97,705.76,234.69,705.76 C234.54,705.76,234.51,705.85,234.51,706 C234.51,706.16,234.55,706.25,234.67,706.57 C234.76,706.78,235.04,707.52,235.04,707.91 C235.04,708.59,234.51,708.71,234.14,708.71 C233.56,708.71,233.17,708.35,232.96,708.07 C232.91,708.55,232.5,708.71,232.21,708.71 C231.91,708.71,231.75,708.49,231.66,708.33 C231.51,708.07,231.41,707.67,231.41,707.64 C231.41,707.55,231.51,707.55,231.53,707.55 C231.63,707.55,231.63,707.57,231.68,707.76 C231.79,708.17,231.92,708.51,232.19,708.51 C232.37,708.51,232.42,708.36,232.42,708.17 C232.42,708.04,232.36,707.78,232.31,707.59 C232.26,707.4,232.19,707.11,232.16,706.96 Z "
         stroke-width="0"
         fill="black"
         id="path6423" /></g><g
       style="font-style:normal;font-variant:normal;font-weight:normal;font-stretch:normal;letter-spacing:normal;word-spacing:normal;text-anchor:start;fill:none;fill-opacity:1;fill-rule:evenodd;stroke:#000000;stroke-linecap:butt;stroke-linejoin:miter;stroke-miterlimit:10.43299961;stroke-dasharray:none;stroke-dashoffset:0;stroke-opacity:1"
       ns0:preamble=""
       ns0:text="$+$\n"
       word-spacing="normal"
       letter-spacing="normal"
       font-size-adjust="none"
       font-stretch="normal"
       font-weight="normal"
       font-variant="normal"
       font-style="normal"
       stroke-miterlimit="10.433"
       xml:space="preserve"
       transform="translate(-64.77136,-444.08916)"
       id="g6770"><path
         id="path6772"
         d="m 227.51,709.41 2.78,0 c 0.14,0 0.33,0 0.33,0.2 0,0.2 -0.19,0.2 -0.33,0.2 l -2.78,0 0,2.79 c 0,0.14 0,0.33 -0.2,0.33 -0.2,0 -0.2,-0.19 -0.2,-0.33 l 0,-2.79 -2.79,0 c -0.14,0 -0.33,0 -0.33,-0.2 0,-0.2 0.19,-0.2 0.33,-0.2 l 2.79,0 0,-2.79 c 0,-0.14 0,-0.32 0.2,-0.32 0.2,0 0.2,0.18 0.2,0.32 z"
         inkscape:connector-curvature="0"
         style="fill:#000000;stroke-width:0" /></g><g
       id="g7116"
       transform="translate(-64.325384,-471.29361)"
       xml:space="preserve"
       stroke-miterlimit="10.433"
       font-style="normal"
       font-variant="normal"
       font-weight="normal"
       font-stretch="normal"
       font-size-adjust="none"
       letter-spacing="normal"
       word-spacing="normal"
       ns0:text="$-$\n"
       ns0:preamble=""
       style="font-style:normal;font-variant:normal;font-weight:normal;font-stretch:normal;letter-spacing:normal;word-spacing:normal;text-anchor:start;fill:none;fill-opacity:1;fill-rule:evenodd;stroke:#000000;stroke-linecap:butt;stroke-linejoin:miter;stroke-miterlimit:10.43299961;stroke-dasharray:none;stroke-dashoffset:0;stroke-opacity:1"><path
         style="fill:#000000;stroke-width:0"
         inkscape:connector-curvature="0"
         d="m 230,709.41 0.03,0 0.03,0 0.03,0.01 0.02,0 0.01,0 0.02,0 0.01,0 0.02,0 0.01,0 0.02,0.01 0.01,0 0.01,0 0.02,0.01 0.01,0 0.01,0.01 0.01,0.01 0.01,0 0.01,0.01 0.01,0.01 0.01,0.01 0.01,0.01 0,0 0,0.01 0.01,0 0,0.01 0,0.01 0,0 0.01,0.01 0,0.01 0,0 0,0.01 0,0.01 0,0.01 0.01,0.01 0,0 0,0.01 0,0.01 c 0,0.2 -0.18,0.2 -0.35,0.2 l -5.39,0 c -0.17,0 -0.35,0 -0.35,-0.2 0,-0.2 0.18,-0.2 0.35,-0.2 z"
         id="path7118" /></g><g
       style="font-style:normal;font-variant:normal;font-weight:normal;font-stretch:normal;letter-spacing:normal;word-spacing:normal;text-anchor:start;fill:none;fill-opacity:1;fill-rule:evenodd;stroke:#000000;stroke-linecap:butt;stroke-linejoin:miter;stroke-miterlimit:10.43299961;stroke-dasharray:none;stroke-dashoffset:0;stroke-opacity:1"
       ns0:preamble=""
       ns0:text="$v_{s}$\n"
       word-spacing="normal"
       letter-spacing="normal"
       font-size-adjust="none"
       font-stretch="normal"
       font-weight="normal"
       font-variant="normal"
       font-style="normal"
       stroke-miterlimit="10.433"
       xml:space="preserve"
       transform="translate(-140.05412,-457.90729)"
       id="g7483"><path
         id="path7485"
         d="m 228.1,710.83 -0.01,0.02 0,0.03 0,0.02 0,0.03 0,0.02 0,0.02 0,0.02 -0.01,0.02 0,0.04 -0.01,0.04 -0.01,0.04 -0.01,0.03 -0.01,0.04 -0.01,0.03 -0.01,0.03 -0.02,0.03 -0.01,0.02 -0.02,0.03 -0.01,0.02 -0.02,0.02 -0.01,0.02 -0.02,0.02 -0.02,0.01 -0.02,0.02 -0.01,0.01 -0.02,0.01 -0.02,0.01 -0.02,0.01 -0.02,0.01 -0.02,0.01 -0.01,0 -0.02,0.01 -0.02,0 -0.02,0 -0.02,0.01 -0.01,0 c -0.25,0 -0.49,-0.26 -0.49,-0.48 0,-0.13 0.05,-0.19 0.16,-0.3 0.21,-0.2 0.34,-0.46 0.34,-0.82 0,-0.42 -0.61,-2.7 -1.78,-2.7 -0.51,0 -0.73,0.35 -0.73,0.87 0,0.56 0.27,1.28 0.57,2.11 0.07,0.17 0.12,0.31 0.12,0.5 0,0.45 -0.31,0.82 -0.81,0.82 -0.94,0 -1.32,-1.45 -1.32,-1.54 0,-0.1 0.1,-0.1 0.12,-0.1 0.1,0 0.11,0.02 0.16,0.18 0.29,1.01 0.72,1.24 1.01,1.24 0.08,0 0.25,0 0.25,-0.32 0,-0.25 -0.1,-0.52 -0.17,-0.7 -0.44,-1.15 -0.57,-1.61 -0.57,-2.04 0,-1.08 0.88,-1.24 1.33,-1.24 1.68,0 2.25,3.3 2.25,3.82 z"
         inkscape:connector-curvature="0"
         style="fill:#000000;stroke-width:0" /><path
         id="path7487"
         d="m 231.27,708.25 -0.02,0 -0.02,-0.01 -0.01,0 -0.02,-0.01 -0.01,0 -0.02,-0.01 -0.01,-0.01 -0.01,-0.01 -0.02,-0.01 -0.01,0 -0.01,-0.01 -0.01,-0.01 -0.02,-0.01 -0.01,-0.01 -0.01,-0.01 -0.01,-0.02 -0.01,-0.01 0,-0.01 -0.01,-0.01 -0.01,-0.01 -0.01,-0.01 0,-0.02 -0.01,-0.01 0,-0.01 -0.01,-0.01 0,-0.02 -0.01,-0.01 0,-0.01 0,-0.02 0,-0.01 0,-0.01 0,-0.02 c 0,-0.16 0.14,-0.22 0.23,-0.22 0.06,0 0.33,0.04 0.33,0.4 0,0.45 -0.5,0.61 -0.93,0.61 -1.09,0 -1.28,-0.81 -1.28,-1.02 0,-0.26 0.15,-0.43 0.24,-0.51 0.19,-0.14 0.31,-0.17 0.79,-0.25 0.15,-0.03 0.59,-0.11 0.59,-0.46 0,-0.12 -0.07,-0.39 -0.36,-0.56 -0.28,-0.15 -0.62,-0.15 -0.7,-0.15 -0.28,0 -0.68,0.06 -0.84,0.29 0.23,0.03 0.38,0.2 0.38,0.4 0,0.17 -0.12,0.25 -0.27,0.25 -0.2,0 -0.4,-0.16 -0.4,-0.46 0,-0.42 0.44,-0.68 1.12,-0.68 1.28,0 1.52,0.88 1.52,1.15 0,0.64 -0.7,0.77 -0.96,0.82 -0.06,0.01 -0.24,0.04 -0.28,0.05 -0.26,0.05 -0.38,0.2 -0.38,0.35 0,0.16 0.12,0.35 0.27,0.45 0.19,0.12 0.44,0.13 0.56,0.13 0.14,0 0.51,-0.02 0.66,-0.26 z"
         inkscape:connector-curvature="0"
         style="fill:#000000;stroke-width:0" /></g><path
       inkscape:connector-curvature="0"
       id="path132-7"
       style="fill:none;stroke:#000000;stroke-width:0.97500002;stroke-linecap:round;stroke-linejoin:bevel;stroke-miterlimit:6;stroke-dasharray:none;stroke-opacity:1"
       d="m 374.35128,304.31433 c 0,1.243 -1.007,2.25 -2.25,2.25 -1.243,0 -2.25,-1.007 -2.25,-2.25 0,-1.243 1.007,-2.25 2.25,-2.25 1.243,0 2.25,1.007 2.25,2.25" /><path
       inkscape:connector-curvature="0"
       id="path134-1"
       style="fill:none;stroke:#000000;stroke-width:0.97500002;stroke-linecap:round;stroke-linejoin:bevel;stroke-miterlimit:6;stroke-dasharray:none;stroke-opacity:1"
       d="m 369.37825,304.47201 -3.75,0" /></g></svg>